<?xml version="1.0" encoding="UTF-8" standalone="no"?><svg xmlns="http://www.w3.org/2000/svg" xmlns:xlink="http://www.w3.org/1999/xlink" contentScriptType="application/ecmascript" contentStyleType="text/css" height="610.5px" preserveAspectRatio="none" style="width:801px;height:610px;" version="1.1" viewBox="0 0 801 610" width="801px" zoomAndPan="magnify"><defs><filter height="300%" id="f1kzy4dq0pb41e" width="300%" x="-1" y="-1"><feGaussianBlur result="blurOut" stdDeviation="3.0"/><feColorMatrix in="blurOut" result="blurOut2" type="matrix" values="0 0 0 0 0 0 0 0 0 0 0 0 0 0 0 0 0 0 .4 0"/><feOffset dx="6.0" dy="6.0" in="blurOut2" result="blurOut3"/><feBlend in="SourceGraphic" in2="blurOut3" mode="normal"/></filter></defs><g><!--MD5=[6d696eeb6a0937c3630c502bf2d9f69b]
class AbstractPersonnage--><rect fill="#FEFECE" filter="url(#f1kzy4dq0pb41e)" height="146.543" id="AbstractPersonnage" style="stroke: #A80036; stroke-width: 2.25;" width="223.5" x="285" y="222"/><ellipse cx="310.875" cy="252.1406" fill="#A9DCDF" rx="16.5" ry="16.5" style="stroke: #A80036; stroke-width: 1.5;"/><path d="M314.1563,254.7891 L307.9453,254.7891 L307.3125,256.3359 L307.9453,256.3359 Q308.8594,256.3359 309.2578,256.6875 Q309.6563,257.0391 309.6563,257.625 Q309.6563,258.1875 309.2578,258.5391 Q308.8594,258.8906 307.9453,258.8906 L304.5,258.8906 Q303.5859,258.8906 303.2109,258.5391 Q302.8125,258.1875 302.8125,257.6016 Q302.8125,257.0391 303.2344,256.6875 Q303.6328,256.3125 304.5703,256.3359 L308.5781,246.3516 L306.9141,246.3516 Q306,246.3516 305.6016,246 Q305.2031,245.6484 305.2031,245.0625 Q305.2031,244.5 305.6016,244.1484 Q306,243.7969 306.9141,243.7969 L312.4219,243.7969 L317.5078,256.3359 Q318.3984,256.3359 318.6797,256.5469 Q319.2656,256.9453 319.2656,257.625 Q319.2656,258.1875 318.8672,258.5391 Q318.4922,258.8906 317.5781,258.8906 L314.1328,258.8906 Q313.2188,258.8906 312.8203,258.5391 Q312.4219,258.1875 312.4219,257.6016 Q312.4219,257.0391 312.8203,256.6875 Q313.2188,256.3359 314.1328,256.3359 L314.7656,256.3359 L314.1563,254.7891 Z M313.0781,252.2344 L311.0391,247.1719 L308.9766,252.2344 L313.0781,252.2344 Z "/><text fill="#000000" font-family="sans-serif" font-size="18" font-style="italic" lengthAdjust="spacingAndGlyphs" textLength="87" x="373.125" y="248.1855">«abstract»</text><text fill="#000000" font-family="sans-serif" font-size="18" font-style="italic" lengthAdjust="spacingAndGlyphs" textLength="168" x="332.625" y="270.8262">AbstractPersonnage</text><line style="stroke: #A80036; stroke-width: 2.25;" x1="286.5" x2="507" y1="282.2813" y2="282.2813"/><polygon fill="none" points="301.5,291.2813,307.5,297.2813,301.5,303.2813,295.5,297.2813" style="stroke: #B38D22; stroke-width: 1.5;"/><text fill="#000000" font-family="sans-serif" font-size="16.5" lengthAdjust="spacingAndGlyphs" textLength="178.5" x="315" y="305.4097">_phrase_attaque : String</text><polygon fill="none" points="301.5,312.0352,307.5,318.0352,301.5,324.0352,295.5,318.0352" style="stroke: #B38D22; stroke-width: 1.5;"/><text fill="#000000" font-family="sans-serif" font-size="16.5" lengthAdjust="spacingAndGlyphs" textLength="184.5" x="315" y="326.1636">_phrase_defense : String</text><line style="stroke: #A80036; stroke-width: 2.25;" x1="286.5" x2="507" y1="335.7891" y2="335.7891"/><ellipse cx="301.5" cy="352.2891" fill="#84BE84" rx="4.5" ry="4.5" style="stroke: #038048; stroke-width: 1.5;"/><text fill="#000000" font-family="sans-serif" font-size="16.5" lengthAdjust="spacingAndGlyphs" textLength="160.5" x="315" y="358.9175">degats_attaque() float</text><!--MD5=[7e839c7f40ad33ee08f12d1385d34f55]
class PersonnagesService--><rect fill="#FEFECE" filter="url(#f1kzy4dq0pb41e)" height="92.7539" id="PersonnagesService" style="stroke: #A80036; stroke-width: 2.25;" width="220.5" x="286.5" y="12"/><ellipse cx="309" cy="36" fill="#ADD1B2" rx="16.5" ry="16.5" style="stroke: #A80036; stroke-width: 1.5;"/><path d="M313.1484,29.8125 Q313.3828,29.4844 313.6641,29.3203 Q313.9453,29.1563 314.2734,29.1563 Q314.8359,29.1563 315.1875,29.5547 Q315.5391,29.9297 315.5391,30.8438 L315.5391,33.0234 Q315.5391,33.9375 315.1875,34.3359 Q314.8359,34.7344 314.2734,34.7344 Q313.7578,34.7344 313.4531,34.4297 Q313.1484,34.1484 312.9844,33.375 Q312.9141,32.8359 312.6328,32.5547 Q312.1406,31.9922 311.2266,31.6641 Q310.3125,31.3359 309.375,31.3359 Q308.2266,31.3359 307.2656,31.8281 Q306.3281,32.3203 305.5781,33.4453 Q304.8516,34.5703 304.8516,36.1172 L304.8516,37.7578 Q304.8516,39.6094 306.1875,40.8516 Q307.5234,42.0703 309.9141,42.0703 Q311.3203,42.0703 312.3047,41.6953 Q312.8906,41.4609 313.5234,40.8047 Q313.9219,40.4063 314.1328,40.2891 Q314.3672,40.1719 314.6719,40.1719 Q315.1641,40.1719 315.5391,40.5703 Q315.9375,40.9453 315.9375,41.4609 Q315.9375,41.9766 315.4219,42.5859 Q314.6719,43.4531 313.4766,43.9453 Q311.8594,44.625 309.9141,44.625 Q307.6406,44.625 305.8359,43.6875 Q304.3594,42.9375 303.3281,41.3438 Q302.2969,39.7266 302.2969,37.8047 L302.2969,36.0703 Q302.2969,34.0781 303.2109,32.3672 Q304.1484,30.6328 305.7891,29.7188 Q307.4297,28.7813 309.2813,28.7813 Q310.3828,28.7813 311.3438,29.0391 Q312.3281,29.2734 313.1484,29.8125 Z "/><text fill="#000000" font-family="sans-serif" font-size="18" lengthAdjust="spacingAndGlyphs" textLength="172.5" x="330" y="43.3652">PersonnagesService</text><line style="stroke: #A80036; stroke-width: 2.25;" x1="288" x2="505.5" y1="60" y2="60"/><line style="stroke: #A80036; stroke-width: 2.25;" x1="288" x2="505.5" y1="72" y2="72"/><ellipse cx="303" cy="88.5" fill="#84BE84" rx="4.5" ry="4.5" style="stroke: #038048; stroke-width: 1.5;"/><text fill="#000000" font-family="sans-serif" font-size="16.5" lengthAdjust="spacingAndGlyphs" textLength="108" x="316.5" y="95.1284">attaquer() float</text><!--MD5=[6b455bb8407ccb98ad4b82c422822b44]
class Magicien--><rect fill="#FEFECE" filter="url(#f1kzy4dq0pb41e)" height="134.2617" id="Magicien" style="stroke: #A80036; stroke-width: 2.25;" width="223.5" x="9" y="460.5"/><ellipse cx="77.625" cy="484.5" fill="#ADD1B2" rx="16.5" ry="16.5" style="stroke: #A80036; stroke-width: 1.5;"/><path d="M81.7734,478.3125 Q82.0078,477.9844 82.2891,477.8203 Q82.5703,477.6563 82.8984,477.6563 Q83.4609,477.6563 83.8125,478.0547 Q84.1641,478.4297 84.1641,479.3438 L84.1641,481.5234 Q84.1641,482.4375 83.8125,482.8359 Q83.4609,483.2344 82.8984,483.2344 Q82.3828,483.2344 82.0781,482.9297 Q81.7734,482.6484 81.6094,481.875 Q81.5391,481.3359 81.2578,481.0547 Q80.7656,480.4922 79.8516,480.1641 Q78.9375,479.8359 78,479.8359 Q76.8516,479.8359 75.8906,480.3281 Q74.9531,480.8203 74.2031,481.9453 Q73.4766,483.0703 73.4766,484.6172 L73.4766,486.2578 Q73.4766,488.1094 74.8125,489.3516 Q76.1484,490.5703 78.5391,490.5703 Q79.9453,490.5703 80.9297,490.1953 Q81.5156,489.9609 82.1484,489.3047 Q82.5469,488.9063 82.7578,488.7891 Q82.9922,488.6719 83.2969,488.6719 Q83.7891,488.6719 84.1641,489.0703 Q84.5625,489.4453 84.5625,489.9609 Q84.5625,490.4766 84.0469,491.0859 Q83.2969,491.9531 82.1016,492.4453 Q80.4844,493.125 78.5391,493.125 Q76.2656,493.125 74.4609,492.1875 Q72.9844,491.4375 71.9531,489.8438 Q70.9219,488.2266 70.9219,486.3047 L70.9219,484.5703 Q70.9219,482.5781 71.8359,480.8672 Q72.7734,479.1328 74.4141,478.2188 Q76.0547,477.2813 77.9063,477.2813 Q79.0078,477.2813 79.9688,477.5391 Q80.9531,477.7734 81.7734,478.3125 Z "/><text fill="#000000" font-family="sans-serif" font-size="18" lengthAdjust="spacingAndGlyphs" textLength="73.5" x="108.375" y="491.8652">Magicien</text><line style="stroke: #A80036; stroke-width: 2.25;" x1="10.5" x2="231" y1="508.5" y2="508.5"/><polygon fill="none" points="25.5,517.5,31.5,523.5,25.5,529.5,19.5,523.5" style="stroke: #B38D22; stroke-width: 1.5;"/><text fill="#000000" font-family="sans-serif" font-size="16.5" lengthAdjust="spacingAndGlyphs" textLength="178.5" x="39" y="531.6284">_phrase_attaque : String</text><polygon fill="none" points="25.5,538.2539,31.5,544.2539,25.5,550.2539,19.5,544.2539" style="stroke: #B38D22; stroke-width: 1.5;"/><text fill="#000000" font-family="sans-serif" font-size="16.5" lengthAdjust="spacingAndGlyphs" textLength="184.5" x="39" y="552.3823">_phrase_defense : String</text><line style="stroke: #A80036; stroke-width: 2.25;" x1="10.5" x2="231" y1="562.0078" y2="562.0078"/><ellipse cx="25.5" cy="578.5078" fill="#84BE84" rx="4.5" ry="4.5" style="stroke: #038048; stroke-width: 1.5;"/><text fill="#000000" font-family="sans-serif" font-size="16.5" lengthAdjust="spacingAndGlyphs" textLength="160.5" x="39" y="585.1362">degats_attaque() float</text><!--MD5=[8b767dff77bbacea0d3f910cfdc225b7]
class Guerrier--><rect fill="#FEFECE" filter="url(#f1kzy4dq0pb41e)" height="134.2617" id="Guerrier" style="stroke: #A80036; stroke-width: 2.25;" width="223.5" x="285" y="460.5"/><ellipse cx="356.625" cy="484.5" fill="#ADD1B2" rx="16.5" ry="16.5" style="stroke: #A80036; stroke-width: 1.5;"/><path d="M360.7734,478.3125 Q361.0078,477.9844 361.2891,477.8203 Q361.5703,477.6563 361.8984,477.6563 Q362.4609,477.6563 362.8125,478.0547 Q363.1641,478.4297 363.1641,479.3438 L363.1641,481.5234 Q363.1641,482.4375 362.8125,482.8359 Q362.4609,483.2344 361.8984,483.2344 Q361.3828,483.2344 361.0781,482.9297 Q360.7734,482.6484 360.6094,481.875 Q360.5391,481.3359 360.2578,481.0547 Q359.7656,480.4922 358.8516,480.1641 Q357.9375,479.8359 357,479.8359 Q355.8516,479.8359 354.8906,480.3281 Q353.9531,480.8203 353.2031,481.9453 Q352.4766,483.0703 352.4766,484.6172 L352.4766,486.2578 Q352.4766,488.1094 353.8125,489.3516 Q355.1484,490.5703 357.5391,490.5703 Q358.9453,490.5703 359.9297,490.1953 Q360.5156,489.9609 361.1484,489.3047 Q361.5469,488.9063 361.7578,488.7891 Q361.9922,488.6719 362.2969,488.6719 Q362.7891,488.6719 363.1641,489.0703 Q363.5625,489.4453 363.5625,489.9609 Q363.5625,490.4766 363.0469,491.0859 Q362.2969,491.9531 361.1016,492.4453 Q359.4844,493.125 357.5391,493.125 Q355.2656,493.125 353.4609,492.1875 Q351.9844,491.4375 350.9531,489.8438 Q349.9219,488.2266 349.9219,486.3047 L349.9219,484.5703 Q349.9219,482.5781 350.8359,480.8672 Q351.7734,479.1328 353.4141,478.2188 Q355.0547,477.2813 356.9063,477.2813 Q358.0078,477.2813 358.9688,477.5391 Q359.9531,477.7734 360.7734,478.3125 Z "/><text fill="#000000" font-family="sans-serif" font-size="18" lengthAdjust="spacingAndGlyphs" textLength="67.5" x="387.375" y="491.8652">Guerrier</text><line style="stroke: #A80036; stroke-width: 2.25;" x1="286.5" x2="507" y1="508.5" y2="508.5"/><polygon fill="none" points="301.5,517.5,307.5,523.5,301.5,529.5,295.5,523.5" style="stroke: #B38D22; stroke-width: 1.5;"/><text fill="#000000" font-family="sans-serif" font-size="16.5" lengthAdjust="spacingAndGlyphs" textLength="178.5" x="315" y="531.6284">_phrase_attaque : String</text><polygon fill="none" points="301.5,538.2539,307.5,544.2539,301.5,550.2539,295.5,544.2539" style="stroke: #B38D22; stroke-width: 1.5;"/><text fill="#000000" font-family="sans-serif" font-size="16.5" lengthAdjust="spacingAndGlyphs" textLength="184.5" x="315" y="552.3823">_phrase_defense : String</text><line style="stroke: #A80036; stroke-width: 2.25;" x1="286.5" x2="507" y1="562.0078" y2="562.0078"/><ellipse cx="301.5" cy="578.5078" fill="#84BE84" rx="4.5" ry="4.5" style="stroke: #038048; stroke-width: 1.5;"/><text fill="#000000" font-family="sans-serif" font-size="16.5" lengthAdjust="spacingAndGlyphs" textLength="160.5" x="315" y="585.1362">degats_attaque() float</text><!--MD5=[eb8d405af43fb8d97dec3efb6729fc92]
class Voleur--><rect fill="#FEFECE" filter="url(#f1kzy4dq0pb41e)" height="134.2617" id="Voleur" style="stroke: #A80036; stroke-width: 2.25;" width="223.5" x="561" y="460.5"/><ellipse cx="640.125" cy="484.5" fill="#ADD1B2" rx="16.5" ry="16.5" style="stroke: #A80036; stroke-width: 1.5;"/><path d="M644.2734,478.3125 Q644.5078,477.9844 644.7891,477.8203 Q645.0703,477.6563 645.3984,477.6563 Q645.9609,477.6563 646.3125,478.0547 Q646.6641,478.4297 646.6641,479.3438 L646.6641,481.5234 Q646.6641,482.4375 646.3125,482.8359 Q645.9609,483.2344 645.3984,483.2344 Q644.8828,483.2344 644.5781,482.9297 Q644.2734,482.6484 644.1094,481.875 Q644.0391,481.3359 643.7578,481.0547 Q643.2656,480.4922 642.3516,480.1641 Q641.4375,479.8359 640.5,479.8359 Q639.3516,479.8359 638.3906,480.3281 Q637.4531,480.8203 636.7031,481.9453 Q635.9766,483.0703 635.9766,484.6172 L635.9766,486.2578 Q635.9766,488.1094 637.3125,489.3516 Q638.6484,490.5703 641.0391,490.5703 Q642.4453,490.5703 643.4297,490.1953 Q644.0156,489.9609 644.6484,489.3047 Q645.0469,488.9063 645.2578,488.7891 Q645.4922,488.6719 645.7969,488.6719 Q646.2891,488.6719 646.6641,489.0703 Q647.0625,489.4453 647.0625,489.9609 Q647.0625,490.4766 646.5469,491.0859 Q645.7969,491.9531 644.6016,492.4453 Q642.9844,493.125 641.0391,493.125 Q638.7656,493.125 636.9609,492.1875 Q635.4844,491.4375 634.4531,489.8438 Q633.4219,488.2266 633.4219,486.3047 L633.4219,484.5703 Q633.4219,482.5781 634.3359,480.8672 Q635.2734,479.1328 636.9141,478.2188 Q638.5547,477.2813 640.4063,477.2813 Q641.5078,477.2813 642.4688,477.5391 Q643.4531,477.7734 644.2734,478.3125 Z "/><text fill="#000000" font-family="sans-serif" font-size="18" lengthAdjust="spacingAndGlyphs" textLength="52.5" x="670.875" y="491.8652">Voleur</text><line style="stroke: #A80036; stroke-width: 2.25;" x1="562.5" x2="783" y1="508.5" y2="508.5"/><polygon fill="none" points="577.5,517.5,583.5,523.5,577.5,529.5,571.5,523.5" style="stroke: #B38D22; stroke-width: 1.5;"/><text fill="#000000" font-family="sans-serif" font-size="16.5" lengthAdjust="spacingAndGlyphs" textLength="178.5" x="591" y="531.6284">_phrase_attaque : String</text><polygon fill="none" points="577.5,538.2539,583.5,544.2539,577.5,550.2539,571.5,544.2539" style="stroke: #B38D22; stroke-width: 1.5;"/><text fill="#000000" font-family="sans-serif" font-size="16.5" lengthAdjust="spacingAndGlyphs" textLength="184.5" x="591" y="552.3823">_phrase_defense : String</text><line style="stroke: #A80036; stroke-width: 2.25;" x1="562.5" x2="783" y1="562.0078" y2="562.0078"/><ellipse cx="577.5" cy="578.5078" fill="#84BE84" rx="4.5" ry="4.5" style="stroke: #038048; stroke-width: 1.5;"/><text fill="#000000" font-family="sans-serif" font-size="16.5" lengthAdjust="spacingAndGlyphs" textLength="160.5" x="591" y="585.1362">degats_attaque() float</text><!--MD5=[cdbc95a6c634c7489eae863ed87e4b8a]
link PersonnagesService to AbstractPersonnage--><path d="M396.75,105.117 C396.75,135.99 396.75,177.7665 396.75,214.1805 " fill="none" id="PersonnagesService-&gt;AbstractPersonnage" style="stroke: #A80036; stroke-width: 1.5; stroke-dasharray: 7.0,7.0;"/><polygon fill="#A80036" points="396.75,221.8635,402.75,208.3635,396.75,214.3635,390.75,208.3635,396.75,221.8635" style="stroke: #A80036; stroke-width: 1.5;"/><text fill="#000000" font-family="sans-serif" font-size="19.5" lengthAdjust="spacingAndGlyphs" textLength="52.5" x="398.25" y="171.7427">«use»</text><!--MD5=[e3aa2855f43ce1a25917c87387861016]
reverse link AbstractPersonnage to Magicien--><path d="M286.5915,388.599 C257.721,412.605 227.1555,438.021 200.235,460.4066 " fill="none" id="AbstractPersonnage&lt;-Magicien" style="stroke: #A80036; stroke-width: 1.5;"/><polygon fill="none" points="280.02,380.4075,309.801,369.3,293.4465,396.555,280.02,380.4075" style="stroke: #A80036; stroke-width: 1.5;"/><!--MD5=[7903440395d07a99cd7a8b599130ad07]
reverse link AbstractPersonnage to Guerrier--><path d="M396.75,399.936 C396.75,420.396 396.75,441.363 396.75,460.1961 " fill="none" id="AbstractPersonnage&lt;-Guerrier" style="stroke: #A80036; stroke-width: 1.5;"/><polygon fill="none" points="386.25,399.615,396.75,369.615,407.25,399.615,386.25,399.615" style="stroke: #A80036; stroke-width: 1.5;"/><!--MD5=[cc7d698a2c7749f6fae0b4ff1e7ea3ed]
reverse link AbstractPersonnage to Voleur--><path d="M506.9085,388.599 C535.779,412.605 566.3445,438.021 593.265,460.4066 " fill="none" id="AbstractPersonnage&lt;-Voleur" style="stroke: #A80036; stroke-width: 1.5;"/><polygon fill="none" points="500.0535,396.555,483.699,369.3,513.48,380.4075,500.0535,396.555" style="stroke: #A80036; stroke-width: 1.5;"/><!--MD5=[4f1f52bb7dfa735998c0a66e42938018]
@startuml
scale 1.5
abstract class  AbstractPersonnage <<abstract>> {
	 #_phrase_attaque : String
	 #_phrase_defense : String
	 +degats_attaque() float    
	 }
	 
	 
	class PersonnagesService {
	+attaquer() float
	}
	
	class Magicien {
     #_phrase_attaque : String
	 #_phrase_defense : String
	 +degats_attaque() float    
}

    class Guerrier {
        #_phrase_attaque : String
        #_phrase_defense : String
        +degats_attaque() float    
    }

    class Voleur {
        #_phrase_attaque : String
        #_phrase_defense : String
        +degats_attaque() float    
    }

	PersonnagesService ..> AbstractPersonnage : <<use>>
	Magicien -up-|> AbstractPersonnage
	Guerrier -up-|> AbstractPersonnage
	Voleur -up-|> AbstractPersonnage
@enduml

PlantUML version 1.2020.10(Sun May 17 11:35:57 CEST 2020)
(GPL source distribution)
Java Runtime: OpenJDK Runtime Environment
JVM: OpenJDK 64-Bit Server VM
Java Version: 14+36
Operating System: Windows 10
Default Encoding: Cp1252
Language: fr
Country: FR
--></g></svg>