<?xml version="1.0" encoding="UTF-8" standalone="no"?><svg xmlns="http://www.w3.org/2000/svg" xmlns:xlink="http://www.w3.org/1999/xlink" contentScriptType="application/ecmascript" contentStyleType="text/css" height="387px" preserveAspectRatio="none" style="width:505px;height:387px;" version="1.1" viewBox="0 0 505 387" width="505.5px" zoomAndPan="magnify"><defs><filter height="300%" id="fhb3l9wjv36om" width="300%" x="-1" y="-1"><feGaussianBlur result="blurOut" stdDeviation="3.0"/><feColorMatrix in="blurOut" result="blurOut2" type="matrix" values="0 0 0 0 0 0 0 0 0 0 0 0 0 0 0 0 0 0 .4 0"/><feOffset dx="6.0" dy="6.0" in="blurOut2" result="blurOut3"/><feBlend in="SourceGraphic" in2="blurOut3" mode="normal"/></filter></defs><g><!--MD5=[6d696eeb6a0937c3630c502bf2d9f69b]
class AbstractPersonnage--><rect fill="#FEFECE" filter="url(#fhb3l9wjv36om)" height="146.543" id="AbstractPersonnage" style="stroke: #A80036; stroke-width: 2.25;" width="223.5" x="266.25" y="209.25"/><ellipse cx="292.125" cy="239.3906" fill="#A9DCDF" rx="16.5" ry="16.5" style="stroke: #A80036; stroke-width: 1.5;"/><path d="M295.4063,242.0391 L289.1953,242.0391 L288.5625,243.5859 L289.1953,243.5859 Q290.1094,243.5859 290.5078,243.9375 Q290.9063,244.2891 290.9063,244.875 Q290.9063,245.4375 290.5078,245.7891 Q290.1094,246.1406 289.1953,246.1406 L285.75,246.1406 Q284.8359,246.1406 284.4609,245.7891 Q284.0625,245.4375 284.0625,244.8516 Q284.0625,244.2891 284.4844,243.9375 Q284.8828,243.5625 285.8203,243.5859 L289.8281,233.6016 L288.1641,233.6016 Q287.25,233.6016 286.8516,233.25 Q286.4531,232.8984 286.4531,232.3125 Q286.4531,231.75 286.8516,231.3984 Q287.25,231.0469 288.1641,231.0469 L293.6719,231.0469 L298.7578,243.5859 Q299.6484,243.5859 299.9297,243.7969 Q300.5156,244.1953 300.5156,244.875 Q300.5156,245.4375 300.1172,245.7891 Q299.7422,246.1406 298.8281,246.1406 L295.3828,246.1406 Q294.4688,246.1406 294.0703,245.7891 Q293.6719,245.4375 293.6719,244.8516 Q293.6719,244.2891 294.0703,243.9375 Q294.4688,243.5859 295.3828,243.5859 L296.0156,243.5859 L295.4063,242.0391 Z M294.3281,239.4844 L292.2891,234.4219 L290.2266,239.4844 L294.3281,239.4844 Z "/><text fill="#000000" font-family="sans-serif" font-size="18" font-style="italic" lengthAdjust="spacingAndGlyphs" textLength="87" x="354.375" y="235.4355">«abstract»</text><text fill="#000000" font-family="sans-serif" font-size="18" font-style="italic" lengthAdjust="spacingAndGlyphs" textLength="168" x="313.875" y="258.0762">AbstractPersonnage</text><line style="stroke: #A80036; stroke-width: 2.25;" x1="267.75" x2="488.25" y1="269.5313" y2="269.5313"/><polygon fill="none" points="282.75,278.5313,288.75,284.5313,282.75,290.5313,276.75,284.5313" style="stroke: #B38D22; stroke-width: 1.5;"/><text fill="#000000" font-family="sans-serif" font-size="16.5" lengthAdjust="spacingAndGlyphs" textLength="178.5" x="296.25" y="292.6597">_phrase_attaque : String</text><polygon fill="none" points="282.75,299.2852,288.75,305.2852,282.75,311.2852,276.75,305.2852" style="stroke: #B38D22; stroke-width: 1.5;"/><text fill="#000000" font-family="sans-serif" font-size="16.5" lengthAdjust="spacingAndGlyphs" textLength="184.5" x="296.25" y="313.4136">_phrase_defense : String</text><line style="stroke: #A80036; stroke-width: 2.25;" x1="267.75" x2="488.25" y1="323.0391" y2="323.0391"/><ellipse cx="282.75" cy="339.5391" fill="#84BE84" rx="4.5" ry="4.5" style="stroke: #038048; stroke-width: 1.5;"/><text fill="#000000" font-family="sans-serif" font-size="16.5" lengthAdjust="spacingAndGlyphs" textLength="151.5" x="296.25" y="346.1675">degat_attaque() float</text><!--MD5=[fe7de06e0f2f4ddb9c35fce3669b0853]
class AbstractEquipement--><rect fill="#FEFECE" filter="url(#fhb3l9wjv36om)" height="92.7539" id="AbstractEquipement" style="stroke: #A80036; stroke-width: 2.25;" width="216" x="9" y="12"/><ellipse cx="31.5" cy="36" fill="#A9DCDF" rx="16.5" ry="16.5" style="stroke: #A80036; stroke-width: 1.5;"/><path d="M34.7813,38.6484 L28.5703,38.6484 L27.9375,40.1953 L28.5703,40.1953 Q29.4844,40.1953 29.8828,40.5469 Q30.2813,40.8984 30.2813,41.4844 Q30.2813,42.0469 29.8828,42.3984 Q29.4844,42.75 28.5703,42.75 L25.125,42.75 Q24.2109,42.75 23.8359,42.3984 Q23.4375,42.0469 23.4375,41.4609 Q23.4375,40.8984 23.8594,40.5469 Q24.2578,40.1719 25.1953,40.1953 L29.2031,30.2109 L27.5391,30.2109 Q26.625,30.2109 26.2266,29.8594 Q25.8281,29.5078 25.8281,28.9219 Q25.8281,28.3594 26.2266,28.0078 Q26.625,27.6563 27.5391,27.6563 L33.0469,27.6563 L38.1328,40.1953 Q39.0234,40.1953 39.3047,40.4063 Q39.8906,40.8047 39.8906,41.4844 Q39.8906,42.0469 39.4922,42.3984 Q39.1172,42.75 38.2031,42.75 L34.7578,42.75 Q33.8438,42.75 33.4453,42.3984 Q33.0469,42.0469 33.0469,41.4609 Q33.0469,40.8984 33.4453,40.5469 Q33.8438,40.1953 34.7578,40.1953 L35.3906,40.1953 L34.7813,38.6484 Z M33.7031,36.0938 L31.6641,31.0313 L29.6016,36.0938 L33.7031,36.0938 Z "/><text fill="#000000" font-family="sans-serif" font-size="18" font-style="italic" lengthAdjust="spacingAndGlyphs" textLength="168" x="52.5" y="43.3652">AbstractEquipement</text><line style="stroke: #A80036; stroke-width: 2.25;" x1="10.5" x2="223.5" y1="60" y2="60"/><polygon fill="none" points="25.5,69,31.5,75,25.5,81,19.5,75" style="stroke: #B38D22; stroke-width: 1.5;"/><text fill="#000000" font-family="sans-serif" font-size="16.5" lengthAdjust="spacingAndGlyphs" textLength="85.5" x="39" y="83.1284">_nom String</text><line style="stroke: #A80036; stroke-width: 2.25;" x1="10.5" x2="223.5" y1="92.7539" y2="92.7539"/><!--MD5=[4fee37becfc6618f6c12d3f3b2ea6d43]
class Statistique--><rect fill="#FEFECE" filter="url(#fhb3l9wjv36om)" height="175.7695" id="Statistique" style="stroke: #A80036; stroke-width: 2.25;" width="192" x="21" y="195"/><ellipse cx="69.15" cy="219" fill="#ADD1B2" rx="16.5" ry="16.5" style="stroke: #A80036; stroke-width: 1.5;"/><path d="M73.2984,212.8125 Q73.5328,212.4844 73.8141,212.3203 Q74.0953,212.1563 74.4234,212.1563 Q74.9859,212.1563 75.3375,212.5547 Q75.6891,212.9297 75.6891,213.8438 L75.6891,216.0234 Q75.6891,216.9375 75.3375,217.3359 Q74.9859,217.7344 74.4234,217.7344 Q73.9078,217.7344 73.6031,217.4297 Q73.2984,217.1484 73.1344,216.375 Q73.0641,215.8359 72.7828,215.5547 Q72.2906,214.9922 71.3766,214.6641 Q70.4625,214.3359 69.525,214.3359 Q68.3766,214.3359 67.4156,214.8281 Q66.4781,215.3203 65.7281,216.4453 Q65.0016,217.5703 65.0016,219.1172 L65.0016,220.7578 Q65.0016,222.6094 66.3375,223.8516 Q67.6734,225.0703 70.0641,225.0703 Q71.4703,225.0703 72.4547,224.6953 Q73.0406,224.4609 73.6734,223.8047 Q74.0719,223.4063 74.2828,223.2891 Q74.5172,223.1719 74.8219,223.1719 Q75.3141,223.1719 75.6891,223.5703 Q76.0875,223.9453 76.0875,224.4609 Q76.0875,224.9766 75.5719,225.5859 Q74.8219,226.4531 73.6266,226.9453 Q72.0094,227.625 70.0641,227.625 Q67.7906,227.625 65.9859,226.6875 Q64.5094,225.9375 63.4781,224.3438 Q62.4469,222.7266 62.4469,220.8047 L62.4469,219.0703 Q62.4469,217.0781 63.3609,215.3672 Q64.2984,213.6328 65.9391,212.7188 Q67.5797,211.7813 69.4313,211.7813 Q70.5328,211.7813 71.4938,212.0391 Q72.4781,212.2734 73.2984,212.8125 Z "/><text fill="#000000" font-family="sans-serif" font-size="18" lengthAdjust="spacingAndGlyphs" textLength="87" x="95.85" y="226.3652">Statistique</text><line style="stroke: #A80036; stroke-width: 2.25;" x1="22.5" x2="211.5" y1="243" y2="243"/><rect fill="none" height="9" style="stroke: #C82930; stroke-width: 1.5;" width="9" x="33" y="255"/><text fill="#000000" font-family="sans-serif" font-size="16.5" lengthAdjust="spacingAndGlyphs" textLength="87" x="51" y="266.1284">__force : int</text><rect fill="none" height="9" style="stroke: #C82930; stroke-width: 1.5;" width="9" x="33" y="275.7539"/><text fill="#000000" font-family="sans-serif" font-size="16.5" lengthAdjust="spacingAndGlyphs" textLength="88.5" x="51" y="286.8823">__agilite : int</text><rect fill="none" height="9" style="stroke: #C82930; stroke-width: 1.5;" width="9" x="33" y="296.5078"/><text fill="#000000" font-family="sans-serif" font-size="16.5" lengthAdjust="spacingAndGlyphs" textLength="90" x="51" y="307.6362">__magie : int</text><rect fill="none" height="9" style="stroke: #C82930; stroke-width: 1.5;" width="9" x="33" y="317.2617"/><text fill="#000000" font-family="sans-serif" font-size="16.5" lengthAdjust="spacingAndGlyphs" textLength="108" x="51" y="328.3901">__defense : int</text><rect fill="none" height="9" style="stroke: #C82930; stroke-width: 1.5;" width="9" x="33" y="338.0156"/><text fill="#000000" font-family="sans-serif" font-size="16.5" lengthAdjust="spacingAndGlyphs" textLength="153" x="51" y="349.144">__points_de_vie  : int</text><line style="stroke: #A80036; stroke-width: 2.25;" x1="22.5" x2="211.5" y1="358.7695" y2="358.7695"/><!--MD5=[ab5e5d4c17f1fb443f88e7b5a5dd07c1]
link Statistique to AbstractPersonnage--><path d="M213.345,282.75 C224.334,282.75 235.3215,282.75 246.309,282.75 " fill="none" id="Statistique-&gt;AbstractPersonnage" style="stroke: #A80036; stroke-width: 1.5;"/><polygon fill="#A80036" points="266.0865,282.75,257.0865,276.75,248.0865,282.75,257.0865,288.75,266.0865,282.75" style="stroke: #A80036; stroke-width: 1.5;"/><text fill="#000000" font-family="sans-serif" font-size="19.5" lengthAdjust="spacingAndGlyphs" textLength="10.5" x="225.0919" y="277.6201">1</text><!--MD5=[372aead21d76fe4fc7325ef31f8647ae]
reverse link AbstractEquipement to Statistique--><path d="M117,125.202 C117,147.012 117,171.672 117,194.8425 " fill="none" id="AbstractEquipement&lt;-Statistique" style="stroke: #A80036; stroke-width: 1.5;"/><polygon fill="#A80036" points="117,105.3075,111,114.3075,117,123.3075,123,114.3075,117,105.3075" style="stroke: #A80036; stroke-width: 1.5;"/><text fill="#000000" font-family="sans-serif" font-size="19.5" lengthAdjust="spacingAndGlyphs" textLength="10.5" x="105.8602" y="178.9247">1</text><!--MD5=[65cc8c7917ac654e3ba44782227e05b8]
@startuml
scale 1.5
abstract class  AbstractPersonnage <<abstract>> {
	#_phrase_attaque : String 
	#_phrase_defense : String 
	+degat_attaque() float
}

abstract class AbstractEquipement {
	#_nom String
	 }
	 
class Statistique {
	 -__force : int
	 -__agilite : int
	 -__magie : int
	 -__defense : int
	 -__points_de_vie  : int
}

AbstractPersonnage *-left-"1" Statistique
AbstractEquipement *- -"1" Statistique

@enduml

PlantUML version 1.2020.10(Sun May 17 11:35:57 CEST 2020)
(GPL source distribution)
Java Runtime: OpenJDK Runtime Environment
JVM: OpenJDK 64-Bit Server VM
Java Version: 14+36
Operating System: Windows 10
Default Encoding: Cp1252
Language: fr
Country: FR
--></g></svg>