<?xml version="1.0" encoding="UTF-8" standalone="no"?><svg xmlns="http://www.w3.org/2000/svg" xmlns:xlink="http://www.w3.org/1999/xlink" contentScriptType="application/ecmascript" contentStyleType="text/css" height="297px" preserveAspectRatio="none" style="width:250px;height:297px;" version="1.1" viewBox="0 0 250 297" width="250.5px" zoomAndPan="magnify"><defs><filter height="300%" id="f1qb10txn0xfi6" width="300%" x="-1" y="-1"><feGaussianBlur result="blurOut" stdDeviation="3.0"/><feColorMatrix in="blurOut" result="blurOut2" type="matrix" values="0 0 0 0 0 0 0 0 0 0 0 0 0 0 0 0 0 0 .4 0"/><feOffset dx="6.0" dy="6.0" in="blurOut2" result="blurOut3"/><feBlend in="SourceGraphic" in2="blurOut3" mode="normal"/></filter></defs><g><!--MD5=[6d696eeb6a0937c3630c502bf2d9f69b]
class AbstractPersonnage--><rect fill="#FEFECE" filter="url(#f1qb10txn0xfi6)" height="271.0664" id="AbstractPersonnage" style="stroke: #A80036; stroke-width: 2.25;" width="223.5" x="10.5" y="10.5"/><ellipse cx="36.375" cy="40.6406" fill="#A9DCDF" rx="16.5" ry="16.5" style="stroke: #A80036; stroke-width: 1.5;"/><path d="M39.6563,43.2891 L33.4453,43.2891 L32.8125,44.8359 L33.4453,44.8359 Q34.3594,44.8359 34.7578,45.1875 Q35.1563,45.5391 35.1563,46.125 Q35.1563,46.6875 34.7578,47.0391 Q34.3594,47.3906 33.4453,47.3906 L30,47.3906 Q29.0859,47.3906 28.7109,47.0391 Q28.3125,46.6875 28.3125,46.1016 Q28.3125,45.5391 28.7344,45.1875 Q29.1328,44.8125 30.0703,44.8359 L34.0781,34.8516 L32.4141,34.8516 Q31.5,34.8516 31.1016,34.5 Q30.7031,34.1484 30.7031,33.5625 Q30.7031,33 31.1016,32.6484 Q31.5,32.2969 32.4141,32.2969 L37.9219,32.2969 L43.0078,44.8359 Q43.8984,44.8359 44.1797,45.0469 Q44.7656,45.4453 44.7656,46.125 Q44.7656,46.6875 44.3672,47.0391 Q43.9922,47.3906 43.0781,47.3906 L39.6328,47.3906 Q38.7188,47.3906 38.3203,47.0391 Q37.9219,46.6875 37.9219,46.1016 Q37.9219,45.5391 38.3203,45.1875 Q38.7188,44.8359 39.6328,44.8359 L40.2656,44.8359 L39.6563,43.2891 Z M38.5781,40.7344 L36.5391,35.6719 L34.4766,40.7344 L38.5781,40.7344 Z "/><text fill="#000000" font-family="sans-serif" font-size="18" font-style="italic" lengthAdjust="spacingAndGlyphs" textLength="87" x="98.625" y="36.6855">«abstract»</text><text fill="#000000" font-family="sans-serif" font-size="18" font-style="italic" lengthAdjust="spacingAndGlyphs" textLength="168" x="58.125" y="59.3262">AbstractPersonnage</text><line style="stroke: #A80036; stroke-width: 2.25;" x1="12" x2="232.5" y1="70.7813" y2="70.7813"/><polygon fill="none" points="27,79.7813,33,85.7813,27,91.7813,21,85.7813" style="stroke: #B38D22; stroke-width: 1.5;"/><text fill="#000000" font-family="sans-serif" font-size="16.5" lengthAdjust="spacingAndGlyphs" textLength="94.5" x="40.5" y="93.9097">_nom : String</text><polygon fill="none" points="27,100.5352,33,106.5352,27,112.5352,21,106.5352" style="stroke: #B38D22; stroke-width: 1.5;"/><text fill="#000000" font-family="sans-serif" font-size="16.5" lengthAdjust="spacingAndGlyphs" textLength="178.5" x="40.5" y="114.6636">_phrase_attaque : String</text><polygon fill="none" points="27,121.2891,33,127.2891,27,133.2891,21,127.2891" style="stroke: #B38D22; stroke-width: 1.5;"/><text fill="#000000" font-family="sans-serif" font-size="16.5" lengthAdjust="spacingAndGlyphs" textLength="184.5" x="40.5" y="135.4175">_phrase_defense : String</text><polygon fill="none" points="27,142.043,33,148.043,27,154.043,21,148.043" style="stroke: #B38D22; stroke-width: 1.5;"/><text fill="#000000" font-family="sans-serif" font-size="16.5" lengthAdjust="spacingAndGlyphs" textLength="78" x="40.5" y="156.1714">_force : int</text><polygon fill="none" points="27,162.7969,33,168.7969,27,174.7969,21,168.7969" style="stroke: #B38D22; stroke-width: 1.5;"/><text fill="#000000" font-family="sans-serif" font-size="16.5" lengthAdjust="spacingAndGlyphs" textLength="79.5" x="40.5" y="176.9253">_agilite : int</text><polygon fill="none" points="27,183.5508,33,189.5508,27,195.5508,21,189.5508" style="stroke: #B38D22; stroke-width: 1.5;"/><text fill="#000000" font-family="sans-serif" font-size="16.5" lengthAdjust="spacingAndGlyphs" textLength="81" x="40.5" y="197.6792">_magie : int</text><polygon fill="none" points="27,204.3047,33,210.3047,27,216.3047,21,210.3047" style="stroke: #B38D22; stroke-width: 1.5;"/><text fill="#000000" font-family="sans-serif" font-size="16.5" lengthAdjust="spacingAndGlyphs" textLength="99" x="40.5" y="218.4331">_defense : int</text><polygon fill="none" points="27,225.0586,33,231.0586,27,237.0586,21,231.0586" style="stroke: #B38D22; stroke-width: 1.5;"/><text fill="#000000" font-family="sans-serif" font-size="16.5" lengthAdjust="spacingAndGlyphs" textLength="139.5" x="40.5" y="239.187">_points_de_vie : int</text><line style="stroke: #A80036; stroke-width: 2.25;" x1="12" x2="232.5" y1="248.8125" y2="248.8125"/><ellipse cx="27" cy="265.3125" fill="#84BE84" rx="4.5" ry="4.5" style="stroke: #038048; stroke-width: 1.5;"/><text fill="#000000" font-family="sans-serif" font-size="16.5" lengthAdjust="spacingAndGlyphs" textLength="160.5" x="40.5" y="271.9409">degats_attaque() float</text><!--MD5=[6adf02912a574afe10dd8f41b7bfb87a]
@startuml
scale 1.5
abstract class  AbstractPersonnage <<abstract>> {
    #_nom : String
    #_phrase_attaque : String
    #_phrase_defense : String
    #_force : int
    #_agilite : int
    #_magie : int
    #_defense : int
    #_points_de_vie : int
    +degats_attaque() float    
    }
@enduml

PlantUML version 1.2020.10(Sun May 17 11:35:57 CEST 2020)
(GPL source distribution)
Java Runtime: OpenJDK Runtime Environment
JVM: OpenJDK 64-Bit Server VM
Java Version: 14+36
Operating System: Windows 10
Default Encoding: Cp1252
Language: fr
Country: FR
--></g></svg>