<?xml version="1.0" encoding="UTF-8" standalone="no"?><svg xmlns="http://www.w3.org/2000/svg" xmlns:xlink="http://www.w3.org/1999/xlink" contentScriptType="application/ecmascript" contentStyleType="text/css" height="298.5px" preserveAspectRatio="none" style="width:517px;height:298px;" version="1.1" viewBox="0 0 517 298" width="517.5px" zoomAndPan="magnify"><defs><filter height="300%" id="fnxsc9m1gxwmn" width="300%" x="-1" y="-1"><feGaussianBlur result="blurOut" stdDeviation="3.0"/><feColorMatrix in="blurOut" result="blurOut2" type="matrix" values="0 0 0 0 0 0 0 0 0 0 0 0 0 0 0 0 0 0 .4 0"/><feOffset dx="6.0" dy="6.0" in="blurOut2" result="blurOut3"/><feBlend in="SourceGraphic" in2="blurOut3" mode="normal"/></filter></defs><g><!--MD5=[6d696eeb6a0937c3630c502bf2d9f69b]
class AbstractPersonnage--><rect fill="#FEFECE" filter="url(#fnxsc9m1gxwmn)" height="271.0664" id="AbstractPersonnage" style="stroke: #A80036; stroke-width: 2.25;" width="223.5" x="9" y="12"/><ellipse cx="34.875" cy="42.1406" fill="#A9DCDF" rx="16.5" ry="16.5" style="stroke: #A80036; stroke-width: 1.5;"/><path d="M38.1563,44.7891 L31.9453,44.7891 L31.3125,46.3359 L31.9453,46.3359 Q32.8594,46.3359 33.2578,46.6875 Q33.6563,47.0391 33.6563,47.625 Q33.6563,48.1875 33.2578,48.5391 Q32.8594,48.8906 31.9453,48.8906 L28.5,48.8906 Q27.5859,48.8906 27.2109,48.5391 Q26.8125,48.1875 26.8125,47.6016 Q26.8125,47.0391 27.2344,46.6875 Q27.6328,46.3125 28.5703,46.3359 L32.5781,36.3516 L30.9141,36.3516 Q30,36.3516 29.6016,36 Q29.2031,35.6484 29.2031,35.0625 Q29.2031,34.5 29.6016,34.1484 Q30,33.7969 30.9141,33.7969 L36.4219,33.7969 L41.5078,46.3359 Q42.3984,46.3359 42.6797,46.5469 Q43.2656,46.9453 43.2656,47.625 Q43.2656,48.1875 42.8672,48.5391 Q42.4922,48.8906 41.5781,48.8906 L38.1328,48.8906 Q37.2188,48.8906 36.8203,48.5391 Q36.4219,48.1875 36.4219,47.6016 Q36.4219,47.0391 36.8203,46.6875 Q37.2188,46.3359 38.1328,46.3359 L38.7656,46.3359 L38.1563,44.7891 Z M37.0781,42.2344 L35.0391,37.1719 L32.9766,42.2344 L37.0781,42.2344 Z "/><text fill="#000000" font-family="sans-serif" font-size="18" font-style="italic" lengthAdjust="spacingAndGlyphs" textLength="87" x="97.125" y="38.1855">«abstract»</text><text fill="#000000" font-family="sans-serif" font-size="18" font-style="italic" lengthAdjust="spacingAndGlyphs" textLength="168" x="56.625" y="60.8262">AbstractPersonnage</text><line style="stroke: #A80036; stroke-width: 2.25;" x1="10.5" x2="231" y1="72.2813" y2="72.2813"/><polygon fill="none" points="25.5,81.2813,31.5,87.2813,25.5,93.2813,19.5,87.2813" style="stroke: #B38D22; stroke-width: 1.5;"/><text fill="#000000" font-family="sans-serif" font-size="16.5" lengthAdjust="spacingAndGlyphs" textLength="99" x="39" y="95.4097">_nom  : String</text><polygon fill="none" points="25.5,102.0352,31.5,108.0352,25.5,114.0352,19.5,108.0352" style="stroke: #B38D22; stroke-width: 1.5;"/><text fill="#000000" font-family="sans-serif" font-size="16.5" lengthAdjust="spacingAndGlyphs" textLength="178.5" x="39" y="116.1636">_phrase_attaque : String</text><polygon fill="none" points="25.5,122.7891,31.5,128.7891,25.5,134.7891,19.5,128.7891" style="stroke: #B38D22; stroke-width: 1.5;"/><text fill="#000000" font-family="sans-serif" font-size="16.5" lengthAdjust="spacingAndGlyphs" textLength="184.5" x="39" y="136.9175">_phrase_defense : String</text><polygon fill="none" points="25.5,143.543,31.5,149.543,25.5,155.543,19.5,149.543" style="stroke: #B38D22; stroke-width: 1.5;"/><text fill="#000000" font-family="sans-serif" font-size="16.5" lengthAdjust="spacingAndGlyphs" textLength="78" x="39" y="157.6714">_force : int</text><polygon fill="none" points="25.5,164.2969,31.5,170.2969,25.5,176.2969,19.5,170.2969" style="stroke: #B38D22; stroke-width: 1.5;"/><text fill="#000000" font-family="sans-serif" font-size="16.5" lengthAdjust="spacingAndGlyphs" textLength="79.5" x="39" y="178.4253">_agilite : int</text><polygon fill="none" points="25.5,185.0508,31.5,191.0508,25.5,197.0508,19.5,191.0508" style="stroke: #B38D22; stroke-width: 1.5;"/><text fill="#000000" font-family="sans-serif" font-size="16.5" lengthAdjust="spacingAndGlyphs" textLength="81" x="39" y="199.1792">_magie : int</text><polygon fill="none" points="25.5,205.8047,31.5,211.8047,25.5,217.8047,19.5,211.8047" style="stroke: #B38D22; stroke-width: 1.5;"/><text fill="#000000" font-family="sans-serif" font-size="16.5" lengthAdjust="spacingAndGlyphs" textLength="99" x="39" y="219.9331">_defense : int</text><polygon fill="none" points="25.5,226.5586,31.5,232.5586,25.5,238.5586,19.5,232.5586" style="stroke: #B38D22; stroke-width: 1.5;"/><text fill="#000000" font-family="sans-serif" font-size="16.5" lengthAdjust="spacingAndGlyphs" textLength="139.5" x="39" y="240.687">_points_de_vie : int</text><line style="stroke: #A80036; stroke-width: 2.25;" x1="10.5" x2="231" y1="250.3125" y2="250.3125"/><ellipse cx="25.5" cy="266.8125" fill="#84BE84" rx="4.5" ry="4.5" style="stroke: #038048; stroke-width: 1.5;"/><text fill="#000000" font-family="sans-serif" font-size="16.5" lengthAdjust="spacingAndGlyphs" textLength="160.5" x="39" y="273.4409">degats_attaque() float</text><!--MD5=[fe7de06e0f2f4ddb9c35fce3669b0853]
class AbstractEquipement--><rect fill="#FEFECE" filter="url(#fnxsc9m1gxwmn)" height="208.8047" id="AbstractEquipement" style="stroke: #A80036; stroke-width: 2.25;" width="216" x="285.75" y="43.5"/><ellipse cx="308.25" cy="73.6406" fill="#A9DCDF" rx="16.5" ry="16.5" style="stroke: #A80036; stroke-width: 1.5;"/><path d="M311.5313,76.2891 L305.3203,76.2891 L304.6875,77.8359 L305.3203,77.8359 Q306.2344,77.8359 306.6328,78.1875 Q307.0313,78.5391 307.0313,79.125 Q307.0313,79.6875 306.6328,80.0391 Q306.2344,80.3906 305.3203,80.3906 L301.875,80.3906 Q300.9609,80.3906 300.5859,80.0391 Q300.1875,79.6875 300.1875,79.1016 Q300.1875,78.5391 300.6094,78.1875 Q301.0078,77.8125 301.9453,77.8359 L305.9531,67.8516 L304.2891,67.8516 Q303.375,67.8516 302.9766,67.5 Q302.5781,67.1484 302.5781,66.5625 Q302.5781,66 302.9766,65.6484 Q303.375,65.2969 304.2891,65.2969 L309.7969,65.2969 L314.8828,77.8359 Q315.7734,77.8359 316.0547,78.0469 Q316.6406,78.4453 316.6406,79.125 Q316.6406,79.6875 316.2422,80.0391 Q315.8672,80.3906 314.9531,80.3906 L311.5078,80.3906 Q310.5938,80.3906 310.1953,80.0391 Q309.7969,79.6875 309.7969,79.1016 Q309.7969,78.5391 310.1953,78.1875 Q310.5938,77.8359 311.5078,77.8359 L312.1406,77.8359 L311.5313,76.2891 Z M310.4531,73.7344 L308.4141,68.6719 L306.3516,73.7344 L310.4531,73.7344 Z "/><text fill="#000000" font-family="sans-serif" font-size="18" font-style="italic" lengthAdjust="spacingAndGlyphs" textLength="87" x="369.75" y="69.6855">«abstract»</text><text fill="#000000" font-family="sans-serif" font-size="18" font-style="italic" lengthAdjust="spacingAndGlyphs" textLength="168" x="329.25" y="92.3262">AbstractEquipement</text><line style="stroke: #A80036; stroke-width: 2.25;" x1="287.25" x2="500.25" y1="103.7813" y2="103.7813"/><polygon fill="none" points="302.25,112.7813,308.25,118.7813,302.25,124.7813,296.25,118.7813" style="stroke: #B38D22; stroke-width: 1.5;"/><text fill="#000000" font-family="sans-serif" font-size="16.5" lengthAdjust="spacingAndGlyphs" textLength="99" x="315.75" y="126.9097">_nom  : String</text><polygon fill="none" points="302.25,133.5352,308.25,139.5352,302.25,145.5352,296.25,139.5352" style="stroke: #B38D22; stroke-width: 1.5;"/><text fill="#000000" font-family="sans-serif" font-size="16.5" lengthAdjust="spacingAndGlyphs" textLength="78" x="315.75" y="147.6636">_force : int</text><polygon fill="none" points="302.25,154.2891,308.25,160.2891,302.25,166.2891,296.25,160.2891" style="stroke: #B38D22; stroke-width: 1.5;"/><text fill="#000000" font-family="sans-serif" font-size="16.5" lengthAdjust="spacingAndGlyphs" textLength="79.5" x="315.75" y="168.4175">_agilite : int</text><polygon fill="none" points="302.25,175.043,308.25,181.043,302.25,187.043,296.25,181.043" style="stroke: #B38D22; stroke-width: 1.5;"/><text fill="#000000" font-family="sans-serif" font-size="16.5" lengthAdjust="spacingAndGlyphs" textLength="81" x="315.75" y="189.1714">_magie : int</text><polygon fill="none" points="302.25,195.7969,308.25,201.7969,302.25,207.7969,296.25,201.7969" style="stroke: #B38D22; stroke-width: 1.5;"/><text fill="#000000" font-family="sans-serif" font-size="16.5" lengthAdjust="spacingAndGlyphs" textLength="99" x="315.75" y="209.9253">_defense : int</text><polygon fill="none" points="302.25,216.5508,308.25,222.5508,302.25,228.5508,296.25,222.5508" style="stroke: #B38D22; stroke-width: 1.5;"/><text fill="#000000" font-family="sans-serif" font-size="16.5" lengthAdjust="spacingAndGlyphs" textLength="139.5" x="315.75" y="230.6792">_points_de_vie : int</text><line style="stroke: #A80036; stroke-width: 2.25;" x1="287.25" x2="500.25" y1="240.3047" y2="240.3047"/><!--MD5=[9c4f3fac3d75c1555c131810b53a069a]
@startuml
scale 1.5
abstract class  AbstractPersonnage <<abstract>> {
    #_nom  : String
    #_phrase_attaque : String
    #_phrase_defense : String
    #_force : int
    #_agilite : int
    #_magie : int
    #_defense : int
    #_points_de_vie : int
    +degats_attaque() float    
    }

abstract class  AbstractEquipement <<abstract>> {
    #_nom  : String
    #_force : int
    #_agilite : int
    #_magie : int
    #_defense : int
    #_points_de_vie : int
    }
@enduml

PlantUML version 1.2020.10(Sun May 17 11:35:57 CEST 2020)
(GPL source distribution)
Java Runtime: OpenJDK Runtime Environment
JVM: OpenJDK 64-Bit Server VM
Java Version: 14+36
Operating System: Windows 10
Default Encoding: Cp1252
Language: fr
Country: FR
--></g></svg>