<?xml version="1.0" encoding="UTF-8" standalone="no"?><svg xmlns="http://www.w3.org/2000/svg" xmlns:xlink="http://www.w3.org/1999/xlink" contentScriptType="application/ecmascript" contentStyleType="text/css" height="903px" preserveAspectRatio="none" style="width:1048px;height:903px;" version="1.1" viewBox="0 0 1048 903" width="1048.5px" zoomAndPan="magnify"><defs><filter height="300%" id="f68fhny1urmko" width="300%" x="-1" y="-1"><feGaussianBlur result="blurOut" stdDeviation="3.0"/><feColorMatrix in="blurOut" result="blurOut2" type="matrix" values="0 0 0 0 0 0 0 0 0 0 0 0 0 0 0 0 0 0 .4 0"/><feOffset dx="6.0" dy="6.0" in="blurOut2" result="blurOut3"/><feBlend in="SourceGraphic" in2="blurOut3" mode="normal"/></filter></defs><g><!--MD5=[6d696eeb6a0937c3630c502bf2d9f69b]
class AbstractPersonnage--><rect fill="#FEFECE" filter="url(#f68fhny1urmko)" height="146.543" id="AbstractPersonnage" style="stroke: #A80036; stroke-width: 2.25;" width="223.5" x="232.5" y="447"/><ellipse cx="258.375" cy="477.1406" fill="#A9DCDF" rx="16.5" ry="16.5" style="stroke: #A80036; stroke-width: 1.5;"/><path d="M261.6563,479.7891 L255.4453,479.7891 L254.8125,481.3359 L255.4453,481.3359 Q256.3594,481.3359 256.7578,481.6875 Q257.1563,482.0391 257.1563,482.625 Q257.1563,483.1875 256.7578,483.5391 Q256.3594,483.8906 255.4453,483.8906 L252,483.8906 Q251.0859,483.8906 250.7109,483.5391 Q250.3125,483.1875 250.3125,482.6016 Q250.3125,482.0391 250.7344,481.6875 Q251.1328,481.3125 252.0703,481.3359 L256.0781,471.3516 L254.4141,471.3516 Q253.5,471.3516 253.1016,471 Q252.7031,470.6484 252.7031,470.0625 Q252.7031,469.5 253.1016,469.1484 Q253.5,468.7969 254.4141,468.7969 L259.9219,468.7969 L265.0078,481.3359 Q265.8984,481.3359 266.1797,481.5469 Q266.7656,481.9453 266.7656,482.625 Q266.7656,483.1875 266.3672,483.5391 Q265.9922,483.8906 265.0781,483.8906 L261.6328,483.8906 Q260.7188,483.8906 260.3203,483.5391 Q259.9219,483.1875 259.9219,482.6016 Q259.9219,482.0391 260.3203,481.6875 Q260.7188,481.3359 261.6328,481.3359 L262.2656,481.3359 L261.6563,479.7891 Z M260.5781,477.2344 L258.5391,472.1719 L256.4766,477.2344 L260.5781,477.2344 Z "/><text fill="#000000" font-family="sans-serif" font-size="18" font-style="italic" lengthAdjust="spacingAndGlyphs" textLength="87" x="320.625" y="473.1855">«abstract»</text><text fill="#000000" font-family="sans-serif" font-size="18" font-style="italic" lengthAdjust="spacingAndGlyphs" textLength="168" x="280.125" y="495.8262">AbstractPersonnage</text><line style="stroke: #A80036; stroke-width: 2.25;" x1="234" x2="454.5" y1="507.2813" y2="507.2813"/><polygon fill="none" points="249,516.2813,255,522.2813,249,528.2813,243,522.2813" style="stroke: #B38D22; stroke-width: 1.5;"/><text fill="#000000" font-family="sans-serif" font-size="16.5" lengthAdjust="spacingAndGlyphs" textLength="178.5" x="262.5" y="530.4097">_phrase_attaque : String</text><polygon fill="none" points="249,537.0352,255,543.0352,249,549.0352,243,543.0352" style="stroke: #B38D22; stroke-width: 1.5;"/><text fill="#000000" font-family="sans-serif" font-size="16.5" lengthAdjust="spacingAndGlyphs" textLength="184.5" x="262.5" y="551.1636">_phrase_defense : String</text><line style="stroke: #A80036; stroke-width: 2.25;" x1="234" x2="454.5" y1="560.7891" y2="560.7891"/><ellipse cx="249" cy="577.2891" fill="#84BE84" rx="4.5" ry="4.5" style="stroke: #038048; stroke-width: 1.5;"/><text fill="#000000" font-family="sans-serif" font-size="16.5" lengthAdjust="spacingAndGlyphs" textLength="160.5" x="262.5" y="583.9175">degats_attaque() float</text><!--MD5=[fe7de06e0f2f4ddb9c35fce3669b0853]
class AbstractEquipement--><rect fill="#FEFECE" filter="url(#f68fhny1urmko)" height="105.0352" id="AbstractEquipement" style="stroke: #A80036; stroke-width: 2.25;" width="216" x="92.25" y="12"/><ellipse cx="114.75" cy="42.1406" fill="#A9DCDF" rx="16.5" ry="16.5" style="stroke: #A80036; stroke-width: 1.5;"/><path d="M118.0313,44.7891 L111.8203,44.7891 L111.1875,46.3359 L111.8203,46.3359 Q112.7344,46.3359 113.1328,46.6875 Q113.5313,47.0391 113.5313,47.625 Q113.5313,48.1875 113.1328,48.5391 Q112.7344,48.8906 111.8203,48.8906 L108.375,48.8906 Q107.4609,48.8906 107.0859,48.5391 Q106.6875,48.1875 106.6875,47.6016 Q106.6875,47.0391 107.1094,46.6875 Q107.5078,46.3125 108.4453,46.3359 L112.4531,36.3516 L110.7891,36.3516 Q109.875,36.3516 109.4766,36 Q109.0781,35.6484 109.0781,35.0625 Q109.0781,34.5 109.4766,34.1484 Q109.875,33.7969 110.7891,33.7969 L116.2969,33.7969 L121.3828,46.3359 Q122.2734,46.3359 122.5547,46.5469 Q123.1406,46.9453 123.1406,47.625 Q123.1406,48.1875 122.7422,48.5391 Q122.3672,48.8906 121.4531,48.8906 L118.0078,48.8906 Q117.0938,48.8906 116.6953,48.5391 Q116.2969,48.1875 116.2969,47.6016 Q116.2969,47.0391 116.6953,46.6875 Q117.0938,46.3359 118.0078,46.3359 L118.6406,46.3359 L118.0313,44.7891 Z M116.9531,42.2344 L114.9141,37.1719 L112.8516,42.2344 L116.9531,42.2344 Z "/><text fill="#000000" font-family="sans-serif" font-size="18" font-style="italic" lengthAdjust="spacingAndGlyphs" textLength="87" x="176.25" y="38.1855">«abstract»</text><text fill="#000000" font-family="sans-serif" font-size="18" font-style="italic" lengthAdjust="spacingAndGlyphs" textLength="168" x="135.75" y="60.8262">AbstractEquipement</text><line style="stroke: #A80036; stroke-width: 2.25;" x1="93.75" x2="306.75" y1="72.2813" y2="72.2813"/><polygon fill="none" points="108.75,81.2813,114.75,87.2813,108.75,93.2813,102.75,87.2813" style="stroke: #B38D22; stroke-width: 1.5;"/><text fill="#000000" font-family="sans-serif" font-size="16.5" lengthAdjust="spacingAndGlyphs" textLength="94.5" x="122.25" y="95.4097">_nom : String</text><line style="stroke: #A80036; stroke-width: 2.25;" x1="93.75" x2="306.75" y1="105.0352" y2="105.0352"/><!--MD5=[4fee37becfc6618f6c12d3f3b2ea6d43]
class Statistique--><rect fill="#FEFECE" filter="url(#f68fhny1urmko)" height="175.7695" id="Statistique" style="stroke: #A80036; stroke-width: 2.25;" width="187.5" x="9" y="711"/><ellipse cx="55.125" cy="735" fill="#ADD1B2" rx="16.5" ry="16.5" style="stroke: #A80036; stroke-width: 1.5;"/><path d="M59.2734,728.8125 Q59.5078,728.4844 59.7891,728.3203 Q60.0703,728.1563 60.3984,728.1563 Q60.9609,728.1563 61.3125,728.5547 Q61.6641,728.9297 61.6641,729.8438 L61.6641,732.0234 Q61.6641,732.9375 61.3125,733.3359 Q60.9609,733.7344 60.3984,733.7344 Q59.8828,733.7344 59.5781,733.4297 Q59.2734,733.1484 59.1094,732.375 Q59.0391,731.8359 58.7578,731.5547 Q58.2656,730.9922 57.3516,730.6641 Q56.4375,730.3359 55.5,730.3359 Q54.3516,730.3359 53.3906,730.8281 Q52.4531,731.3203 51.7031,732.4453 Q50.9766,733.5703 50.9766,735.1172 L50.9766,736.7578 Q50.9766,738.6094 52.3125,739.8516 Q53.6484,741.0703 56.0391,741.0703 Q57.4453,741.0703 58.4297,740.6953 Q59.0156,740.4609 59.6484,739.8047 Q60.0469,739.4063 60.2578,739.2891 Q60.4922,739.1719 60.7969,739.1719 Q61.2891,739.1719 61.6641,739.5703 Q62.0625,739.9453 62.0625,740.4609 Q62.0625,740.9766 61.5469,741.5859 Q60.7969,742.4531 59.6016,742.9453 Q57.9844,743.625 56.0391,743.625 Q53.7656,743.625 51.9609,742.6875 Q50.4844,741.9375 49.4531,740.3438 Q48.4219,738.7266 48.4219,736.8047 L48.4219,735.0703 Q48.4219,733.0781 49.3359,731.3672 Q50.2734,729.6328 51.9141,728.7188 Q53.5547,727.7813 55.4063,727.7813 Q56.5078,727.7813 57.4688,728.0391 Q58.4531,728.2734 59.2734,728.8125 Z "/><text fill="#000000" font-family="sans-serif" font-size="18" lengthAdjust="spacingAndGlyphs" textLength="87" x="81.375" y="742.3652">Statistique</text><line style="stroke: #A80036; stroke-width: 2.25;" x1="10.5" x2="195" y1="759" y2="759"/><rect fill="none" height="9" style="stroke: #C82930; stroke-width: 1.5;" width="9" x="21" y="771"/><text fill="#000000" font-family="sans-serif" font-size="16.5" lengthAdjust="spacingAndGlyphs" textLength="87" x="39" y="782.1284">__force : int</text><rect fill="none" height="9" style="stroke: #C82930; stroke-width: 1.5;" width="9" x="21" y="791.7539"/><text fill="#000000" font-family="sans-serif" font-size="16.5" lengthAdjust="spacingAndGlyphs" textLength="88.5" x="39" y="802.8823">__agilite : int</text><rect fill="none" height="9" style="stroke: #C82930; stroke-width: 1.5;" width="9" x="21" y="812.5078"/><text fill="#000000" font-family="sans-serif" font-size="16.5" lengthAdjust="spacingAndGlyphs" textLength="90" x="39" y="823.6362">__magie : int</text><rect fill="none" height="9" style="stroke: #C82930; stroke-width: 1.5;" width="9" x="21" y="833.2617"/><text fill="#000000" font-family="sans-serif" font-size="16.5" lengthAdjust="spacingAndGlyphs" textLength="108" x="39" y="844.3901">__defense : int</text><rect fill="none" height="9" style="stroke: #C82930; stroke-width: 1.5;" width="9" x="21" y="854.0156"/><text fill="#000000" font-family="sans-serif" font-size="16.5" lengthAdjust="spacingAndGlyphs" textLength="148.5" x="39" y="865.144">__points_de_vie : int</text><line style="stroke: #A80036; stroke-width: 2.25;" x1="10.5" x2="195" y1="874.7695" y2="874.7695"/><!--MD5=[7e839c7f40ad33ee08f12d1385d34f55]
class PersonnagesService--><rect fill="#FEFECE" filter="url(#f68fhny1urmko)" height="113.5078" id="PersonnagesService" style="stroke: #A80036; stroke-width: 2.25;" width="391.5" x="544.5" y="741.75"/><ellipse cx="647.625" cy="765.75" fill="#ADD1B2" rx="16.5" ry="16.5" style="stroke: #A80036; stroke-width: 1.5;"/><path d="M651.7734,759.5625 Q652.0078,759.2344 652.2891,759.0703 Q652.5703,758.9063 652.8984,758.9063 Q653.4609,758.9063 653.8125,759.3047 Q654.1641,759.6797 654.1641,760.5938 L654.1641,762.7734 Q654.1641,763.6875 653.8125,764.0859 Q653.4609,764.4844 652.8984,764.4844 Q652.3828,764.4844 652.0781,764.1797 Q651.7734,763.8984 651.6094,763.125 Q651.5391,762.5859 651.2578,762.3047 Q650.7656,761.7422 649.8516,761.4141 Q648.9375,761.0859 648,761.0859 Q646.8516,761.0859 645.8906,761.5781 Q644.9531,762.0703 644.2031,763.1953 Q643.4766,764.3203 643.4766,765.8672 L643.4766,767.5078 Q643.4766,769.3594 644.8125,770.6016 Q646.1484,771.8203 648.5391,771.8203 Q649.9453,771.8203 650.9297,771.4453 Q651.5156,771.2109 652.1484,770.5547 Q652.5469,770.1563 652.7578,770.0391 Q652.9922,769.9219 653.2969,769.9219 Q653.7891,769.9219 654.1641,770.3203 Q654.5625,770.6953 654.5625,771.2109 Q654.5625,771.7266 654.0469,772.3359 Q653.2969,773.2031 652.1016,773.6953 Q650.4844,774.375 648.5391,774.375 Q646.2656,774.375 644.4609,773.4375 Q642.9844,772.6875 641.9531,771.0938 Q640.9219,769.4766 640.9219,767.5547 L640.9219,765.8203 Q640.9219,763.8281 641.8359,762.1172 Q642.7734,760.3828 644.4141,759.4688 Q646.0547,758.5313 647.9063,758.5313 Q649.0078,758.5313 649.9688,758.7891 Q650.9531,759.0234 651.7734,759.5625 Z "/><text fill="#000000" font-family="sans-serif" font-size="18" lengthAdjust="spacingAndGlyphs" textLength="172.5" x="678.375" y="773.1152">PersonnagesService</text><line style="stroke: #A80036; stroke-width: 2.25;" x1="546" x2="934.5" y1="789.75" y2="789.75"/><line style="stroke: #A80036; stroke-width: 2.25;" x1="546" x2="934.5" y1="801.75" y2="801.75"/><ellipse cx="561" cy="818.25" fill="#84BE84" rx="4.5" ry="4.5" style="stroke: #038048; stroke-width: 1.5;"/><text fill="#000000" font-family="sans-serif" font-size="16.5" lengthAdjust="spacingAndGlyphs" textLength="108" x="574.5" y="824.8784">attaquer() float</text><ellipse cx="561" cy="839.0039" fill="#84BE84" rx="4.5" ry="4.5" style="stroke: #038048; stroke-width: 1.5;"/><text fill="#000000" font-family="sans-serif" font-size="16.5" lengthAdjust="spacingAndGlyphs" textLength="352.5" x="574.5" y="845.6323">changer_arme(AbstractPersonnage,Arme) None</text><!--MD5=[b0db65a3897154742e873e1173841c99]
class AbstractArme--><rect fill="#FEFECE" filter="url(#f68fhny1urmko)" height="146.543" id="AbstractArme" style="stroke: #A80036; stroke-width: 2.25;" width="258" x="600.75" y="208.5"/><ellipse cx="667.125" cy="238.6406" fill="#A9DCDF" rx="16.5" ry="16.5" style="stroke: #A80036; stroke-width: 1.5;"/><path d="M670.4063,241.2891 L664.1953,241.2891 L663.5625,242.8359 L664.1953,242.8359 Q665.1094,242.8359 665.5078,243.1875 Q665.9063,243.5391 665.9063,244.125 Q665.9063,244.6875 665.5078,245.0391 Q665.1094,245.3906 664.1953,245.3906 L660.75,245.3906 Q659.8359,245.3906 659.4609,245.0391 Q659.0625,244.6875 659.0625,244.1016 Q659.0625,243.5391 659.4844,243.1875 Q659.8828,242.8125 660.8203,242.8359 L664.8281,232.8516 L663.1641,232.8516 Q662.25,232.8516 661.8516,232.5 Q661.4531,232.1484 661.4531,231.5625 Q661.4531,231 661.8516,230.6484 Q662.25,230.2969 663.1641,230.2969 L668.6719,230.2969 L673.7578,242.8359 Q674.6484,242.8359 674.9297,243.0469 Q675.5156,243.4453 675.5156,244.125 Q675.5156,244.6875 675.1172,245.0391 Q674.7422,245.3906 673.8281,245.3906 L670.3828,245.3906 Q669.4688,245.3906 669.0703,245.0391 Q668.6719,244.6875 668.6719,244.1016 Q668.6719,243.5391 669.0703,243.1875 Q669.4688,242.8359 670.3828,242.8359 L671.0156,242.8359 L670.4063,241.2891 Z M669.3281,238.7344 L667.2891,233.6719 L665.2266,238.7344 L669.3281,238.7344 Z "/><text fill="#000000" font-family="sans-serif" font-size="18" font-style="italic" lengthAdjust="spacingAndGlyphs" textLength="87" x="710.625" y="234.6855">«abstract»</text><text fill="#000000" font-family="sans-serif" font-size="18" font-style="italic" lengthAdjust="spacingAndGlyphs" textLength="112.5" x="697.875" y="257.3262">AbstractArme</text><line style="stroke: #A80036; stroke-width: 2.25;" x1="602.25" x2="857.25" y1="268.7813" y2="268.7813"/><polygon fill="none" points="617.25,277.7813,623.25,283.7813,617.25,289.7813,611.25,283.7813" style="stroke: #B38D22; stroke-width: 1.5;"/><text fill="#000000" font-family="sans-serif" font-size="16.5" lengthAdjust="spacingAndGlyphs" textLength="219" x="630.75" y="291.9097">_description_utilisation : String</text><polygon fill="none" points="617.25,298.5352,623.25,304.5352,617.25,310.5352,611.25,304.5352" style="stroke: #B38D22; stroke-width: 1.5;"/><text fill="#000000" font-family="sans-serif" font-size="16.5" lengthAdjust="spacingAndGlyphs" textLength="138" x="630.75" y="312.6636">_base_attaque : int</text><line style="stroke: #A80036; stroke-width: 2.25;" x1="602.25" x2="857.25" y1="322.2891" y2="322.2891"/><ellipse cx="617.25" cy="338.7891" fill="#84BE84" rx="4.5" ry="4.5" style="stroke: #038048; stroke-width: 1.5;"/><text fill="#000000" font-family="sans-serif" font-size="16.5" lengthAdjust="spacingAndGlyphs" textLength="214.5" x="630.75" y="345.4175">utiliser_arme(Statistique) float</text><!--MD5=[6b455bb8407ccb98ad4b82c422822b44]
class Magicien--><rect fill="#FEFECE" filter="url(#f68fhny1urmko)" height="72" id="Magicien" style="stroke: #A80036; stroke-width: 2.25;" width="121.5" x="426" y="246"/><ellipse cx="448.5" cy="270" fill="#ADD1B2" rx="16.5" ry="16.5" style="stroke: #A80036; stroke-width: 1.5;"/><path d="M452.6484,263.8125 Q452.8828,263.4844 453.1641,263.3203 Q453.4453,263.1563 453.7734,263.1563 Q454.3359,263.1563 454.6875,263.5547 Q455.0391,263.9297 455.0391,264.8438 L455.0391,267.0234 Q455.0391,267.9375 454.6875,268.3359 Q454.3359,268.7344 453.7734,268.7344 Q453.2578,268.7344 452.9531,268.4297 Q452.6484,268.1484 452.4844,267.375 Q452.4141,266.8359 452.1328,266.5547 Q451.6406,265.9922 450.7266,265.6641 Q449.8125,265.3359 448.875,265.3359 Q447.7266,265.3359 446.7656,265.8281 Q445.8281,266.3203 445.0781,267.4453 Q444.3516,268.5703 444.3516,270.1172 L444.3516,271.7578 Q444.3516,273.6094 445.6875,274.8516 Q447.0234,276.0703 449.4141,276.0703 Q450.8203,276.0703 451.8047,275.6953 Q452.3906,275.4609 453.0234,274.8047 Q453.4219,274.4063 453.6328,274.2891 Q453.8672,274.1719 454.1719,274.1719 Q454.6641,274.1719 455.0391,274.5703 Q455.4375,274.9453 455.4375,275.4609 Q455.4375,275.9766 454.9219,276.5859 Q454.1719,277.4531 452.9766,277.9453 Q451.3594,278.625 449.4141,278.625 Q447.1406,278.625 445.3359,277.6875 Q443.8594,276.9375 442.8281,275.3438 Q441.7969,273.7266 441.7969,271.8047 L441.7969,270.0703 Q441.7969,268.0781 442.7109,266.3672 Q443.6484,264.6328 445.2891,263.7188 Q446.9297,262.7813 448.7813,262.7813 Q449.8828,262.7813 450.8438,263.0391 Q451.8281,263.2734 452.6484,263.8125 Z "/><text fill="#000000" font-family="sans-serif" font-size="18" lengthAdjust="spacingAndGlyphs" textLength="73.5" x="469.5" y="277.3652">Magicien</text><line style="stroke: #A80036; stroke-width: 2.25;" x1="427.5" x2="546" y1="294" y2="294"/><line style="stroke: #A80036; stroke-width: 2.25;" x1="427.5" x2="546" y1="306" y2="306"/><!--MD5=[8b767dff77bbacea0d3f910cfdc225b7]
class Guerrier--><rect fill="#FEFECE" filter="url(#f68fhny1urmko)" height="72" id="Guerrier" style="stroke: #A80036; stroke-width: 2.25;" width="115.5" x="105" y="246"/><ellipse cx="127.5" cy="270" fill="#ADD1B2" rx="16.5" ry="16.5" style="stroke: #A80036; stroke-width: 1.5;"/><path d="M131.6484,263.8125 Q131.8828,263.4844 132.1641,263.3203 Q132.4453,263.1563 132.7734,263.1563 Q133.3359,263.1563 133.6875,263.5547 Q134.0391,263.9297 134.0391,264.8438 L134.0391,267.0234 Q134.0391,267.9375 133.6875,268.3359 Q133.3359,268.7344 132.7734,268.7344 Q132.2578,268.7344 131.9531,268.4297 Q131.6484,268.1484 131.4844,267.375 Q131.4141,266.8359 131.1328,266.5547 Q130.6406,265.9922 129.7266,265.6641 Q128.8125,265.3359 127.875,265.3359 Q126.7266,265.3359 125.7656,265.8281 Q124.8281,266.3203 124.0781,267.4453 Q123.3516,268.5703 123.3516,270.1172 L123.3516,271.7578 Q123.3516,273.6094 124.6875,274.8516 Q126.0234,276.0703 128.4141,276.0703 Q129.8203,276.0703 130.8047,275.6953 Q131.3906,275.4609 132.0234,274.8047 Q132.4219,274.4063 132.6328,274.2891 Q132.8672,274.1719 133.1719,274.1719 Q133.6641,274.1719 134.0391,274.5703 Q134.4375,274.9453 134.4375,275.4609 Q134.4375,275.9766 133.9219,276.5859 Q133.1719,277.4531 131.9766,277.9453 Q130.3594,278.625 128.4141,278.625 Q126.1406,278.625 124.3359,277.6875 Q122.8594,276.9375 121.8281,275.3438 Q120.7969,273.7266 120.7969,271.8047 L120.7969,270.0703 Q120.7969,268.0781 121.7109,266.3672 Q122.6484,264.6328 124.2891,263.7188 Q125.9297,262.7813 127.7813,262.7813 Q128.8828,262.7813 129.8438,263.0391 Q130.8281,263.2734 131.6484,263.8125 Z "/><text fill="#000000" font-family="sans-serif" font-size="18" lengthAdjust="spacingAndGlyphs" textLength="67.5" x="148.5" y="277.3652">Guerrier</text><line style="stroke: #A80036; stroke-width: 2.25;" x1="106.5" x2="219" y1="294" y2="294"/><line style="stroke: #A80036; stroke-width: 2.25;" x1="106.5" x2="219" y1="306" y2="306"/><!--MD5=[eb8d405af43fb8d97dec3efb6729fc92]
class Voleur--><rect fill="#FEFECE" filter="url(#f68fhny1urmko)" height="72" id="Voleur" style="stroke: #A80036; stroke-width: 2.25;" width="100.5" x="273" y="246"/><ellipse cx="295.5" cy="270" fill="#ADD1B2" rx="16.5" ry="16.5" style="stroke: #A80036; stroke-width: 1.5;"/><path d="M299.6484,263.8125 Q299.8828,263.4844 300.1641,263.3203 Q300.4453,263.1563 300.7734,263.1563 Q301.3359,263.1563 301.6875,263.5547 Q302.0391,263.9297 302.0391,264.8438 L302.0391,267.0234 Q302.0391,267.9375 301.6875,268.3359 Q301.3359,268.7344 300.7734,268.7344 Q300.2578,268.7344 299.9531,268.4297 Q299.6484,268.1484 299.4844,267.375 Q299.4141,266.8359 299.1328,266.5547 Q298.6406,265.9922 297.7266,265.6641 Q296.8125,265.3359 295.875,265.3359 Q294.7266,265.3359 293.7656,265.8281 Q292.8281,266.3203 292.0781,267.4453 Q291.3516,268.5703 291.3516,270.1172 L291.3516,271.7578 Q291.3516,273.6094 292.6875,274.8516 Q294.0234,276.0703 296.4141,276.0703 Q297.8203,276.0703 298.8047,275.6953 Q299.3906,275.4609 300.0234,274.8047 Q300.4219,274.4063 300.6328,274.2891 Q300.8672,274.1719 301.1719,274.1719 Q301.6641,274.1719 302.0391,274.5703 Q302.4375,274.9453 302.4375,275.4609 Q302.4375,275.9766 301.9219,276.5859 Q301.1719,277.4531 299.9766,277.9453 Q298.3594,278.625 296.4141,278.625 Q294.1406,278.625 292.3359,277.6875 Q290.8594,276.9375 289.8281,275.3438 Q288.7969,273.7266 288.7969,271.8047 L288.7969,270.0703 Q288.7969,268.0781 289.7109,266.3672 Q290.6484,264.6328 292.2891,263.7188 Q293.9297,262.7813 295.7813,262.7813 Q296.8828,262.7813 297.8438,263.0391 Q298.8281,263.2734 299.6484,263.8125 Z "/><text fill="#000000" font-family="sans-serif" font-size="18" lengthAdjust="spacingAndGlyphs" textLength="52.5" x="316.5" y="277.3652">Voleur</text><line style="stroke: #A80036; stroke-width: 2.25;" x1="274.5" x2="372" y1="294" y2="294"/><line style="stroke: #A80036; stroke-width: 2.25;" x1="274.5" x2="372" y1="306" y2="306"/><!--MD5=[14c31d852211043c5c6227b482009b90]
class Epee--><rect fill="#FEFECE" filter="url(#f68fhny1urmko)" height="72" id="Epee" style="stroke: #A80036; stroke-width: 2.25;" width="91.5" x="537" y="28.5"/><ellipse cx="559.5" cy="52.5" fill="#ADD1B2" rx="16.5" ry="16.5" style="stroke: #A80036; stroke-width: 1.5;"/><path d="M563.6484,46.3125 Q563.8828,45.9844 564.1641,45.8203 Q564.4453,45.6563 564.7734,45.6563 Q565.3359,45.6563 565.6875,46.0547 Q566.0391,46.4297 566.0391,47.3438 L566.0391,49.5234 Q566.0391,50.4375 565.6875,50.8359 Q565.3359,51.2344 564.7734,51.2344 Q564.2578,51.2344 563.9531,50.9297 Q563.6484,50.6484 563.4844,49.875 Q563.4141,49.3359 563.1328,49.0547 Q562.6406,48.4922 561.7266,48.1641 Q560.8125,47.8359 559.875,47.8359 Q558.7266,47.8359 557.7656,48.3281 Q556.8281,48.8203 556.0781,49.9453 Q555.3516,51.0703 555.3516,52.6172 L555.3516,54.2578 Q555.3516,56.1094 556.6875,57.3516 Q558.0234,58.5703 560.4141,58.5703 Q561.8203,58.5703 562.8047,58.1953 Q563.3906,57.9609 564.0234,57.3047 Q564.4219,56.9063 564.6328,56.7891 Q564.8672,56.6719 565.1719,56.6719 Q565.6641,56.6719 566.0391,57.0703 Q566.4375,57.4453 566.4375,57.9609 Q566.4375,58.4766 565.9219,59.0859 Q565.1719,59.9531 563.9766,60.4453 Q562.3594,61.125 560.4141,61.125 Q558.1406,61.125 556.3359,60.1875 Q554.8594,59.4375 553.8281,57.8438 Q552.7969,56.2266 552.7969,54.3047 L552.7969,52.5703 Q552.7969,50.5781 553.7109,48.8672 Q554.6484,47.1328 556.2891,46.2188 Q557.9297,45.2813 559.7813,45.2813 Q560.8828,45.2813 561.8438,45.5391 Q562.8281,45.7734 563.6484,46.3125 Z "/><text fill="#000000" font-family="sans-serif" font-size="18" lengthAdjust="spacingAndGlyphs" textLength="43.5" x="580.5" y="59.8652">Epee</text><line style="stroke: #A80036; stroke-width: 2.25;" x1="538.5" x2="627" y1="76.5" y2="76.5"/><line style="stroke: #A80036; stroke-width: 2.25;" x1="538.5" x2="627" y1="88.5" y2="88.5"/><!--MD5=[ea236aa9c420d1c71b0f4c856d0a876c]
class Baton--><rect fill="#FEFECE" filter="url(#f68fhny1urmko)" height="72" id="Baton" style="stroke: #A80036; stroke-width: 2.25;" width="96" x="681.75" y="28.5"/><ellipse cx="704.25" cy="52.5" fill="#ADD1B2" rx="16.5" ry="16.5" style="stroke: #A80036; stroke-width: 1.5;"/><path d="M708.3984,46.3125 Q708.6328,45.9844 708.9141,45.8203 Q709.1953,45.6563 709.5234,45.6563 Q710.0859,45.6563 710.4375,46.0547 Q710.7891,46.4297 710.7891,47.3438 L710.7891,49.5234 Q710.7891,50.4375 710.4375,50.8359 Q710.0859,51.2344 709.5234,51.2344 Q709.0078,51.2344 708.7031,50.9297 Q708.3984,50.6484 708.2344,49.875 Q708.1641,49.3359 707.8828,49.0547 Q707.3906,48.4922 706.4766,48.1641 Q705.5625,47.8359 704.625,47.8359 Q703.4766,47.8359 702.5156,48.3281 Q701.5781,48.8203 700.8281,49.9453 Q700.1016,51.0703 700.1016,52.6172 L700.1016,54.2578 Q700.1016,56.1094 701.4375,57.3516 Q702.7734,58.5703 705.1641,58.5703 Q706.5703,58.5703 707.5547,58.1953 Q708.1406,57.9609 708.7734,57.3047 Q709.1719,56.9063 709.3828,56.7891 Q709.6172,56.6719 709.9219,56.6719 Q710.4141,56.6719 710.7891,57.0703 Q711.1875,57.4453 711.1875,57.9609 Q711.1875,58.4766 710.6719,59.0859 Q709.9219,59.9531 708.7266,60.4453 Q707.1094,61.125 705.1641,61.125 Q702.8906,61.125 701.0859,60.1875 Q699.6094,59.4375 698.5781,57.8438 Q697.5469,56.2266 697.5469,54.3047 L697.5469,52.5703 Q697.5469,50.5781 698.4609,48.8672 Q699.3984,47.1328 701.0391,46.2188 Q702.6797,45.2813 704.5313,45.2813 Q705.6328,45.2813 706.5938,45.5391 Q707.5781,45.7734 708.3984,46.3125 Z "/><text fill="#000000" font-family="sans-serif" font-size="18" lengthAdjust="spacingAndGlyphs" textLength="48" x="725.25" y="59.8652">Baton</text><line style="stroke: #A80036; stroke-width: 2.25;" x1="683.25" x2="776.25" y1="76.5" y2="76.5"/><line style="stroke: #A80036; stroke-width: 2.25;" x1="683.25" x2="776.25" y1="88.5" y2="88.5"/><!--MD5=[ae7bc4368a5efd04dbc3ae20ffd6acf5]
class Arc--><rect fill="#FEFECE" filter="url(#f68fhny1urmko)" height="72" id="Arc" style="stroke: #A80036; stroke-width: 2.25;" width="73.5" x="831" y="28.5"/><ellipse cx="853.5" cy="52.5" fill="#ADD1B2" rx="16.5" ry="16.5" style="stroke: #A80036; stroke-width: 1.5;"/><path d="M857.6484,46.3125 Q857.8828,45.9844 858.1641,45.8203 Q858.4453,45.6563 858.7734,45.6563 Q859.3359,45.6563 859.6875,46.0547 Q860.0391,46.4297 860.0391,47.3438 L860.0391,49.5234 Q860.0391,50.4375 859.6875,50.8359 Q859.3359,51.2344 858.7734,51.2344 Q858.2578,51.2344 857.9531,50.9297 Q857.6484,50.6484 857.4844,49.875 Q857.4141,49.3359 857.1328,49.0547 Q856.6406,48.4922 855.7266,48.1641 Q854.8125,47.8359 853.875,47.8359 Q852.7266,47.8359 851.7656,48.3281 Q850.8281,48.8203 850.0781,49.9453 Q849.3516,51.0703 849.3516,52.6172 L849.3516,54.2578 Q849.3516,56.1094 850.6875,57.3516 Q852.0234,58.5703 854.4141,58.5703 Q855.8203,58.5703 856.8047,58.1953 Q857.3906,57.9609 858.0234,57.3047 Q858.4219,56.9063 858.6328,56.7891 Q858.8672,56.6719 859.1719,56.6719 Q859.6641,56.6719 860.0391,57.0703 Q860.4375,57.4453 860.4375,57.9609 Q860.4375,58.4766 859.9219,59.0859 Q859.1719,59.9531 857.9766,60.4453 Q856.3594,61.125 854.4141,61.125 Q852.1406,61.125 850.3359,60.1875 Q848.8594,59.4375 847.8281,57.8438 Q846.7969,56.2266 846.7969,54.3047 L846.7969,52.5703 Q846.7969,50.5781 847.7109,48.8672 Q848.6484,47.1328 850.2891,46.2188 Q851.9297,45.2813 853.7813,45.2813 Q854.8828,45.2813 855.8438,45.5391 Q856.8281,45.7734 857.6484,46.3125 Z "/><text fill="#000000" font-family="sans-serif" font-size="18" lengthAdjust="spacingAndGlyphs" textLength="25.5" x="874.5" y="59.8652">Arc</text><line style="stroke: #A80036; stroke-width: 2.25;" x1="832.5" x2="903" y1="76.5" y2="76.5"/><line style="stroke: #A80036; stroke-width: 2.25;" x1="832.5" x2="903" y1="88.5" y2="88.5"/><!--MD5=[27bf5b02022a00c45befc02adbdd81fc]
class Couteau--><rect fill="#FEFECE" filter="url(#f68fhny1urmko)" height="72" id="Couteau" style="stroke: #A80036; stroke-width: 2.25;" width="118.5" x="660" y="484.5"/><ellipse cx="682.5" cy="508.5" fill="#ADD1B2" rx="16.5" ry="16.5" style="stroke: #A80036; stroke-width: 1.5;"/><path d="M686.6484,502.3125 Q686.8828,501.9844 687.1641,501.8203 Q687.4453,501.6563 687.7734,501.6563 Q688.3359,501.6563 688.6875,502.0547 Q689.0391,502.4297 689.0391,503.3438 L689.0391,505.5234 Q689.0391,506.4375 688.6875,506.8359 Q688.3359,507.2344 687.7734,507.2344 Q687.2578,507.2344 686.9531,506.9297 Q686.6484,506.6484 686.4844,505.875 Q686.4141,505.3359 686.1328,505.0547 Q685.6406,504.4922 684.7266,504.1641 Q683.8125,503.8359 682.875,503.8359 Q681.7266,503.8359 680.7656,504.3281 Q679.8281,504.8203 679.0781,505.9453 Q678.3516,507.0703 678.3516,508.6172 L678.3516,510.2578 Q678.3516,512.1094 679.6875,513.3516 Q681.0234,514.5703 683.4141,514.5703 Q684.8203,514.5703 685.8047,514.1953 Q686.3906,513.9609 687.0234,513.3047 Q687.4219,512.9063 687.6328,512.7891 Q687.8672,512.6719 688.1719,512.6719 Q688.6641,512.6719 689.0391,513.0703 Q689.4375,513.4453 689.4375,513.9609 Q689.4375,514.4766 688.9219,515.0859 Q688.1719,515.9531 686.9766,516.4453 Q685.3594,517.125 683.4141,517.125 Q681.1406,517.125 679.3359,516.1875 Q677.8594,515.4375 676.8281,513.8438 Q675.7969,512.2266 675.7969,510.3047 L675.7969,508.5703 Q675.7969,506.5781 676.7109,504.8672 Q677.6484,503.1328 679.2891,502.2188 Q680.9297,501.2813 682.7813,501.2813 Q683.8828,501.2813 684.8438,501.5391 Q685.8281,501.7734 686.6484,502.3125 Z "/><text fill="#000000" font-family="sans-serif" font-size="18" lengthAdjust="spacingAndGlyphs" textLength="70.5" x="703.5" y="515.8652">Couteau</text><line style="stroke: #A80036; stroke-width: 2.25;" x1="661.5" x2="777" y1="532.5" y2="532.5"/><line style="stroke: #A80036; stroke-width: 2.25;" x1="661.5" x2="777" y1="544.5" y2="544.5"/><!--MD5=[e84bf443d14748ff027e0241600c7459]
class Lance--><rect fill="#FEFECE" filter="url(#f68fhny1urmko)" height="72" id="Lance" style="stroke: #A80036; stroke-width: 2.25;" width="99" x="831.75" y="484.5"/><ellipse cx="854.25" cy="508.5" fill="#ADD1B2" rx="16.5" ry="16.5" style="stroke: #A80036; stroke-width: 1.5;"/><path d="M858.3984,502.3125 Q858.6328,501.9844 858.9141,501.8203 Q859.1953,501.6563 859.5234,501.6563 Q860.0859,501.6563 860.4375,502.0547 Q860.7891,502.4297 860.7891,503.3438 L860.7891,505.5234 Q860.7891,506.4375 860.4375,506.8359 Q860.0859,507.2344 859.5234,507.2344 Q859.0078,507.2344 858.7031,506.9297 Q858.3984,506.6484 858.2344,505.875 Q858.1641,505.3359 857.8828,505.0547 Q857.3906,504.4922 856.4766,504.1641 Q855.5625,503.8359 854.625,503.8359 Q853.4766,503.8359 852.5156,504.3281 Q851.5781,504.8203 850.8281,505.9453 Q850.1016,507.0703 850.1016,508.6172 L850.1016,510.2578 Q850.1016,512.1094 851.4375,513.3516 Q852.7734,514.5703 855.1641,514.5703 Q856.5703,514.5703 857.5547,514.1953 Q858.1406,513.9609 858.7734,513.3047 Q859.1719,512.9063 859.3828,512.7891 Q859.6172,512.6719 859.9219,512.6719 Q860.4141,512.6719 860.7891,513.0703 Q861.1875,513.4453 861.1875,513.9609 Q861.1875,514.4766 860.6719,515.0859 Q859.9219,515.9531 858.7266,516.4453 Q857.1094,517.125 855.1641,517.125 Q852.8906,517.125 851.0859,516.1875 Q849.6094,515.4375 848.5781,513.8438 Q847.5469,512.2266 847.5469,510.3047 L847.5469,508.5703 Q847.5469,506.5781 848.4609,504.8672 Q849.3984,503.1328 851.0391,502.2188 Q852.6797,501.2813 854.5313,501.2813 Q855.6328,501.2813 856.5938,501.5391 Q857.5781,501.7734 858.3984,502.3125 Z "/><text fill="#000000" font-family="sans-serif" font-size="18" lengthAdjust="spacingAndGlyphs" textLength="51" x="875.25" y="515.8652">Lance</text><line style="stroke: #A80036; stroke-width: 2.25;" x1="833.25" x2="929.25" y1="532.5" y2="532.5"/><line style="stroke: #A80036; stroke-width: 2.25;" x1="833.25" x2="929.25" y1="544.5" y2="544.5"/><!--MD5=[e6c689e0fb2094b6e7ddc8286563ae4c]
class Livre--><rect fill="#FEFECE" filter="url(#f68fhny1urmko)" height="72" id="Livre" style="stroke: #A80036; stroke-width: 2.25;" width="87" x="519.75" y="484.5"/><ellipse cx="542.25" cy="508.5" fill="#ADD1B2" rx="16.5" ry="16.5" style="stroke: #A80036; stroke-width: 1.5;"/><path d="M546.3984,502.3125 Q546.6328,501.9844 546.9141,501.8203 Q547.1953,501.6563 547.5234,501.6563 Q548.0859,501.6563 548.4375,502.0547 Q548.7891,502.4297 548.7891,503.3438 L548.7891,505.5234 Q548.7891,506.4375 548.4375,506.8359 Q548.0859,507.2344 547.5234,507.2344 Q547.0078,507.2344 546.7031,506.9297 Q546.3984,506.6484 546.2344,505.875 Q546.1641,505.3359 545.8828,505.0547 Q545.3906,504.4922 544.4766,504.1641 Q543.5625,503.8359 542.625,503.8359 Q541.4766,503.8359 540.5156,504.3281 Q539.5781,504.8203 538.8281,505.9453 Q538.1016,507.0703 538.1016,508.6172 L538.1016,510.2578 Q538.1016,512.1094 539.4375,513.3516 Q540.7734,514.5703 543.1641,514.5703 Q544.5703,514.5703 545.5547,514.1953 Q546.1406,513.9609 546.7734,513.3047 Q547.1719,512.9063 547.3828,512.7891 Q547.6172,512.6719 547.9219,512.6719 Q548.4141,512.6719 548.7891,513.0703 Q549.1875,513.4453 549.1875,513.9609 Q549.1875,514.4766 548.6719,515.0859 Q547.9219,515.9531 546.7266,516.4453 Q545.1094,517.125 543.1641,517.125 Q540.8906,517.125 539.0859,516.1875 Q537.6094,515.4375 536.5781,513.8438 Q535.5469,512.2266 535.5469,510.3047 L535.5469,508.5703 Q535.5469,506.5781 536.4609,504.8672 Q537.3984,503.1328 539.0391,502.2188 Q540.6797,501.2813 542.5313,501.2813 Q543.6328,501.2813 544.5938,501.5391 Q545.5781,501.7734 546.3984,502.3125 Z "/><text fill="#000000" font-family="sans-serif" font-size="18" lengthAdjust="spacingAndGlyphs" textLength="39" x="563.25" y="515.8652">Livre</text><line style="stroke: #A80036; stroke-width: 2.25;" x1="521.25" x2="605.25" y1="532.5" y2="532.5"/><line style="stroke: #A80036; stroke-width: 2.25;" x1="521.25" x2="605.25" y1="544.5" y2="544.5"/><!--MD5=[d4dc15415949416adc8974efbc6cff0f]
reverse link AbstractPersonnage to PersonnagesService--><path d="M454.5555,598.671 C519.777,644.0055 600.9105,700.398 660.0315,741.4922 " fill="none" id="AbstractPersonnage&lt;-PersonnagesService" style="stroke: #A80036; stroke-width: 1.5; stroke-dasharray: 7.0,7.0;"/><polygon fill="#A80036" points="448.2945,594.318,455.9572,606.9487,454.4536,598.5977,462.8046,597.0941,448.2945,594.318" style="stroke: #A80036; stroke-width: 1.5;"/><text fill="#000000" font-family="sans-serif" font-size="19.5" lengthAdjust="spacingAndGlyphs" textLength="52.5" x="543.75" y="660.7427">«use»</text><!--MD5=[a5b2e12bd8cff67d8da79787829dca3c]
reverse link AbstractArme to PersonnagesService--><path d="M865.1745,349.6095 C901.95,374.6895 937.245,407.0625 957.75,447 C987.591,505.1205 983.7705,534.072 957.75,594 C931.3005,654.9165 876.603,705.8895 828.681,741.5517 " fill="none" id="AbstractArme&lt;-PersonnagesService" style="stroke: #A80036; stroke-width: 1.5; stroke-dasharray: 7.0,7.0;"/><polygon fill="#A80036" points="858.78,345.3315,866.6647,357.8248,865.0138,349.5016,873.3369,347.8507,858.78,345.3315" style="stroke: #A80036; stroke-width: 1.5;"/><text fill="#000000" font-family="sans-serif" font-size="19.5" lengthAdjust="spacingAndGlyphs" textLength="52.5" x="978.75" y="528.7427">«use»</text><!--MD5=[3b82180eeec5f96023e427a9bf75d398]
reverse link AbstractPersonnage to Statistique--><path d="M267.615,609.345 C239.202,641.7285 207.012,678.417 178.665,710.7255 " fill="none" id="AbstractPersonnage&lt;-Statistique" style="stroke: #A80036; stroke-width: 1.5;"/><polygon fill="#A80036" points="280.7985,594.318,270.353,597.1271,268.9285,607.8495,279.374,605.0404,280.7985,594.318" style="stroke: #A80036; stroke-width: 1.5;"/><text fill="#000000" font-family="sans-serif" font-size="19.5" lengthAdjust="spacingAndGlyphs" textLength="10.5" x="176.7773" y="694.7934">1</text><!--MD5=[44160a28acf5970c2eff576db004a5ec]
reverse link AbstractArme to AbstractPersonnage--><path d="M605.064,359.67 C557.2245,388.896 502.9665,422.0415 456.375,450.504 " fill="none" id="AbstractArme&lt;-AbstractPersonnage" style="stroke: #A80036; stroke-width: 1.5;"/><polygon fill="#A80036" points="611.4675,355.758,596.8188,357.6729,605.0666,359.6667,603.0728,367.9144,611.4675,355.758" style="stroke: #A80036; stroke-width: 1.5;"/><text fill="#000000" font-family="sans-serif" font-size="19.5" lengthAdjust="spacingAndGlyphs" textLength="33" x="561.1985" y="387.0515">0..1</text><!--MD5=[d04d4f213dc32a2defacb7ed4f31b75d]
reverse link AbstractEquipement to AbstractArme--><path d="M336.8385,115.5735 C407.9385,142.0185 496.026,175.7805 573.75,208.5 C582.5475,212.2035 591.5835,216.1065 600.66,220.0995 " fill="none" id="AbstractEquipement&lt;-AbstractArme" style="stroke: #A80036; stroke-width: 1.5;"/><polygon fill="none" points="332.979,125.3415,308.4885,105.0825,340.2675,105.648,332.979,125.3415" style="stroke: #A80036; stroke-width: 1.5;"/><!--MD5=[372aead21d76fe4fc7325ef31f8647ae]
reverse link AbstractEquipement to Statistique--><path d="M127.1588,132.096 C107.6151,154.2435 89.0697,180.4905 78.75,208.5 C16.4157,377.6835 51.2887,592.977 79.0658,710.6955 " fill="none" id="AbstractEquipement&lt;-Statistique" style="stroke: #A80036; stroke-width: 1.5;"/><polygon fill="#A80036" points="140.7596,117.4485,130.239,119.9622,128.513,130.6402,139.0335,128.1266,140.7596,117.4485" style="stroke: #A80036; stroke-width: 1.5;"/><text fill="#000000" font-family="sans-serif" font-size="19.5" lengthAdjust="spacingAndGlyphs" textLength="10.5" x="65.0394" y="694.7597">1</text><!--MD5=[c561c0a7a860a922a5a072c2ed2667d1]
link Magicien to AbstractPersonnage--><path d="M465.723,318.249 C449.3385,345.327 425.745,384.318 403.701,420.7485 " fill="none" id="Magicien-&gt;AbstractPersonnage" style="stroke: #A80036; stroke-width: 1.5;"/><polygon fill="none" points="412.563,426.3855,388.0485,446.616,394.596,415.5135,412.563,426.3855" style="stroke: #A80036; stroke-width: 1.5;"/><!--MD5=[9479bf9f7d299d510381b211ee921390]
link Guerrier to AbstractPersonnage--><path d="M189.531,318.249 C210.7035,345.72 241.3275,385.4565 269.7525,422.3385 " fill="none" id="Guerrier-&gt;AbstractPersonnage" style="stroke: #A80036; stroke-width: 1.5;"/><polygon fill="none" points="278.4675,416.445,288.4635,446.616,261.834,429.264,278.4675,416.445" style="stroke: #A80036; stroke-width: 1.5;"/><!--MD5=[69a97b283801e1cf24c7d2155b96b764]
link Voleur to AbstractPersonnage--><path d="M326.349,318.249 C328.6695,344.2755 331.971,381.3075 335.109,416.4945 " fill="none" id="Voleur-&gt;AbstractPersonnage" style="stroke: #A80036; stroke-width: 1.5;"/><polygon fill="none" points="345.5895,415.803,337.7955,446.616,324.672,417.6675,345.5895,415.803" style="stroke: #A80036; stroke-width: 1.5;"/><!--MD5=[9b6e406c015dd290189d05b176ba032b]
link Epee to AbstractArme--><path d="M606.696,100.941 C622.1265,123.4575 643.011,153.933 663.1935,183.381 " fill="none" id="Epee-&gt;AbstractArme" style="stroke: #A80036; stroke-width: 1.5;"/><polygon fill="none" points="671.919,177.5385,680.2155,208.221,654.5955,189.411,671.919,177.5385" style="stroke: #A80036; stroke-width: 1.5;"/><!--MD5=[c9b0f911b024d2dc3f2b18078dd5b6ec]
link Baton to AbstractArme--><path d="M729.75,100.941 C729.75,122.1 729.75,150.2865 729.75,178.044 " fill="none" id="Baton-&gt;AbstractArme" style="stroke: #A80036; stroke-width: 1.5;"/><polygon fill="none" points="740.25,178.221,729.75,208.221,719.25,178.221,740.25,178.221" style="stroke: #A80036; stroke-width: 1.5;"/><!--MD5=[467e06bf1070bb5ad80829b4be99a0f3]
link Arc to AbstractArme--><path d="M845.271,100.941 C830.8575,123.3435 811.374,153.627 792.5175,182.937 " fill="none" id="Arc-&gt;AbstractArme" style="stroke: #A80036; stroke-width: 1.5;"/><polygon fill="none" points="801.3135,188.673,776.2515,208.221,783.6525,177.3105,801.3135,188.673" style="stroke: #A80036; stroke-width: 1.5;"/><!--MD5=[2d044bec438a0004392ecbf35213228d]
reverse link AbstractArme to Couteau--><path d="M725.1705,386.2215 C723.6,421.4235 721.95,458.4465 720.792,484.4295 " fill="none" id="AbstractArme&lt;-Couteau" style="stroke: #A80036; stroke-width: 1.5;"/><polygon fill="none" points="714.6885,385.5825,726.5145,356.079,735.6675,386.517,714.6885,385.5825" style="stroke: #A80036; stroke-width: 1.5;"/><!--MD5=[ec0bd100f1cb45a009e81bb20a32a083]
reverse link AbstractArme to Lance--><path d="M792.753,381.435 C816.2985,418.035 841.536,457.266 859.0095,484.4295 " fill="none" id="AbstractArme&lt;-Lance" style="stroke: #A80036; stroke-width: 1.5;"/><polygon fill="none" points="783.8415,386.991,776.4405,356.079,801.5025,375.6285,783.8415,386.991" style="stroke: #A80036; stroke-width: 1.5;"/><!--MD5=[bb2e391553cc5013f0ee8dd941c99f03]
reverse link AbstractArme to Livre--><path d="M660.885,380.904 C634.9005,417.6555 606.9885,457.1355 587.6925,484.4295 " fill="none" id="AbstractArme&lt;-Livre" style="stroke: #A80036; stroke-width: 1.5;"/><polygon fill="none" points="652.5435,374.514,678.4365,356.079,669.69,386.637,652.5435,374.514" style="stroke: #A80036; stroke-width: 1.5;"/><!--MD5=[d3ae68bd8869315e9c8033938ce24c75]
@startuml
scale 1.5
abstract class AbstractPersonnage 	<<abstract>> {
	#_phrase_attaque : String 
	#_phrase_defense : String 
	+degats_attaque() float
    }
	 

abstract class AbstractEquipement <<abstract>> {
	#_nom : String
}
	 
class Statistique {
	 -__force : int
	 -__agilite : int
	 -__magie : int
	 -__defense : int
	 -__points_de_vie : int
}

class PersonnagesService {
	+attaquer() float
	+changer_arme(AbstractPersonnage,Arme) None
}

abstract class AbstractArme <<abstract>>{
    #_description_utilisation : String
    #_base_attaque : int
    +utiliser_arme(Statistique) float
}

AbstractPersonnage <.. PersonnagesService : <<use>>
AbstractArme <.. PersonnagesService : <<use>>



AbstractPersonnage *- -"1" Statistique
AbstractArme "0..1"<- - AbstractPersonnage
AbstractEquipement <|- - AbstractArme
AbstractEquipement *- -"1" Statistique

Magicien - -|> AbstractPersonnage
Guerrier - -|> AbstractPersonnage
Voleur - -|> AbstractPersonnage

Epee - -|> AbstractArme
Baton - -|> AbstractArme
Arc - -|> AbstractArme
AbstractArme <|- - Couteau
AbstractArme <|- - Lance
AbstractArme <|- - Livre

@enduml

PlantUML version 1.2020.10(Sun May 17 11:35:57 CEST 2020)
(GPL source distribution)
Java Runtime: OpenJDK Runtime Environment
JVM: OpenJDK 64-Bit Server VM
Java Version: 14+36
Operating System: Windows 10
Default Encoding: Cp1252
Language: fr
Country: FR
--></g></svg>