<?xml version="1.0" encoding="UTF-8" standalone="no"?><svg xmlns="http://www.w3.org/2000/svg" xmlns:xlink="http://www.w3.org/1999/xlink" contentScriptType="application/ecmascript" contentStyleType="text/css" height="798px" preserveAspectRatio="none" style="width:1296px;height:798px;" version="1.1" viewBox="0 0 1296 798" width="1296px" zoomAndPan="magnify"><defs><filter height="300%" id="f10lvueygg4ykx" width="300%" x="-1" y="-1"><feGaussianBlur result="blurOut" stdDeviation="3.0"/><feColorMatrix in="blurOut" result="blurOut2" type="matrix" values="0 0 0 0 0 0 0 0 0 0 0 0 0 0 0 0 0 0 .4 0"/><feOffset dx="6.0" dy="6.0" in="blurOut2" result="blurOut3"/><feBlend in="SourceGraphic" in2="blurOut3" mode="normal"/></filter></defs><g><!--MD5=[6d696eeb6a0937c3630c502bf2d9f69b]
class AbstractPersonnage--><rect fill="#FEFECE" filter="url(#f10lvueygg4ykx)" height="146.543" id="AbstractPersonnage" style="stroke: #A80036; stroke-width: 2.25;" width="223.5" x="593.25" y="472.5"/><ellipse cx="619.125" cy="502.6406" fill="#A9DCDF" rx="16.5" ry="16.5" style="stroke: #A80036; stroke-width: 1.5;"/><path d="M622.4063,505.2891 L616.1953,505.2891 L615.5625,506.8359 L616.1953,506.8359 Q617.1094,506.8359 617.5078,507.1875 Q617.9063,507.5391 617.9063,508.125 Q617.9063,508.6875 617.5078,509.0391 Q617.1094,509.3906 616.1953,509.3906 L612.75,509.3906 Q611.8359,509.3906 611.4609,509.0391 Q611.0625,508.6875 611.0625,508.1016 Q611.0625,507.5391 611.4844,507.1875 Q611.8828,506.8125 612.8203,506.8359 L616.8281,496.8516 L615.1641,496.8516 Q614.25,496.8516 613.8516,496.5 Q613.4531,496.1484 613.4531,495.5625 Q613.4531,495 613.8516,494.6484 Q614.25,494.2969 615.1641,494.2969 L620.6719,494.2969 L625.7578,506.8359 Q626.6484,506.8359 626.9297,507.0469 Q627.5156,507.4453 627.5156,508.125 Q627.5156,508.6875 627.1172,509.0391 Q626.7422,509.3906 625.8281,509.3906 L622.3828,509.3906 Q621.4688,509.3906 621.0703,509.0391 Q620.6719,508.6875 620.6719,508.1016 Q620.6719,507.5391 621.0703,507.1875 Q621.4688,506.8359 622.3828,506.8359 L623.0156,506.8359 L622.4063,505.2891 Z M621.3281,502.7344 L619.2891,497.6719 L617.2266,502.7344 L621.3281,502.7344 Z "/><text fill="#000000" font-family="sans-serif" font-size="18" font-style="italic" lengthAdjust="spacingAndGlyphs" textLength="87" x="681.375" y="498.6855">«abstract»</text><text fill="#000000" font-family="sans-serif" font-size="18" font-style="italic" lengthAdjust="spacingAndGlyphs" textLength="168" x="640.875" y="521.3262">AbstractPersonnage</text><line style="stroke: #A80036; stroke-width: 2.25;" x1="594.75" x2="815.25" y1="532.7813" y2="532.7813"/><polygon fill="none" points="609.75,541.7813,615.75,547.7813,609.75,553.7813,603.75,547.7813" style="stroke: #B38D22; stroke-width: 1.5;"/><text fill="#000000" font-family="sans-serif" font-size="16.5" lengthAdjust="spacingAndGlyphs" textLength="178.5" x="623.25" y="555.9097">_phrase_attaque : String</text><polygon fill="none" points="609.75,562.5352,615.75,568.5352,609.75,574.5352,603.75,568.5352" style="stroke: #B38D22; stroke-width: 1.5;"/><text fill="#000000" font-family="sans-serif" font-size="16.5" lengthAdjust="spacingAndGlyphs" textLength="184.5" x="623.25" y="576.6636">_phrase_defense : String</text><line style="stroke: #A80036; stroke-width: 2.25;" x1="594.75" x2="815.25" y1="586.2891" y2="586.2891"/><ellipse cx="609.75" cy="602.7891" fill="#84BE84" rx="4.5" ry="4.5" style="stroke: #038048; stroke-width: 1.5;"/><text fill="#000000" font-family="sans-serif" font-size="16.5" lengthAdjust="spacingAndGlyphs" textLength="160.5" x="623.25" y="609.4175">degats_attaque() float</text><!--MD5=[fe7de06e0f2f4ddb9c35fce3669b0853]
class AbstractEquipement--><rect fill="#FEFECE" filter="url(#f10lvueygg4ykx)" height="105.0352" id="AbstractEquipement" style="stroke: #A80036; stroke-width: 2.25;" width="216" x="579" y="12"/><ellipse cx="601.5" cy="42.1406" fill="#A9DCDF" rx="16.5" ry="16.5" style="stroke: #A80036; stroke-width: 1.5;"/><path d="M604.7813,44.7891 L598.5703,44.7891 L597.9375,46.3359 L598.5703,46.3359 Q599.4844,46.3359 599.8828,46.6875 Q600.2813,47.0391 600.2813,47.625 Q600.2813,48.1875 599.8828,48.5391 Q599.4844,48.8906 598.5703,48.8906 L595.125,48.8906 Q594.2109,48.8906 593.8359,48.5391 Q593.4375,48.1875 593.4375,47.6016 Q593.4375,47.0391 593.8594,46.6875 Q594.2578,46.3125 595.1953,46.3359 L599.2031,36.3516 L597.5391,36.3516 Q596.625,36.3516 596.2266,36 Q595.8281,35.6484 595.8281,35.0625 Q595.8281,34.5 596.2266,34.1484 Q596.625,33.7969 597.5391,33.7969 L603.0469,33.7969 L608.1328,46.3359 Q609.0234,46.3359 609.3047,46.5469 Q609.8906,46.9453 609.8906,47.625 Q609.8906,48.1875 609.4922,48.5391 Q609.1172,48.8906 608.2031,48.8906 L604.7578,48.8906 Q603.8438,48.8906 603.4453,48.5391 Q603.0469,48.1875 603.0469,47.6016 Q603.0469,47.0391 603.4453,46.6875 Q603.8438,46.3359 604.7578,46.3359 L605.3906,46.3359 L604.7813,44.7891 Z M603.7031,42.2344 L601.6641,37.1719 L599.6016,42.2344 L603.7031,42.2344 Z "/><text fill="#000000" font-family="sans-serif" font-size="18" font-style="italic" lengthAdjust="spacingAndGlyphs" textLength="87" x="663" y="38.1855">«abstract»</text><text fill="#000000" font-family="sans-serif" font-size="18" font-style="italic" lengthAdjust="spacingAndGlyphs" textLength="168" x="622.5" y="60.8262">AbstractEquipement</text><line style="stroke: #A80036; stroke-width: 2.25;" x1="580.5" x2="793.5" y1="72.2813" y2="72.2813"/><polygon fill="none" points="595.5,81.2813,601.5,87.2813,595.5,93.2813,589.5,87.2813" style="stroke: #B38D22; stroke-width: 1.5;"/><text fill="#000000" font-family="sans-serif" font-size="16.5" lengthAdjust="spacingAndGlyphs" textLength="94.5" x="609" y="95.4097">_nom : String</text><line style="stroke: #A80036; stroke-width: 2.25;" x1="580.5" x2="793.5" y1="105.0352" y2="105.0352"/><!--MD5=[4fee37becfc6618f6c12d3f3b2ea6d43]
class Statistique--><rect fill="#FEFECE" filter="url(#f10lvueygg4ykx)" height="175.7695" id="Statistique" style="stroke: #A80036; stroke-width: 2.25;" width="187.5" x="611.25" y="207"/><ellipse cx="657.375" cy="231" fill="#ADD1B2" rx="16.5" ry="16.5" style="stroke: #A80036; stroke-width: 1.5;"/><path d="M661.5234,224.8125 Q661.7578,224.4844 662.0391,224.3203 Q662.3203,224.1563 662.6484,224.1563 Q663.2109,224.1563 663.5625,224.5547 Q663.9141,224.9297 663.9141,225.8438 L663.9141,228.0234 Q663.9141,228.9375 663.5625,229.3359 Q663.2109,229.7344 662.6484,229.7344 Q662.1328,229.7344 661.8281,229.4297 Q661.5234,229.1484 661.3594,228.375 Q661.2891,227.8359 661.0078,227.5547 Q660.5156,226.9922 659.6016,226.6641 Q658.6875,226.3359 657.75,226.3359 Q656.6016,226.3359 655.6406,226.8281 Q654.7031,227.3203 653.9531,228.4453 Q653.2266,229.5703 653.2266,231.1172 L653.2266,232.7578 Q653.2266,234.6094 654.5625,235.8516 Q655.8984,237.0703 658.2891,237.0703 Q659.6953,237.0703 660.6797,236.6953 Q661.2656,236.4609 661.8984,235.8047 Q662.2969,235.4063 662.5078,235.2891 Q662.7422,235.1719 663.0469,235.1719 Q663.5391,235.1719 663.9141,235.5703 Q664.3125,235.9453 664.3125,236.4609 Q664.3125,236.9766 663.7969,237.5859 Q663.0469,238.4531 661.8516,238.9453 Q660.2344,239.625 658.2891,239.625 Q656.0156,239.625 654.2109,238.6875 Q652.7344,237.9375 651.7031,236.3438 Q650.6719,234.7266 650.6719,232.8047 L650.6719,231.0703 Q650.6719,229.0781 651.5859,227.3672 Q652.5234,225.6328 654.1641,224.7188 Q655.8047,223.7813 657.6563,223.7813 Q658.7578,223.7813 659.7188,224.0391 Q660.7031,224.2734 661.5234,224.8125 Z "/><text fill="#000000" font-family="sans-serif" font-size="18" lengthAdjust="spacingAndGlyphs" textLength="87" x="683.625" y="238.3652">Statistique</text><line style="stroke: #A80036; stroke-width: 2.25;" x1="612.75" x2="797.25" y1="255" y2="255"/><rect fill="none" height="9" style="stroke: #C82930; stroke-width: 1.5;" width="9" x="623.25" y="267"/><text fill="#000000" font-family="sans-serif" font-size="16.5" lengthAdjust="spacingAndGlyphs" textLength="87" x="641.25" y="278.1284">__force : int</text><rect fill="none" height="9" style="stroke: #C82930; stroke-width: 1.5;" width="9" x="623.25" y="287.7539"/><text fill="#000000" font-family="sans-serif" font-size="16.5" lengthAdjust="spacingAndGlyphs" textLength="88.5" x="641.25" y="298.8823">__agilite : int</text><rect fill="none" height="9" style="stroke: #C82930; stroke-width: 1.5;" width="9" x="623.25" y="308.5078"/><text fill="#000000" font-family="sans-serif" font-size="16.5" lengthAdjust="spacingAndGlyphs" textLength="90" x="641.25" y="319.6362">__magie : int</text><rect fill="none" height="9" style="stroke: #C82930; stroke-width: 1.5;" width="9" x="623.25" y="329.2617"/><text fill="#000000" font-family="sans-serif" font-size="16.5" lengthAdjust="spacingAndGlyphs" textLength="108" x="641.25" y="340.3901">__defense : int</text><rect fill="none" height="9" style="stroke: #C82930; stroke-width: 1.5;" width="9" x="623.25" y="350.0156"/><text fill="#000000" font-family="sans-serif" font-size="16.5" lengthAdjust="spacingAndGlyphs" textLength="148.5" x="641.25" y="361.144">__points_de_vie : int</text><line style="stroke: #A80036; stroke-width: 2.25;" x1="612.75" x2="797.25" y1="370.7695" y2="370.7695"/><!--MD5=[b0db65a3897154742e873e1173841c99]
class AbstractArme--><rect fill="#FEFECE" filter="url(#f10lvueygg4ykx)" height="146.543" id="AbstractArme" style="stroke: #A80036; stroke-width: 2.25;" width="258" x="870" y="221.25"/><ellipse cx="936.375" cy="251.3906" fill="#A9DCDF" rx="16.5" ry="16.5" style="stroke: #A80036; stroke-width: 1.5;"/><path d="M939.6563,254.0391 L933.4453,254.0391 L932.8125,255.5859 L933.4453,255.5859 Q934.3594,255.5859 934.7578,255.9375 Q935.1563,256.2891 935.1563,256.875 Q935.1563,257.4375 934.7578,257.7891 Q934.3594,258.1406 933.4453,258.1406 L930,258.1406 Q929.0859,258.1406 928.7109,257.7891 Q928.3125,257.4375 928.3125,256.8516 Q928.3125,256.2891 928.7344,255.9375 Q929.1328,255.5625 930.0703,255.5859 L934.0781,245.6016 L932.4141,245.6016 Q931.5,245.6016 931.1016,245.25 Q930.7031,244.8984 930.7031,244.3125 Q930.7031,243.75 931.1016,243.3984 Q931.5,243.0469 932.4141,243.0469 L937.9219,243.0469 L943.0078,255.5859 Q943.8984,255.5859 944.1797,255.7969 Q944.7656,256.1953 944.7656,256.875 Q944.7656,257.4375 944.3672,257.7891 Q943.9922,258.1406 943.0781,258.1406 L939.6328,258.1406 Q938.7188,258.1406 938.3203,257.7891 Q937.9219,257.4375 937.9219,256.8516 Q937.9219,256.2891 938.3203,255.9375 Q938.7188,255.5859 939.6328,255.5859 L940.2656,255.5859 L939.6563,254.0391 Z M938.5781,251.4844 L936.5391,246.4219 L934.4766,251.4844 L938.5781,251.4844 Z "/><text fill="#000000" font-family="sans-serif" font-size="18" font-style="italic" lengthAdjust="spacingAndGlyphs" textLength="87" x="979.875" y="247.4355">«abstract»</text><text fill="#000000" font-family="sans-serif" font-size="18" font-style="italic" lengthAdjust="spacingAndGlyphs" textLength="112.5" x="967.125" y="270.0762">AbstractArme</text><line style="stroke: #A80036; stroke-width: 2.25;" x1="871.5" x2="1126.5" y1="281.5313" y2="281.5313"/><polygon fill="none" points="886.5,290.5313,892.5,296.5313,886.5,302.5313,880.5,296.5313" style="stroke: #B38D22; stroke-width: 1.5;"/><text fill="#000000" font-family="sans-serif" font-size="16.5" lengthAdjust="spacingAndGlyphs" textLength="219" x="900" y="304.6597">_description_utilisation : String</text><polygon fill="none" points="886.5,311.2852,892.5,317.2852,886.5,323.2852,880.5,317.2852" style="stroke: #B38D22; stroke-width: 1.5;"/><text fill="#000000" font-family="sans-serif" font-size="16.5" lengthAdjust="spacingAndGlyphs" textLength="138" x="900" y="325.4136">_base_attaque : int</text><line style="stroke: #A80036; stroke-width: 2.25;" x1="871.5" x2="1126.5" y1="335.0391" y2="335.0391"/><ellipse cx="886.5" cy="351.5391" fill="#84BE84" rx="4.5" ry="4.5" style="stroke: #038048; stroke-width: 1.5;"/><text fill="#000000" font-family="sans-serif" font-size="16.5" lengthAdjust="spacingAndGlyphs" textLength="214.5" x="900" y="358.1675">utiliser_arme(Statistique) float</text><!--MD5=[fb4618077d48b7ac6e698d77420520cc]
class AbstractArmure--><rect fill="#FEFECE" filter="url(#f10lvueygg4ykx)" height="146.543" id="AbstractArmure" style="stroke: #A80036; stroke-width: 2.25;" width="309" x="249" y="221.25"/><ellipse cx="332.625" cy="251.3906" fill="#A9DCDF" rx="16.5" ry="16.5" style="stroke: #A80036; stroke-width: 1.5;"/><path d="M335.9063,254.0391 L329.6953,254.0391 L329.0625,255.5859 L329.6953,255.5859 Q330.6094,255.5859 331.0078,255.9375 Q331.4063,256.2891 331.4063,256.875 Q331.4063,257.4375 331.0078,257.7891 Q330.6094,258.1406 329.6953,258.1406 L326.25,258.1406 Q325.3359,258.1406 324.9609,257.7891 Q324.5625,257.4375 324.5625,256.8516 Q324.5625,256.2891 324.9844,255.9375 Q325.3828,255.5625 326.3203,255.5859 L330.3281,245.6016 L328.6641,245.6016 Q327.75,245.6016 327.3516,245.25 Q326.9531,244.8984 326.9531,244.3125 Q326.9531,243.75 327.3516,243.3984 Q327.75,243.0469 328.6641,243.0469 L334.1719,243.0469 L339.2578,255.5859 Q340.1484,255.5859 340.4297,255.7969 Q341.0156,256.1953 341.0156,256.875 Q341.0156,257.4375 340.6172,257.7891 Q340.2422,258.1406 339.3281,258.1406 L335.8828,258.1406 Q334.9688,258.1406 334.5703,257.7891 Q334.1719,257.4375 334.1719,256.8516 Q334.1719,256.2891 334.5703,255.9375 Q334.9688,255.5859 335.8828,255.5859 L336.5156,255.5859 L335.9063,254.0391 Z M334.8281,251.4844 L332.7891,246.4219 L330.7266,251.4844 L334.8281,251.4844 Z "/><text fill="#000000" font-family="sans-serif" font-size="18" font-style="italic" lengthAdjust="spacingAndGlyphs" textLength="87" x="384.375" y="247.4355">«abstract»</text><text fill="#000000" font-family="sans-serif" font-size="18" font-style="italic" lengthAdjust="spacingAndGlyphs" textLength="129" x="363.375" y="270.0762">AbstractArmure</text><line style="stroke: #A80036; stroke-width: 2.25;" x1="250.5" x2="556.5" y1="281.5313" y2="281.5313"/><polygon fill="none" points="265.5,290.5313,271.5,296.5313,265.5,302.5313,259.5,296.5313" style="stroke: #B38D22; stroke-width: 1.5;"/><text fill="#000000" font-family="sans-serif" font-size="16.5" lengthAdjust="spacingAndGlyphs" textLength="213" x="279" y="304.6597">_description_defense : String</text><polygon fill="none" points="265.5,311.2852,271.5,317.2852,265.5,323.2852,259.5,317.2852" style="stroke: #B38D22; stroke-width: 1.5;"/><text fill="#000000" font-family="sans-serif" font-size="16.5" lengthAdjust="spacingAndGlyphs" textLength="144" x="279" y="325.4136">_base_defense : int</text><line style="stroke: #A80036; stroke-width: 2.25;" x1="250.5" x2="556.5" y1="335.0391" y2="335.0391"/><ellipse cx="265.5" cy="351.5391" fill="#84BE84" rx="4.5" ry="4.5" style="stroke: #038048; stroke-width: 1.5;"/><text fill="#000000" font-family="sans-serif" font-size="16.5" lengthAdjust="spacingAndGlyphs" textLength="270" x="279" y="358.1675">utiliser_armure(Statistique, float) float</text><!--MD5=[6b455bb8407ccb98ad4b82c422822b44]
class Magicien--><rect fill="#FEFECE" filter="url(#f10lvueygg4ykx)" height="72" id="Magicien" style="stroke: #A80036; stroke-width: 2.25;" width="121.5" x="473.25" y="709.5"/><ellipse cx="495.75" cy="733.5" fill="#ADD1B2" rx="16.5" ry="16.5" style="stroke: #A80036; stroke-width: 1.5;"/><path d="M499.8984,727.3125 Q500.1328,726.9844 500.4141,726.8203 Q500.6953,726.6563 501.0234,726.6563 Q501.5859,726.6563 501.9375,727.0547 Q502.2891,727.4297 502.2891,728.3438 L502.2891,730.5234 Q502.2891,731.4375 501.9375,731.8359 Q501.5859,732.2344 501.0234,732.2344 Q500.5078,732.2344 500.2031,731.9297 Q499.8984,731.6484 499.7344,730.875 Q499.6641,730.3359 499.3828,730.0547 Q498.8906,729.4922 497.9766,729.1641 Q497.0625,728.8359 496.125,728.8359 Q494.9766,728.8359 494.0156,729.3281 Q493.0781,729.8203 492.3281,730.9453 Q491.6016,732.0703 491.6016,733.6172 L491.6016,735.2578 Q491.6016,737.1094 492.9375,738.3516 Q494.2734,739.5703 496.6641,739.5703 Q498.0703,739.5703 499.0547,739.1953 Q499.6406,738.9609 500.2734,738.3047 Q500.6719,737.9063 500.8828,737.7891 Q501.1172,737.6719 501.4219,737.6719 Q501.9141,737.6719 502.2891,738.0703 Q502.6875,738.4453 502.6875,738.9609 Q502.6875,739.4766 502.1719,740.0859 Q501.4219,740.9531 500.2266,741.4453 Q498.6094,742.125 496.6641,742.125 Q494.3906,742.125 492.5859,741.1875 Q491.1094,740.4375 490.0781,738.8438 Q489.0469,737.2266 489.0469,735.3047 L489.0469,733.5703 Q489.0469,731.5781 489.9609,729.8672 Q490.8984,728.1328 492.5391,727.2188 Q494.1797,726.2813 496.0313,726.2813 Q497.1328,726.2813 498.0938,726.5391 Q499.0781,726.7734 499.8984,727.3125 Z "/><text fill="#000000" font-family="sans-serif" font-size="18" lengthAdjust="spacingAndGlyphs" textLength="73.5" x="516.75" y="740.8652">Magicien</text><line style="stroke: #A80036; stroke-width: 2.25;" x1="474.75" x2="593.25" y1="757.5" y2="757.5"/><line style="stroke: #A80036; stroke-width: 2.25;" x1="474.75" x2="593.25" y1="769.5" y2="769.5"/><!--MD5=[8b767dff77bbacea0d3f910cfdc225b7]
class Guerrier--><rect fill="#FEFECE" filter="url(#f10lvueygg4ykx)" height="72" id="Guerrier" style="stroke: #A80036; stroke-width: 2.25;" width="115.5" x="647.25" y="709.5"/><ellipse cx="669.75" cy="733.5" fill="#ADD1B2" rx="16.5" ry="16.5" style="stroke: #A80036; stroke-width: 1.5;"/><path d="M673.8984,727.3125 Q674.1328,726.9844 674.4141,726.8203 Q674.6953,726.6563 675.0234,726.6563 Q675.5859,726.6563 675.9375,727.0547 Q676.2891,727.4297 676.2891,728.3438 L676.2891,730.5234 Q676.2891,731.4375 675.9375,731.8359 Q675.5859,732.2344 675.0234,732.2344 Q674.5078,732.2344 674.2031,731.9297 Q673.8984,731.6484 673.7344,730.875 Q673.6641,730.3359 673.3828,730.0547 Q672.8906,729.4922 671.9766,729.1641 Q671.0625,728.8359 670.125,728.8359 Q668.9766,728.8359 668.0156,729.3281 Q667.0781,729.8203 666.3281,730.9453 Q665.6016,732.0703 665.6016,733.6172 L665.6016,735.2578 Q665.6016,737.1094 666.9375,738.3516 Q668.2734,739.5703 670.6641,739.5703 Q672.0703,739.5703 673.0547,739.1953 Q673.6406,738.9609 674.2734,738.3047 Q674.6719,737.9063 674.8828,737.7891 Q675.1172,737.6719 675.4219,737.6719 Q675.9141,737.6719 676.2891,738.0703 Q676.6875,738.4453 676.6875,738.9609 Q676.6875,739.4766 676.1719,740.0859 Q675.4219,740.9531 674.2266,741.4453 Q672.6094,742.125 670.6641,742.125 Q668.3906,742.125 666.5859,741.1875 Q665.1094,740.4375 664.0781,738.8438 Q663.0469,737.2266 663.0469,735.3047 L663.0469,733.5703 Q663.0469,731.5781 663.9609,729.8672 Q664.8984,728.1328 666.5391,727.2188 Q668.1797,726.2813 670.0313,726.2813 Q671.1328,726.2813 672.0938,726.5391 Q673.0781,726.7734 673.8984,727.3125 Z "/><text fill="#000000" font-family="sans-serif" font-size="18" lengthAdjust="spacingAndGlyphs" textLength="67.5" x="690.75" y="740.8652">Guerrier</text><line style="stroke: #A80036; stroke-width: 2.25;" x1="648.75" x2="761.25" y1="757.5" y2="757.5"/><line style="stroke: #A80036; stroke-width: 2.25;" x1="648.75" x2="761.25" y1="769.5" y2="769.5"/><!--MD5=[eb8d405af43fb8d97dec3efb6729fc92]
class Voleur--><rect fill="#FEFECE" filter="url(#f10lvueygg4ykx)" height="72" id="Voleur" style="stroke: #A80036; stroke-width: 2.25;" width="100.5" x="815.25" y="709.5"/><ellipse cx="837.75" cy="733.5" fill="#ADD1B2" rx="16.5" ry="16.5" style="stroke: #A80036; stroke-width: 1.5;"/><path d="M841.8984,727.3125 Q842.1328,726.9844 842.4141,726.8203 Q842.6953,726.6563 843.0234,726.6563 Q843.5859,726.6563 843.9375,727.0547 Q844.2891,727.4297 844.2891,728.3438 L844.2891,730.5234 Q844.2891,731.4375 843.9375,731.8359 Q843.5859,732.2344 843.0234,732.2344 Q842.5078,732.2344 842.2031,731.9297 Q841.8984,731.6484 841.7344,730.875 Q841.6641,730.3359 841.3828,730.0547 Q840.8906,729.4922 839.9766,729.1641 Q839.0625,728.8359 838.125,728.8359 Q836.9766,728.8359 836.0156,729.3281 Q835.0781,729.8203 834.3281,730.9453 Q833.6016,732.0703 833.6016,733.6172 L833.6016,735.2578 Q833.6016,737.1094 834.9375,738.3516 Q836.2734,739.5703 838.6641,739.5703 Q840.0703,739.5703 841.0547,739.1953 Q841.6406,738.9609 842.2734,738.3047 Q842.6719,737.9063 842.8828,737.7891 Q843.1172,737.6719 843.4219,737.6719 Q843.9141,737.6719 844.2891,738.0703 Q844.6875,738.4453 844.6875,738.9609 Q844.6875,739.4766 844.1719,740.0859 Q843.4219,740.9531 842.2266,741.4453 Q840.6094,742.125 838.6641,742.125 Q836.3906,742.125 834.5859,741.1875 Q833.1094,740.4375 832.0781,738.8438 Q831.0469,737.2266 831.0469,735.3047 L831.0469,733.5703 Q831.0469,731.5781 831.9609,729.8672 Q832.8984,728.1328 834.5391,727.2188 Q836.1797,726.2813 838.0313,726.2813 Q839.1328,726.2813 840.0938,726.5391 Q841.0781,726.7734 841.8984,727.3125 Z "/><text fill="#000000" font-family="sans-serif" font-size="18" lengthAdjust="spacingAndGlyphs" textLength="52.5" x="858.75" y="740.8652">Voleur</text><line style="stroke: #A80036; stroke-width: 2.25;" x1="816.75" x2="914.25" y1="757.5" y2="757.5"/><line style="stroke: #A80036; stroke-width: 2.25;" x1="816.75" x2="914.25" y1="769.5" y2="769.5"/><!--MD5=[14c31d852211043c5c6227b482009b90]
class Epee--><rect fill="#FEFECE" filter="url(#f10lvueygg4ykx)" height="72" id="Epee" style="stroke: #A80036; stroke-width: 2.25;" width="91.5" x="1122.75" y="28.5"/><ellipse cx="1145.25" cy="52.5" fill="#ADD1B2" rx="16.5" ry="16.5" style="stroke: #A80036; stroke-width: 1.5;"/><path d="M1149.3984,46.3125 Q1149.6328,45.9844 1149.9141,45.8203 Q1150.1953,45.6563 1150.5234,45.6563 Q1151.0859,45.6563 1151.4375,46.0547 Q1151.7891,46.4297 1151.7891,47.3438 L1151.7891,49.5234 Q1151.7891,50.4375 1151.4375,50.8359 Q1151.0859,51.2344 1150.5234,51.2344 Q1150.0078,51.2344 1149.7031,50.9297 Q1149.3984,50.6484 1149.2344,49.875 Q1149.1641,49.3359 1148.8828,49.0547 Q1148.3906,48.4922 1147.4766,48.1641 Q1146.5625,47.8359 1145.625,47.8359 Q1144.4766,47.8359 1143.5156,48.3281 Q1142.5781,48.8203 1141.8281,49.9453 Q1141.1016,51.0703 1141.1016,52.6172 L1141.1016,54.2578 Q1141.1016,56.1094 1142.4375,57.3516 Q1143.7734,58.5703 1146.1641,58.5703 Q1147.5703,58.5703 1148.5547,58.1953 Q1149.1406,57.9609 1149.7734,57.3047 Q1150.1719,56.9063 1150.3828,56.7891 Q1150.6172,56.6719 1150.9219,56.6719 Q1151.4141,56.6719 1151.7891,57.0703 Q1152.1875,57.4453 1152.1875,57.9609 Q1152.1875,58.4766 1151.6719,59.0859 Q1150.9219,59.9531 1149.7266,60.4453 Q1148.1094,61.125 1146.1641,61.125 Q1143.8906,61.125 1142.0859,60.1875 Q1140.6094,59.4375 1139.5781,57.8438 Q1138.5469,56.2266 1138.5469,54.3047 L1138.5469,52.5703 Q1138.5469,50.5781 1139.4609,48.8672 Q1140.3984,47.1328 1142.0391,46.2188 Q1143.6797,45.2813 1145.5313,45.2813 Q1146.6328,45.2813 1147.5938,45.5391 Q1148.5781,45.7734 1149.3984,46.3125 Z "/><text fill="#000000" font-family="sans-serif" font-size="18" lengthAdjust="spacingAndGlyphs" textLength="43.5" x="1166.25" y="59.8652">Epee</text><line style="stroke: #A80036; stroke-width: 2.25;" x1="1124.25" x2="1212.75" y1="76.5" y2="76.5"/><line style="stroke: #A80036; stroke-width: 2.25;" x1="1124.25" x2="1212.75" y1="88.5" y2="88.5"/><!--MD5=[ea236aa9c420d1c71b0f4c856d0a876c]
class Baton--><rect fill="#FEFECE" filter="url(#f10lvueygg4ykx)" height="72" id="Baton" style="stroke: #A80036; stroke-width: 2.25;" width="96" x="847.5" y="28.5"/><ellipse cx="870" cy="52.5" fill="#ADD1B2" rx="16.5" ry="16.5" style="stroke: #A80036; stroke-width: 1.5;"/><path d="M874.1484,46.3125 Q874.3828,45.9844 874.6641,45.8203 Q874.9453,45.6563 875.2734,45.6563 Q875.8359,45.6563 876.1875,46.0547 Q876.5391,46.4297 876.5391,47.3438 L876.5391,49.5234 Q876.5391,50.4375 876.1875,50.8359 Q875.8359,51.2344 875.2734,51.2344 Q874.7578,51.2344 874.4531,50.9297 Q874.1484,50.6484 873.9844,49.875 Q873.9141,49.3359 873.6328,49.0547 Q873.1406,48.4922 872.2266,48.1641 Q871.3125,47.8359 870.375,47.8359 Q869.2266,47.8359 868.2656,48.3281 Q867.3281,48.8203 866.5781,49.9453 Q865.8516,51.0703 865.8516,52.6172 L865.8516,54.2578 Q865.8516,56.1094 867.1875,57.3516 Q868.5234,58.5703 870.9141,58.5703 Q872.3203,58.5703 873.3047,58.1953 Q873.8906,57.9609 874.5234,57.3047 Q874.9219,56.9063 875.1328,56.7891 Q875.3672,56.6719 875.6719,56.6719 Q876.1641,56.6719 876.5391,57.0703 Q876.9375,57.4453 876.9375,57.9609 Q876.9375,58.4766 876.4219,59.0859 Q875.6719,59.9531 874.4766,60.4453 Q872.8594,61.125 870.9141,61.125 Q868.6406,61.125 866.8359,60.1875 Q865.3594,59.4375 864.3281,57.8438 Q863.2969,56.2266 863.2969,54.3047 L863.2969,52.5703 Q863.2969,50.5781 864.2109,48.8672 Q865.1484,47.1328 866.7891,46.2188 Q868.4297,45.2813 870.2813,45.2813 Q871.3828,45.2813 872.3438,45.5391 Q873.3281,45.7734 874.1484,46.3125 Z "/><text fill="#000000" font-family="sans-serif" font-size="18" lengthAdjust="spacingAndGlyphs" textLength="48" x="891" y="59.8652">Baton</text><line style="stroke: #A80036; stroke-width: 2.25;" x1="849" x2="942" y1="76.5" y2="76.5"/><line style="stroke: #A80036; stroke-width: 2.25;" x1="849" x2="942" y1="88.5" y2="88.5"/><!--MD5=[ae7bc4368a5efd04dbc3ae20ffd6acf5]
class Arc--><rect fill="#FEFECE" filter="url(#f10lvueygg4ykx)" height="72" id="Arc" style="stroke: #A80036; stroke-width: 2.25;" width="73.5" x="996.75" y="28.5"/><ellipse cx="1019.25" cy="52.5" fill="#ADD1B2" rx="16.5" ry="16.5" style="stroke: #A80036; stroke-width: 1.5;"/><path d="M1023.3984,46.3125 Q1023.6328,45.9844 1023.9141,45.8203 Q1024.1953,45.6563 1024.5234,45.6563 Q1025.0859,45.6563 1025.4375,46.0547 Q1025.7891,46.4297 1025.7891,47.3438 L1025.7891,49.5234 Q1025.7891,50.4375 1025.4375,50.8359 Q1025.0859,51.2344 1024.5234,51.2344 Q1024.0078,51.2344 1023.7031,50.9297 Q1023.3984,50.6484 1023.2344,49.875 Q1023.1641,49.3359 1022.8828,49.0547 Q1022.3906,48.4922 1021.4766,48.1641 Q1020.5625,47.8359 1019.625,47.8359 Q1018.4766,47.8359 1017.5156,48.3281 Q1016.5781,48.8203 1015.8281,49.9453 Q1015.1016,51.0703 1015.1016,52.6172 L1015.1016,54.2578 Q1015.1016,56.1094 1016.4375,57.3516 Q1017.7734,58.5703 1020.1641,58.5703 Q1021.5703,58.5703 1022.5547,58.1953 Q1023.1406,57.9609 1023.7734,57.3047 Q1024.1719,56.9063 1024.3828,56.7891 Q1024.6172,56.6719 1024.9219,56.6719 Q1025.4141,56.6719 1025.7891,57.0703 Q1026.1875,57.4453 1026.1875,57.9609 Q1026.1875,58.4766 1025.6719,59.0859 Q1024.9219,59.9531 1023.7266,60.4453 Q1022.1094,61.125 1020.1641,61.125 Q1017.8906,61.125 1016.0859,60.1875 Q1014.6094,59.4375 1013.5781,57.8438 Q1012.5469,56.2266 1012.5469,54.3047 L1012.5469,52.5703 Q1012.5469,50.5781 1013.4609,48.8672 Q1014.3984,47.1328 1016.0391,46.2188 Q1017.6797,45.2813 1019.5313,45.2813 Q1020.6328,45.2813 1021.5938,45.5391 Q1022.5781,45.7734 1023.3984,46.3125 Z "/><text fill="#000000" font-family="sans-serif" font-size="18" lengthAdjust="spacingAndGlyphs" textLength="25.5" x="1040.25" y="59.8652">Arc</text><line style="stroke: #A80036; stroke-width: 2.25;" x1="998.25" x2="1068.75" y1="76.5" y2="76.5"/><line style="stroke: #A80036; stroke-width: 2.25;" x1="998.25" x2="1068.75" y1="88.5" y2="88.5"/><!--MD5=[27bf5b02022a00c45befc02adbdd81fc]
class Couteau--><rect fill="#FEFECE" filter="url(#f10lvueygg4ykx)" height="72" id="Couteau" style="stroke: #A80036; stroke-width: 2.25;" width="118.5" x="1161.75" y="510"/><ellipse cx="1184.25" cy="534" fill="#ADD1B2" rx="16.5" ry="16.5" style="stroke: #A80036; stroke-width: 1.5;"/><path d="M1188.3984,527.8125 Q1188.6328,527.4844 1188.9141,527.3203 Q1189.1953,527.1563 1189.5234,527.1563 Q1190.0859,527.1563 1190.4375,527.5547 Q1190.7891,527.9297 1190.7891,528.8438 L1190.7891,531.0234 Q1190.7891,531.9375 1190.4375,532.3359 Q1190.0859,532.7344 1189.5234,532.7344 Q1189.0078,532.7344 1188.7031,532.4297 Q1188.3984,532.1484 1188.2344,531.375 Q1188.1641,530.8359 1187.8828,530.5547 Q1187.3906,529.9922 1186.4766,529.6641 Q1185.5625,529.3359 1184.625,529.3359 Q1183.4766,529.3359 1182.5156,529.8281 Q1181.5781,530.3203 1180.8281,531.4453 Q1180.1016,532.5703 1180.1016,534.1172 L1180.1016,535.7578 Q1180.1016,537.6094 1181.4375,538.8516 Q1182.7734,540.0703 1185.1641,540.0703 Q1186.5703,540.0703 1187.5547,539.6953 Q1188.1406,539.4609 1188.7734,538.8047 Q1189.1719,538.4063 1189.3828,538.2891 Q1189.6172,538.1719 1189.9219,538.1719 Q1190.4141,538.1719 1190.7891,538.5703 Q1191.1875,538.9453 1191.1875,539.4609 Q1191.1875,539.9766 1190.6719,540.5859 Q1189.9219,541.4531 1188.7266,541.9453 Q1187.1094,542.625 1185.1641,542.625 Q1182.8906,542.625 1181.0859,541.6875 Q1179.6094,540.9375 1178.5781,539.3438 Q1177.5469,537.7266 1177.5469,535.8047 L1177.5469,534.0703 Q1177.5469,532.0781 1178.4609,530.3672 Q1179.3984,528.6328 1181.0391,527.7188 Q1182.6797,526.7813 1184.5313,526.7813 Q1185.6328,526.7813 1186.5938,527.0391 Q1187.5781,527.2734 1188.3984,527.8125 Z "/><text fill="#000000" font-family="sans-serif" font-size="18" lengthAdjust="spacingAndGlyphs" textLength="70.5" x="1205.25" y="541.3652">Couteau</text><line style="stroke: #A80036; stroke-width: 2.25;" x1="1163.25" x2="1278.75" y1="558" y2="558"/><line style="stroke: #A80036; stroke-width: 2.25;" x1="1163.25" x2="1278.75" y1="570" y2="570"/><!--MD5=[e84bf443d14748ff027e0241600c7459]
class Lance--><rect fill="#FEFECE" filter="url(#f10lvueygg4ykx)" height="72" id="Lance" style="stroke: #A80036; stroke-width: 2.25;" width="99" x="870" y="510"/><ellipse cx="892.5" cy="534" fill="#ADD1B2" rx="16.5" ry="16.5" style="stroke: #A80036; stroke-width: 1.5;"/><path d="M896.6484,527.8125 Q896.8828,527.4844 897.1641,527.3203 Q897.4453,527.1563 897.7734,527.1563 Q898.3359,527.1563 898.6875,527.5547 Q899.0391,527.9297 899.0391,528.8438 L899.0391,531.0234 Q899.0391,531.9375 898.6875,532.3359 Q898.3359,532.7344 897.7734,532.7344 Q897.2578,532.7344 896.9531,532.4297 Q896.6484,532.1484 896.4844,531.375 Q896.4141,530.8359 896.1328,530.5547 Q895.6406,529.9922 894.7266,529.6641 Q893.8125,529.3359 892.875,529.3359 Q891.7266,529.3359 890.7656,529.8281 Q889.8281,530.3203 889.0781,531.4453 Q888.3516,532.5703 888.3516,534.1172 L888.3516,535.7578 Q888.3516,537.6094 889.6875,538.8516 Q891.0234,540.0703 893.4141,540.0703 Q894.8203,540.0703 895.8047,539.6953 Q896.3906,539.4609 897.0234,538.8047 Q897.4219,538.4063 897.6328,538.2891 Q897.8672,538.1719 898.1719,538.1719 Q898.6641,538.1719 899.0391,538.5703 Q899.4375,538.9453 899.4375,539.4609 Q899.4375,539.9766 898.9219,540.5859 Q898.1719,541.4531 896.9766,541.9453 Q895.3594,542.625 893.4141,542.625 Q891.1406,542.625 889.3359,541.6875 Q887.8594,540.9375 886.8281,539.3438 Q885.7969,537.7266 885.7969,535.8047 L885.7969,534.0703 Q885.7969,532.0781 886.7109,530.3672 Q887.6484,528.6328 889.2891,527.7188 Q890.9297,526.7813 892.7813,526.7813 Q893.8828,526.7813 894.8438,527.0391 Q895.8281,527.2734 896.6484,527.8125 Z "/><text fill="#000000" font-family="sans-serif" font-size="18" lengthAdjust="spacingAndGlyphs" textLength="51" x="913.5" y="541.3652">Lance</text><line style="stroke: #A80036; stroke-width: 2.25;" x1="871.5" x2="967.5" y1="558" y2="558"/><line style="stroke: #A80036; stroke-width: 2.25;" x1="871.5" x2="967.5" y1="570" y2="570"/><!--MD5=[e6c689e0fb2094b6e7ddc8286563ae4c]
class Livre--><rect fill="#FEFECE" filter="url(#f10lvueygg4ykx)" height="72" id="Livre" style="stroke: #A80036; stroke-width: 2.25;" width="87" x="1021.5" y="510"/><ellipse cx="1044" cy="534" fill="#ADD1B2" rx="16.5" ry="16.5" style="stroke: #A80036; stroke-width: 1.5;"/><path d="M1048.1484,527.8125 Q1048.3828,527.4844 1048.6641,527.3203 Q1048.9453,527.1563 1049.2734,527.1563 Q1049.8359,527.1563 1050.1875,527.5547 Q1050.5391,527.9297 1050.5391,528.8438 L1050.5391,531.0234 Q1050.5391,531.9375 1050.1875,532.3359 Q1049.8359,532.7344 1049.2734,532.7344 Q1048.7578,532.7344 1048.4531,532.4297 Q1048.1484,532.1484 1047.9844,531.375 Q1047.9141,530.8359 1047.6328,530.5547 Q1047.1406,529.9922 1046.2266,529.6641 Q1045.3125,529.3359 1044.375,529.3359 Q1043.2266,529.3359 1042.2656,529.8281 Q1041.3281,530.3203 1040.5781,531.4453 Q1039.8516,532.5703 1039.8516,534.1172 L1039.8516,535.7578 Q1039.8516,537.6094 1041.1875,538.8516 Q1042.5234,540.0703 1044.9141,540.0703 Q1046.3203,540.0703 1047.3047,539.6953 Q1047.8906,539.4609 1048.5234,538.8047 Q1048.9219,538.4063 1049.1328,538.2891 Q1049.3672,538.1719 1049.6719,538.1719 Q1050.1641,538.1719 1050.5391,538.5703 Q1050.9375,538.9453 1050.9375,539.4609 Q1050.9375,539.9766 1050.4219,540.5859 Q1049.6719,541.4531 1048.4766,541.9453 Q1046.8594,542.625 1044.9141,542.625 Q1042.6406,542.625 1040.8359,541.6875 Q1039.3594,540.9375 1038.3281,539.3438 Q1037.2969,537.7266 1037.2969,535.8047 L1037.2969,534.0703 Q1037.2969,532.0781 1038.2109,530.3672 Q1039.1484,528.6328 1040.7891,527.7188 Q1042.4297,526.7813 1044.2813,526.7813 Q1045.3828,526.7813 1046.3438,527.0391 Q1047.3281,527.2734 1048.1484,527.8125 Z "/><text fill="#000000" font-family="sans-serif" font-size="18" lengthAdjust="spacingAndGlyphs" textLength="39" x="1065" y="541.3652">Livre</text><line style="stroke: #A80036; stroke-width: 2.25;" x1="1023" x2="1107" y1="558" y2="558"/><line style="stroke: #A80036; stroke-width: 2.25;" x1="1023" x2="1107" y1="570" y2="570"/><!--MD5=[88deee8ab41a37f00ce93c59c4e924db]
class Robe--><rect fill="#FEFECE" filter="url(#f10lvueygg4ykx)" height="72" id="Robe" style="stroke: #A80036; stroke-width: 2.25;" width="93" x="9" y="510"/><ellipse cx="31.5" cy="534" fill="#ADD1B2" rx="16.5" ry="16.5" style="stroke: #A80036; stroke-width: 1.5;"/><path d="M35.6484,527.8125 Q35.8828,527.4844 36.1641,527.3203 Q36.4453,527.1563 36.7734,527.1563 Q37.3359,527.1563 37.6875,527.5547 Q38.0391,527.9297 38.0391,528.8438 L38.0391,531.0234 Q38.0391,531.9375 37.6875,532.3359 Q37.3359,532.7344 36.7734,532.7344 Q36.2578,532.7344 35.9531,532.4297 Q35.6484,532.1484 35.4844,531.375 Q35.4141,530.8359 35.1328,530.5547 Q34.6406,529.9922 33.7266,529.6641 Q32.8125,529.3359 31.875,529.3359 Q30.7266,529.3359 29.7656,529.8281 Q28.8281,530.3203 28.0781,531.4453 Q27.3516,532.5703 27.3516,534.1172 L27.3516,535.7578 Q27.3516,537.6094 28.6875,538.8516 Q30.0234,540.0703 32.4141,540.0703 Q33.8203,540.0703 34.8047,539.6953 Q35.3906,539.4609 36.0234,538.8047 Q36.4219,538.4063 36.6328,538.2891 Q36.8672,538.1719 37.1719,538.1719 Q37.6641,538.1719 38.0391,538.5703 Q38.4375,538.9453 38.4375,539.4609 Q38.4375,539.9766 37.9219,540.5859 Q37.1719,541.4531 35.9766,541.9453 Q34.3594,542.625 32.4141,542.625 Q30.1406,542.625 28.3359,541.6875 Q26.8594,540.9375 25.8281,539.3438 Q24.7969,537.7266 24.7969,535.8047 L24.7969,534.0703 Q24.7969,532.0781 25.7109,530.3672 Q26.6484,528.6328 28.2891,527.7188 Q29.9297,526.7813 31.7813,526.7813 Q32.8828,526.7813 33.8438,527.0391 Q34.8281,527.2734 35.6484,527.8125 Z "/><text fill="#000000" font-family="sans-serif" font-size="18" lengthAdjust="spacingAndGlyphs" textLength="45" x="52.5" y="541.3652">Robe</text><line style="stroke: #A80036; stroke-width: 2.25;" x1="10.5" x2="100.5" y1="558" y2="558"/><line style="stroke: #A80036; stroke-width: 2.25;" x1="10.5" x2="100.5" y1="570" y2="570"/><!--MD5=[e09645c39526ab2c93b0621617f133cf]
class ArmureLegere--><rect fill="#FEFECE" filter="url(#f10lvueygg4ykx)" height="72" id="ArmureLegere" style="stroke: #A80036; stroke-width: 2.25;" width="166.5" x="155.25" y="510"/><ellipse cx="177.75" cy="534" fill="#ADD1B2" rx="16.5" ry="16.5" style="stroke: #A80036; stroke-width: 1.5;"/><path d="M181.8984,527.8125 Q182.1328,527.4844 182.4141,527.3203 Q182.6953,527.1563 183.0234,527.1563 Q183.5859,527.1563 183.9375,527.5547 Q184.2891,527.9297 184.2891,528.8438 L184.2891,531.0234 Q184.2891,531.9375 183.9375,532.3359 Q183.5859,532.7344 183.0234,532.7344 Q182.5078,532.7344 182.2031,532.4297 Q181.8984,532.1484 181.7344,531.375 Q181.6641,530.8359 181.3828,530.5547 Q180.8906,529.9922 179.9766,529.6641 Q179.0625,529.3359 178.125,529.3359 Q176.9766,529.3359 176.0156,529.8281 Q175.0781,530.3203 174.3281,531.4453 Q173.6016,532.5703 173.6016,534.1172 L173.6016,535.7578 Q173.6016,537.6094 174.9375,538.8516 Q176.2734,540.0703 178.6641,540.0703 Q180.0703,540.0703 181.0547,539.6953 Q181.6406,539.4609 182.2734,538.8047 Q182.6719,538.4063 182.8828,538.2891 Q183.1172,538.1719 183.4219,538.1719 Q183.9141,538.1719 184.2891,538.5703 Q184.6875,538.9453 184.6875,539.4609 Q184.6875,539.9766 184.1719,540.5859 Q183.4219,541.4531 182.2266,541.9453 Q180.6094,542.625 178.6641,542.625 Q176.3906,542.625 174.5859,541.6875 Q173.1094,540.9375 172.0781,539.3438 Q171.0469,537.7266 171.0469,535.8047 L171.0469,534.0703 Q171.0469,532.0781 171.9609,530.3672 Q172.8984,528.6328 174.5391,527.7188 Q176.1797,526.7813 178.0313,526.7813 Q179.1328,526.7813 180.0938,527.0391 Q181.0781,527.2734 181.8984,527.8125 Z "/><text fill="#000000" font-family="sans-serif" font-size="18" lengthAdjust="spacingAndGlyphs" textLength="118.5" x="198.75" y="541.3652">ArmureLegere</text><line style="stroke: #A80036; stroke-width: 2.25;" x1="156.75" x2="320.25" y1="558" y2="558"/><line style="stroke: #A80036; stroke-width: 2.25;" x1="156.75" x2="320.25" y1="570" y2="570"/><!--MD5=[11acb40565e40b2465b83327bdb4a786]
class ArmureLourde--><rect fill="#FEFECE" filter="url(#f10lvueygg4ykx)" height="72" id="ArmureLourde" style="stroke: #A80036; stroke-width: 2.25;" width="166.5" x="374.25" y="510"/><ellipse cx="396.75" cy="534" fill="#ADD1B2" rx="16.5" ry="16.5" style="stroke: #A80036; stroke-width: 1.5;"/><path d="M400.8984,527.8125 Q401.1328,527.4844 401.4141,527.3203 Q401.6953,527.1563 402.0234,527.1563 Q402.5859,527.1563 402.9375,527.5547 Q403.2891,527.9297 403.2891,528.8438 L403.2891,531.0234 Q403.2891,531.9375 402.9375,532.3359 Q402.5859,532.7344 402.0234,532.7344 Q401.5078,532.7344 401.2031,532.4297 Q400.8984,532.1484 400.7344,531.375 Q400.6641,530.8359 400.3828,530.5547 Q399.8906,529.9922 398.9766,529.6641 Q398.0625,529.3359 397.125,529.3359 Q395.9766,529.3359 395.0156,529.8281 Q394.0781,530.3203 393.3281,531.4453 Q392.6016,532.5703 392.6016,534.1172 L392.6016,535.7578 Q392.6016,537.6094 393.9375,538.8516 Q395.2734,540.0703 397.6641,540.0703 Q399.0703,540.0703 400.0547,539.6953 Q400.6406,539.4609 401.2734,538.8047 Q401.6719,538.4063 401.8828,538.2891 Q402.1172,538.1719 402.4219,538.1719 Q402.9141,538.1719 403.2891,538.5703 Q403.6875,538.9453 403.6875,539.4609 Q403.6875,539.9766 403.1719,540.5859 Q402.4219,541.4531 401.2266,541.9453 Q399.6094,542.625 397.6641,542.625 Q395.3906,542.625 393.5859,541.6875 Q392.1094,540.9375 391.0781,539.3438 Q390.0469,537.7266 390.0469,535.8047 L390.0469,534.0703 Q390.0469,532.0781 390.9609,530.3672 Q391.8984,528.6328 393.5391,527.7188 Q395.1797,526.7813 397.0313,526.7813 Q398.1328,526.7813 399.0938,527.0391 Q400.0781,527.2734 400.8984,527.8125 Z "/><text fill="#000000" font-family="sans-serif" font-size="18" lengthAdjust="spacingAndGlyphs" textLength="118.5" x="417.75" y="541.3652">ArmureLourde</text><line style="stroke: #A80036; stroke-width: 2.25;" x1="375.75" x2="539.25" y1="558" y2="558"/><line style="stroke: #A80036; stroke-width: 2.25;" x1="375.75" x2="539.25" y1="570" y2="570"/><!--MD5=[ab5e5d4c17f1fb443f88e7b5a5dd07c1]
link Statistique to AbstractPersonnage--><path d="M705,383.076 C705,405.57 705,429.864 705,452.6085 " fill="none" id="Statistique-&gt;AbstractPersonnage" style="stroke: #A80036; stroke-width: 1.5;"/><polygon fill="#A80036" points="705,472.1115,711,463.1115,705,454.1115,699,463.1115,705,472.1115" style="stroke: #A80036; stroke-width: 1.5;"/><text fill="#000000" font-family="sans-serif" font-size="19.5" lengthAdjust="spacingAndGlyphs" textLength="10.5" x="693.893" y="414.9338">1</text><!--MD5=[44160a28acf5970c2eff576db004a5ec]
reverse link AbstractArme to AbstractPersonnage--><path d="M907.6275,373.404 C870.3015,404.922 827.361,441.18 790.6455,472.182 " fill="none" id="AbstractArme&lt;-AbstractPersonnage" style="stroke: #A80036; stroke-width: 1.5;"/><polygon fill="#A80036" points="913.5675,368.388,899.3812,372.511,907.8363,373.2257,907.1216,381.6809,913.5675,368.388" style="stroke: #A80036; stroke-width: 1.5;"/><text fill="#000000" font-family="sans-serif" font-size="19.5" lengthAdjust="spacingAndGlyphs" textLength="33" x="866.8703" y="400.2044">0..1</text><!--MD5=[d04d4f213dc32a2defacb7ed4f31b75d]
reverse link AbstractEquipement to AbstractArme--><path d="M781.665,134.9505 C819.06,162.1875 862.047,193.4985 899.868,221.046 " fill="none" id="AbstractEquipement&lt;-AbstractArme" style="stroke: #A80036; stroke-width: 1.5;"/><polygon fill="none" points="775.476,143.433,757.4085,117.282,787.839,126.4575,775.476,143.433" style="stroke: #A80036; stroke-width: 1.5;"/><!--MD5=[372aead21d76fe4fc7325ef31f8647ae]
reverse link AbstractEquipement to Statistique--><path d="M692.625,137.013 C694.3725,159.084 696.3195,183.663 698.142,206.67 " fill="none" id="AbstractEquipement&lt;-Statistique" style="stroke: #A80036; stroke-width: 1.5;"/><polygon fill="#A80036" points="691.0845,117.567,685.8134,127.0124,692.5048,135.5109,697.776,126.0655,691.0845,117.567" style="stroke: #A80036; stroke-width: 1.5;"/><text fill="#000000" font-family="sans-serif" font-size="19.5" lengthAdjust="spacingAndGlyphs" textLength="10.5" x="686.1663" y="190.7311">1</text><!--MD5=[e3aa2855f43ce1a25917c87387861016]
reverse link AbstractPersonnage to Magicien--><path d="M622.506,642.2958 C601.617,666.2997 580.488,690.5787 564.117,709.3926 " fill="none" id="AbstractPersonnage&lt;-Magicien" style="stroke: #A80036; stroke-width: 1.5;"/><polygon fill="none" points="614.682,635.2914,642.297,619.554,630.5235,649.0772,614.682,635.2914" style="stroke: #A80036; stroke-width: 1.5;"/><!--MD5=[7903440395d07a99cd7a8b599130ad07]
reverse link AbstractPersonnage to Guerrier--><path d="M705,649.7222 C705,671.2476 705,692.5184 705,709.3926 " fill="none" id="AbstractPersonnage&lt;-Guerrier" style="stroke: #A80036; stroke-width: 1.5;"/><polygon fill="none" points="694.5,649.5536,705,619.554,715.5,649.5536,694.5,649.5536" style="stroke: #A80036; stroke-width: 1.5;"/><!--MD5=[cc7d698a2c7749f6fae0b4ff1e7ea3ed]
reverse link AbstractPersonnage to Voleur--><path d="M783.0345,643.0383 C802.443,666.7996 822.024,690.7727 837.2325,709.3926 " fill="none" id="AbstractPersonnage&lt;-Voleur" style="stroke: #A80036; stroke-width: 1.5;"/><polygon fill="none" points="774.699,649.4304,763.8525,619.554,790.9635,636.1458,774.699,649.4304" style="stroke: #A80036; stroke-width: 1.5;"/><!--MD5=[9b6e406c015dd290189d05b176ba032b]
link Epee to AbstractArme--><path d="M1142.757,100.515 C1123.6035,126.192 1096.47,162.5715 1070.9265,196.8165 " fill="none" id="Epee-&gt;AbstractArme" style="stroke: #A80036; stroke-width: 1.5;"/><polygon fill="none" points="1079.0985,203.424,1052.745,221.193,1062.2655,190.8675,1079.0985,203.424" style="stroke: #A80036; stroke-width: 1.5;"/><!--MD5=[c9b0f911b024d2dc3f2b18078dd5b6ec]
link Baton to AbstractArme--><path d="M911.22,100.515 C922.5735,125.445 938.5215,160.461 953.715,193.8195 " fill="none" id="Baton-&gt;AbstractArme" style="stroke: #A80036; stroke-width: 1.5;"/><polygon fill="none" points="963.303,189.5385,966.1815,221.193,944.1915,198.243,963.303,189.5385" style="stroke: #A80036; stroke-width: 1.5;"/><!--MD5=[467e06bf1070bb5ad80829b4be99a0f3]
link Arc to AbstractArme--><path d="M1028.2605,100.515 C1024.5705,124.821 1019.424,158.7165 1014.4755,191.3145 " fill="none" id="Arc-&gt;AbstractArme" style="stroke: #A80036; stroke-width: 1.5;"/><polygon fill="none" points="1024.824,193.1085,1009.9395,221.193,1004.061,189.957,1024.824,193.1085" style="stroke: #A80036; stroke-width: 1.5;"/><!--MD5=[2d044bec438a0004392ecbf35213228d]
reverse link AbstractArme to Couteau--><path d="M1083.8985,391.1865 C1121.0295,432.7095 1162.293,478.851 1189.755,509.5605 " fill="none" id="AbstractArme&lt;-Couteau" style="stroke: #A80036; stroke-width: 1.5;"/><polygon fill="none" points="1075.98,398.0835,1063.809,368.721,1091.6325,384.0855,1075.98,398.0835" style="stroke: #A80036; stroke-width: 1.5;"/><!--MD5=[ec0bd100f1cb45a009e81bb20a32a083]
reverse link AbstractArme to Lance--><path d="M966.555,397.5645 C953.808,437.3685 940.023,480.4155 930.6885,509.5605 " fill="none" id="AbstractArme&lt;-Lance" style="stroke: #A80036; stroke-width: 1.5;"/><polygon fill="none" points="956.6415,394.0905,975.792,368.721,976.641,400.494,956.6415,394.0905" style="stroke: #A80036; stroke-width: 1.5;"/><!--MD5=[bb2e391553cc5013f0ee8dd941c99f03]
reverse link AbstractArme to Livre--><path d="M1026.09,398.1465 C1036.629,437.7885 1048.0005,480.558 1055.7105,509.5605 " fill="none" id="AbstractArme&lt;-Livre" style="stroke: #A80036; stroke-width: 1.5;"/><polygon fill="none" points="1015.8285,400.413,1018.2675,368.721,1036.1235,395.016,1015.8285,400.413" style="stroke: #A80036; stroke-width: 1.5;"/><!--MD5=[8aeff6ae2537ee0a41535db9bf664039]
reverse link AbstractArmure to Robe--><path d="M254.049,384.405 C212.367,411.0555 167.8755,441.5145 129,472.5 C115.0314,483.633 100.7606,497.055 88.5551,509.2785 " fill="none" id="AbstractArmure&lt;-Robe" style="stroke: #A80036; stroke-width: 1.5;"/><polygon fill="none" points="248.5845,375.438,279.5655,368.3325,259.7775,393.2055,248.5845,375.438" style="stroke: #A80036; stroke-width: 1.5;"/><!--MD5=[fb2c653ec8bc8d66e249e13a9ff75d19]
reverse link AbstractArmure to ArmureLegere--><path d="M338.478,394.077 C311.388,434.838 281.661,479.562 261.723,509.5605 " fill="none" id="AbstractArmure&lt;-ArmureLegere" style="stroke: #A80036; stroke-width: 1.5;"/><polygon fill="none" points="329.9805,387.894,355.332,368.721,347.4705,399.519,329.9805,387.894" style="stroke: #A80036; stroke-width: 1.5;"/><!--MD5=[20d448917ab5c02c257745350b68c8be]
reverse link AbstractArmure to ArmureLourde--><path d="M425.6655,398.1465 C434.2875,437.7885 443.5905,480.558 449.8995,509.5605 " fill="none" id="AbstractArmure&lt;-ArmureLourde" style="stroke: #A80036; stroke-width: 1.5;"/><polygon fill="none" points="415.3815,400.2675,419.2635,368.721,435.9015,395.8035,415.3815,400.2675" style="stroke: #A80036; stroke-width: 1.5;"/><!--MD5=[981e6e492725b20a8be33f6b18a72a60]
reverse link AbstractArmure to AbstractPersonnage--><path d="M497.2035,373.404 C535.482,404.922 579.5175,441.18 617.1705,472.182 " fill="none" id="AbstractArmure&lt;-AbstractPersonnage" style="stroke: #A80036; stroke-width: 1.5;"/><polygon fill="#A80036" points="491.112,368.388,497.7193,381.6014,496.9017,373.1556,505.3475,372.3379,491.112,368.388" style="stroke: #A80036; stroke-width: 1.5;"/><text fill="#000000" font-family="sans-serif" font-size="19.5" lengthAdjust="spacingAndGlyphs" textLength="33" x="467.6677" y="400.2044">0..1</text><!--MD5=[a14465c03619df734395e88b31f3c800]
reverse link AbstractEquipement to AbstractArmure--><path d="M599.163,136.4085 C565.545,163.3575 527.172,194.1165 493.365,221.2155 " fill="none" id="AbstractEquipement&lt;-AbstractArmure" style="stroke: #A80036; stroke-width: 1.5;"/><polygon fill="none" points="592.695,128.1375,622.6695,117.567,605.829,144.5235,592.695,128.1375" style="stroke: #A80036; stroke-width: 1.5;"/><!--MD5=[b0fbacbaf355a5cbc810b68deb2123db]
@startuml
scale 1.5
abstract class AbstractPersonnage 	<<abstract>> {
	#_phrase_attaque : String 
	#_phrase_defense : String 
	+degats_attaque() float
    }
	 

abstract class AbstractEquipement <<abstract>> {
	#_nom : String
}
	 
class Statistique {
	 -__force : int
	 -__agilite : int
	 -__magie : int
	 -__defense : int
	 -__points_de_vie : int
}

abstract class AbstractArme <<abstract>>{
    #_description_utilisation : String
    #_base_attaque : int
    +utiliser_arme(Statistique) float
}


abstract class AbstractArmure <<abstract>>{
    #_description_defense : String 
    #_base_defense : int
    +utiliser_armure(Statistique, float) float 
}
	 	
AbstractPersonnage *-up-"1" Statistique
AbstractArme "0..1"<- - AbstractPersonnage
AbstractEquipement <|- - AbstractArme
AbstractEquipement *- -"1" Statistique

AbstractPersonnage <|- -  Magicien
AbstractPersonnage <|- -  Guerrier
AbstractPersonnage <|- -  Voleur

Epee - -|> AbstractArme
Baton - -|> AbstractArme
Arc - -|> AbstractArme
AbstractArme <|- - Couteau
AbstractArme <|- - Lance
AbstractArme <|- - Livre
AbstractArmure <|- - Robe
AbstractArmure <|- - ArmureLegere
AbstractArmure <|- - ArmureLourde
AbstractArmure "0..1" <- - AbstractPersonnage
AbstractEquipement <|- - AbstractArmure
@enduml

PlantUML version 1.2020.10(Sun May 17 11:35:57 CEST 2020)
(GPL source distribution)
Java Runtime: OpenJDK Runtime Environment
JVM: OpenJDK 64-Bit Server VM
Java Version: 14+36
Operating System: Windows 10
Default Encoding: Cp1252
Language: fr
Country: FR
--></g></svg>