<?xml version="1.0" encoding="UTF-8" standalone="no"?><svg xmlns="http://www.w3.org/2000/svg" xmlns:xlink="http://www.w3.org/1999/xlink" contentScriptType="application/ecmascript" contentStyleType="text/css" height="774px" preserveAspectRatio="none" style="width:988px;height:774px;" version="1.1" viewBox="0 0 988 774" width="988.5px" zoomAndPan="magnify"><defs><filter height="300%" id="f199je4p9m3ule" width="300%" x="-1" y="-1"><feGaussianBlur result="blurOut" stdDeviation="3.0"/><feColorMatrix in="blurOut" result="blurOut2" type="matrix" values="0 0 0 0 0 0 0 0 0 0 0 0 0 0 0 0 0 0 .4 0"/><feOffset dx="6.0" dy="6.0" in="blurOut2" result="blurOut3"/><feBlend in="SourceGraphic" in2="blurOut3" mode="normal"/></filter></defs><g><!--MD5=[6d696eeb6a0937c3630c502bf2d9f69b]
class AbstractPersonnage--><rect fill="#FEFECE" filter="url(#f199je4p9m3ule)" height="146.543" id="AbstractPersonnage" style="stroke: #A80036; stroke-width: 2.25;" width="223.5" x="508.5" y="432.75"/><ellipse cx="534.375" cy="462.8906" fill="#A9DCDF" rx="16.5" ry="16.5" style="stroke: #A80036; stroke-width: 1.5;"/><path d="M537.6563,465.5391 L531.4453,465.5391 L530.8125,467.0859 L531.4453,467.0859 Q532.3594,467.0859 532.7578,467.4375 Q533.1563,467.7891 533.1563,468.375 Q533.1563,468.9375 532.7578,469.2891 Q532.3594,469.6406 531.4453,469.6406 L528,469.6406 Q527.0859,469.6406 526.7109,469.2891 Q526.3125,468.9375 526.3125,468.3516 Q526.3125,467.7891 526.7344,467.4375 Q527.1328,467.0625 528.0703,467.0859 L532.0781,457.1016 L530.4141,457.1016 Q529.5,457.1016 529.1016,456.75 Q528.7031,456.3984 528.7031,455.8125 Q528.7031,455.25 529.1016,454.8984 Q529.5,454.5469 530.4141,454.5469 L535.9219,454.5469 L541.0078,467.0859 Q541.8984,467.0859 542.1797,467.2969 Q542.7656,467.6953 542.7656,468.375 Q542.7656,468.9375 542.3672,469.2891 Q541.9922,469.6406 541.0781,469.6406 L537.6328,469.6406 Q536.7188,469.6406 536.3203,469.2891 Q535.9219,468.9375 535.9219,468.3516 Q535.9219,467.7891 536.3203,467.4375 Q536.7188,467.0859 537.6328,467.0859 L538.2656,467.0859 L537.6563,465.5391 Z M536.5781,462.9844 L534.5391,457.9219 L532.4766,462.9844 L536.5781,462.9844 Z "/><text fill="#000000" font-family="sans-serif" font-size="18" font-style="italic" lengthAdjust="spacingAndGlyphs" textLength="87" x="596.625" y="458.9355">«abstract»</text><text fill="#000000" font-family="sans-serif" font-size="18" font-style="italic" lengthAdjust="spacingAndGlyphs" textLength="168" x="556.125" y="481.5762">AbstractPersonnage</text><line style="stroke: #A80036; stroke-width: 2.25;" x1="510" x2="730.5" y1="493.0313" y2="493.0313"/><polygon fill="none" points="525,502.0313,531,508.0313,525,514.0313,519,508.0313" style="stroke: #B38D22; stroke-width: 1.5;"/><text fill="#000000" font-family="sans-serif" font-size="16.5" lengthAdjust="spacingAndGlyphs" textLength="178.5" x="538.5" y="516.1597">_phrase_attaque : String</text><polygon fill="none" points="525,522.7852,531,528.7852,525,534.7852,519,528.7852" style="stroke: #B38D22; stroke-width: 1.5;"/><text fill="#000000" font-family="sans-serif" font-size="16.5" lengthAdjust="spacingAndGlyphs" textLength="184.5" x="538.5" y="536.9136">_phrase_defense : String</text><line style="stroke: #A80036; stroke-width: 2.25;" x1="510" x2="730.5" y1="546.5391" y2="546.5391"/><ellipse cx="525" cy="563.0391" fill="#84BE84" rx="4.5" ry="4.5" style="stroke: #038048; stroke-width: 1.5;"/><text fill="#000000" font-family="sans-serif" font-size="16.5" lengthAdjust="spacingAndGlyphs" textLength="160.5" x="538.5" y="569.6675">degats_attaque() float</text><!--MD5=[fe7de06e0f2f4ddb9c35fce3669b0853]
class AbstractEquipement--><rect fill="#FEFECE" filter="url(#f199je4p9m3ule)" height="105.0352" id="AbstractEquipement" style="stroke: #A80036; stroke-width: 2.25;" width="216" x="656.25" y="12"/><ellipse cx="678.75" cy="42.1406" fill="#A9DCDF" rx="16.5" ry="16.5" style="stroke: #A80036; stroke-width: 1.5;"/><path d="M682.0313,44.7891 L675.8203,44.7891 L675.1875,46.3359 L675.8203,46.3359 Q676.7344,46.3359 677.1328,46.6875 Q677.5313,47.0391 677.5313,47.625 Q677.5313,48.1875 677.1328,48.5391 Q676.7344,48.8906 675.8203,48.8906 L672.375,48.8906 Q671.4609,48.8906 671.0859,48.5391 Q670.6875,48.1875 670.6875,47.6016 Q670.6875,47.0391 671.1094,46.6875 Q671.5078,46.3125 672.4453,46.3359 L676.4531,36.3516 L674.7891,36.3516 Q673.875,36.3516 673.4766,36 Q673.0781,35.6484 673.0781,35.0625 Q673.0781,34.5 673.4766,34.1484 Q673.875,33.7969 674.7891,33.7969 L680.2969,33.7969 L685.3828,46.3359 Q686.2734,46.3359 686.5547,46.5469 Q687.1406,46.9453 687.1406,47.625 Q687.1406,48.1875 686.7422,48.5391 Q686.3672,48.8906 685.4531,48.8906 L682.0078,48.8906 Q681.0938,48.8906 680.6953,48.5391 Q680.2969,48.1875 680.2969,47.6016 Q680.2969,47.0391 680.6953,46.6875 Q681.0938,46.3359 682.0078,46.3359 L682.6406,46.3359 L682.0313,44.7891 Z M680.9531,42.2344 L678.9141,37.1719 L676.8516,42.2344 L680.9531,42.2344 Z "/><text fill="#000000" font-family="sans-serif" font-size="18" font-style="italic" lengthAdjust="spacingAndGlyphs" textLength="87" x="740.25" y="38.1855">«abstract»</text><text fill="#000000" font-family="sans-serif" font-size="18" font-style="italic" lengthAdjust="spacingAndGlyphs" textLength="168" x="699.75" y="60.8262">AbstractEquipement</text><line style="stroke: #A80036; stroke-width: 2.25;" x1="657.75" x2="870.75" y1="72.2813" y2="72.2813"/><polygon fill="none" points="672.75,81.2813,678.75,87.2813,672.75,93.2813,666.75,87.2813" style="stroke: #B38D22; stroke-width: 1.5;"/><text fill="#000000" font-family="sans-serif" font-size="16.5" lengthAdjust="spacingAndGlyphs" textLength="94.5" x="686.25" y="95.4097">_nom : String</text><line style="stroke: #A80036; stroke-width: 2.25;" x1="657.75" x2="870.75" y1="105.0352" y2="105.0352"/><!--MD5=[4fee37becfc6618f6c12d3f3b2ea6d43]
class Statistique--><rect fill="#FEFECE" filter="url(#f199je4p9m3ule)" height="175.7695" id="Statistique" style="stroke: #A80036; stroke-width: 2.25;" width="187.5" x="784.5" y="418.5"/><ellipse cx="830.625" cy="442.5" fill="#ADD1B2" rx="16.5" ry="16.5" style="stroke: #A80036; stroke-width: 1.5;"/><path d="M834.7734,436.3125 Q835.0078,435.9844 835.2891,435.8203 Q835.5703,435.6563 835.8984,435.6563 Q836.4609,435.6563 836.8125,436.0547 Q837.1641,436.4297 837.1641,437.3438 L837.1641,439.5234 Q837.1641,440.4375 836.8125,440.8359 Q836.4609,441.2344 835.8984,441.2344 Q835.3828,441.2344 835.0781,440.9297 Q834.7734,440.6484 834.6094,439.875 Q834.5391,439.3359 834.2578,439.0547 Q833.7656,438.4922 832.8516,438.1641 Q831.9375,437.8359 831,437.8359 Q829.8516,437.8359 828.8906,438.3281 Q827.9531,438.8203 827.2031,439.9453 Q826.4766,441.0703 826.4766,442.6172 L826.4766,444.2578 Q826.4766,446.1094 827.8125,447.3516 Q829.1484,448.5703 831.5391,448.5703 Q832.9453,448.5703 833.9297,448.1953 Q834.5156,447.9609 835.1484,447.3047 Q835.5469,446.9063 835.7578,446.7891 Q835.9922,446.6719 836.2969,446.6719 Q836.7891,446.6719 837.1641,447.0703 Q837.5625,447.4453 837.5625,447.9609 Q837.5625,448.4766 837.0469,449.0859 Q836.2969,449.9531 835.1016,450.4453 Q833.4844,451.125 831.5391,451.125 Q829.2656,451.125 827.4609,450.1875 Q825.9844,449.4375 824.9531,447.8438 Q823.9219,446.2266 823.9219,444.3047 L823.9219,442.5703 Q823.9219,440.5781 824.8359,438.8672 Q825.7734,437.1328 827.4141,436.2188 Q829.0547,435.2813 830.9063,435.2813 Q832.0078,435.2813 832.9688,435.5391 Q833.9531,435.7734 834.7734,436.3125 Z "/><text fill="#000000" font-family="sans-serif" font-size="18" lengthAdjust="spacingAndGlyphs" textLength="87" x="856.875" y="449.8652">Statistique</text><line style="stroke: #A80036; stroke-width: 2.25;" x1="786" x2="970.5" y1="466.5" y2="466.5"/><rect fill="none" height="9" style="stroke: #C82930; stroke-width: 1.5;" width="9" x="796.5" y="478.5"/><text fill="#000000" font-family="sans-serif" font-size="16.5" lengthAdjust="spacingAndGlyphs" textLength="87" x="814.5" y="489.6284">__force : int</text><rect fill="none" height="9" style="stroke: #C82930; stroke-width: 1.5;" width="9" x="796.5" y="499.2539"/><text fill="#000000" font-family="sans-serif" font-size="16.5" lengthAdjust="spacingAndGlyphs" textLength="88.5" x="814.5" y="510.3823">__agilite : int</text><rect fill="none" height="9" style="stroke: #C82930; stroke-width: 1.5;" width="9" x="796.5" y="520.0078"/><text fill="#000000" font-family="sans-serif" font-size="16.5" lengthAdjust="spacingAndGlyphs" textLength="90" x="814.5" y="531.1362">__magie : int</text><rect fill="none" height="9" style="stroke: #C82930; stroke-width: 1.5;" width="9" x="796.5" y="540.7617"/><text fill="#000000" font-family="sans-serif" font-size="16.5" lengthAdjust="spacingAndGlyphs" textLength="108" x="814.5" y="551.8901">__defense : int</text><rect fill="none" height="9" style="stroke: #C82930; stroke-width: 1.5;" width="9" x="796.5" y="561.5156"/><text fill="#000000" font-family="sans-serif" font-size="16.5" lengthAdjust="spacingAndGlyphs" textLength="148.5" x="814.5" y="572.644">__points_de_vie : int</text><line style="stroke: #A80036; stroke-width: 2.25;" x1="786" x2="970.5" y1="582.2695" y2="582.2695"/><!--MD5=[7e839c7f40ad33ee08f12d1385d34f55]
class PersonnagesService--><rect fill="#FEFECE" filter="url(#f199je4p9m3ule)" height="113.5078" id="PersonnagesService" style="stroke: #A80036; stroke-width: 2.25;" width="391.5" x="9" y="449.25"/><ellipse cx="112.125" cy="473.25" fill="#ADD1B2" rx="16.5" ry="16.5" style="stroke: #A80036; stroke-width: 1.5;"/><path d="M116.2734,467.0625 Q116.5078,466.7344 116.7891,466.5703 Q117.0703,466.4063 117.3984,466.4063 Q117.9609,466.4063 118.3125,466.8047 Q118.6641,467.1797 118.6641,468.0938 L118.6641,470.2734 Q118.6641,471.1875 118.3125,471.5859 Q117.9609,471.9844 117.3984,471.9844 Q116.8828,471.9844 116.5781,471.6797 Q116.2734,471.3984 116.1094,470.625 Q116.0391,470.0859 115.7578,469.8047 Q115.2656,469.2422 114.3516,468.9141 Q113.4375,468.5859 112.5,468.5859 Q111.3516,468.5859 110.3906,469.0781 Q109.4531,469.5703 108.7031,470.6953 Q107.9766,471.8203 107.9766,473.3672 L107.9766,475.0078 Q107.9766,476.8594 109.3125,478.1016 Q110.6484,479.3203 113.0391,479.3203 Q114.4453,479.3203 115.4297,478.9453 Q116.0156,478.7109 116.6484,478.0547 Q117.0469,477.6563 117.2578,477.5391 Q117.4922,477.4219 117.7969,477.4219 Q118.2891,477.4219 118.6641,477.8203 Q119.0625,478.1953 119.0625,478.7109 Q119.0625,479.2266 118.5469,479.8359 Q117.7969,480.7031 116.6016,481.1953 Q114.9844,481.875 113.0391,481.875 Q110.7656,481.875 108.9609,480.9375 Q107.4844,480.1875 106.4531,478.5938 Q105.4219,476.9766 105.4219,475.0547 L105.4219,473.3203 Q105.4219,471.3281 106.3359,469.6172 Q107.2734,467.8828 108.9141,466.9688 Q110.5547,466.0313 112.4063,466.0313 Q113.5078,466.0313 114.4688,466.2891 Q115.4531,466.5234 116.2734,467.0625 Z "/><text fill="#000000" font-family="sans-serif" font-size="18" lengthAdjust="spacingAndGlyphs" textLength="172.5" x="142.875" y="480.6152">PersonnagesService</text><line style="stroke: #A80036; stroke-width: 2.25;" x1="10.5" x2="399" y1="497.25" y2="497.25"/><line style="stroke: #A80036; stroke-width: 2.25;" x1="10.5" x2="399" y1="509.25" y2="509.25"/><ellipse cx="25.5" cy="525.75" fill="#84BE84" rx="4.5" ry="4.5" style="stroke: #038048; stroke-width: 1.5;"/><text fill="#000000" font-family="sans-serif" font-size="16.5" lengthAdjust="spacingAndGlyphs" textLength="108" x="39" y="532.3784">attaquer() float</text><ellipse cx="25.5" cy="546.5039" fill="#84BE84" rx="4.5" ry="4.5" style="stroke: #038048; stroke-width: 1.5;"/><text fill="#000000" font-family="sans-serif" font-size="16.5" lengthAdjust="spacingAndGlyphs" textLength="352.5" x="39" y="553.1323">changer_arme(AbstractPersonnage,Arme) None</text><!--MD5=[0e40145dcd0b5bb8a81ea75444240c9b]
class Arme--><rect fill="#FEFECE" filter="url(#f199je4p9m3ule)" height="92.7539" id="Arme" style="stroke: #A80036; stroke-width: 2.25;" width="177" x="531.75" y="208.5"/><ellipse cx="592.725" cy="232.5" fill="#ADD1B2" rx="16.5" ry="16.5" style="stroke: #A80036; stroke-width: 1.5;"/><path d="M596.8734,226.3125 Q597.1078,225.9844 597.3891,225.8203 Q597.6703,225.6563 597.9984,225.6563 Q598.5609,225.6563 598.9125,226.0547 Q599.2641,226.4297 599.2641,227.3438 L599.2641,229.5234 Q599.2641,230.4375 598.9125,230.8359 Q598.5609,231.2344 597.9984,231.2344 Q597.4828,231.2344 597.1781,230.9297 Q596.8734,230.6484 596.7094,229.875 Q596.6391,229.3359 596.3578,229.0547 Q595.8656,228.4922 594.9516,228.1641 Q594.0375,227.8359 593.1,227.8359 Q591.9516,227.8359 590.9906,228.3281 Q590.0531,228.8203 589.3031,229.9453 Q588.5766,231.0703 588.5766,232.6172 L588.5766,234.2578 Q588.5766,236.1094 589.9125,237.3516 Q591.2484,238.5703 593.6391,238.5703 Q595.0453,238.5703 596.0297,238.1953 Q596.6156,237.9609 597.2484,237.3047 Q597.6469,236.9063 597.8578,236.7891 Q598.0922,236.6719 598.3969,236.6719 Q598.8891,236.6719 599.2641,237.0703 Q599.6625,237.4453 599.6625,237.9609 Q599.6625,238.4766 599.1469,239.0859 Q598.3969,239.9531 597.2016,240.4453 Q595.5844,241.125 593.6391,241.125 Q591.3656,241.125 589.5609,240.1875 Q588.0844,239.4375 587.0531,237.8438 Q586.0219,236.2266 586.0219,234.3047 L586.0219,232.5703 Q586.0219,230.5781 586.9359,228.8672 Q587.8734,227.1328 589.5141,226.2188 Q591.1547,225.2813 593.0062,225.2813 Q594.1078,225.2813 595.0687,225.5391 Q596.0531,225.7734 596.8734,226.3125 Z "/><text fill="#000000" font-family="sans-serif" font-size="18" lengthAdjust="spacingAndGlyphs" textLength="43.5" x="622.275" y="239.8652">Arme</text><line style="stroke: #A80036; stroke-width: 2.25;" x1="533.25" x2="707.25" y1="256.5" y2="256.5"/><polygon fill="none" points="548.25,265.5,554.25,271.5,548.25,277.5,542.25,271.5" style="stroke: #B38D22; stroke-width: 1.5;"/><text fill="#000000" font-family="sans-serif" font-size="16.5" lengthAdjust="spacingAndGlyphs" textLength="138" x="561.75" y="279.6284">_base_attaque : int</text><line style="stroke: #A80036; stroke-width: 2.25;" x1="533.25" x2="707.25" y1="289.2539" y2="289.2539"/><!--MD5=[6b455bb8407ccb98ad4b82c422822b44]
class Magicien--><rect fill="#FEFECE" filter="url(#f199je4p9m3ule)" height="72" id="Magicien" style="stroke: #A80036; stroke-width: 2.25;" width="121.5" x="388.5" y="685.5"/><ellipse cx="411" cy="709.5" fill="#ADD1B2" rx="16.5" ry="16.5" style="stroke: #A80036; stroke-width: 1.5;"/><path d="M415.1484,703.3125 Q415.3828,702.9844 415.6641,702.8203 Q415.9453,702.6563 416.2734,702.6563 Q416.8359,702.6563 417.1875,703.0547 Q417.5391,703.4297 417.5391,704.3438 L417.5391,706.5234 Q417.5391,707.4375 417.1875,707.8359 Q416.8359,708.2344 416.2734,708.2344 Q415.7578,708.2344 415.4531,707.9297 Q415.1484,707.6484 414.9844,706.875 Q414.9141,706.3359 414.6328,706.0547 Q414.1406,705.4922 413.2266,705.1641 Q412.3125,704.8359 411.375,704.8359 Q410.2266,704.8359 409.2656,705.3281 Q408.3281,705.8203 407.5781,706.9453 Q406.8516,708.0703 406.8516,709.6172 L406.8516,711.2578 Q406.8516,713.1094 408.1875,714.3516 Q409.5234,715.5703 411.9141,715.5703 Q413.3203,715.5703 414.3047,715.1953 Q414.8906,714.9609 415.5234,714.3047 Q415.9219,713.9063 416.1328,713.7891 Q416.3672,713.6719 416.6719,713.6719 Q417.1641,713.6719 417.5391,714.0703 Q417.9375,714.4453 417.9375,714.9609 Q417.9375,715.4766 417.4219,716.0859 Q416.6719,716.9531 415.4766,717.4453 Q413.8594,718.125 411.9141,718.125 Q409.6406,718.125 407.8359,717.1875 Q406.3594,716.4375 405.3281,714.8438 Q404.2969,713.2266 404.2969,711.3047 L404.2969,709.5703 Q404.2969,707.5781 405.2109,705.8672 Q406.1484,704.1328 407.7891,703.2188 Q409.4297,702.2813 411.2813,702.2813 Q412.3828,702.2813 413.3438,702.5391 Q414.3281,702.7734 415.1484,703.3125 Z "/><text fill="#000000" font-family="sans-serif" font-size="18" lengthAdjust="spacingAndGlyphs" textLength="73.5" x="432" y="716.8652">Magicien</text><line style="stroke: #A80036; stroke-width: 2.25;" x1="390" x2="508.5" y1="733.5" y2="733.5"/><line style="stroke: #A80036; stroke-width: 2.25;" x1="390" x2="508.5" y1="745.5" y2="745.5"/><!--MD5=[8b767dff77bbacea0d3f910cfdc225b7]
class Guerrier--><rect fill="#FEFECE" filter="url(#f199je4p9m3ule)" height="72" id="Guerrier" style="stroke: #A80036; stroke-width: 2.25;" width="115.5" x="562.5" y="685.5"/><ellipse cx="585" cy="709.5" fill="#ADD1B2" rx="16.5" ry="16.5" style="stroke: #A80036; stroke-width: 1.5;"/><path d="M589.1484,703.3125 Q589.3828,702.9844 589.6641,702.8203 Q589.9453,702.6563 590.2734,702.6563 Q590.8359,702.6563 591.1875,703.0547 Q591.5391,703.4297 591.5391,704.3438 L591.5391,706.5234 Q591.5391,707.4375 591.1875,707.8359 Q590.8359,708.2344 590.2734,708.2344 Q589.7578,708.2344 589.4531,707.9297 Q589.1484,707.6484 588.9844,706.875 Q588.9141,706.3359 588.6328,706.0547 Q588.1406,705.4922 587.2266,705.1641 Q586.3125,704.8359 585.375,704.8359 Q584.2266,704.8359 583.2656,705.3281 Q582.3281,705.8203 581.5781,706.9453 Q580.8516,708.0703 580.8516,709.6172 L580.8516,711.2578 Q580.8516,713.1094 582.1875,714.3516 Q583.5234,715.5703 585.9141,715.5703 Q587.3203,715.5703 588.3047,715.1953 Q588.8906,714.9609 589.5234,714.3047 Q589.9219,713.9063 590.1328,713.7891 Q590.3672,713.6719 590.6719,713.6719 Q591.1641,713.6719 591.5391,714.0703 Q591.9375,714.4453 591.9375,714.9609 Q591.9375,715.4766 591.4219,716.0859 Q590.6719,716.9531 589.4766,717.4453 Q587.8594,718.125 585.9141,718.125 Q583.6406,718.125 581.8359,717.1875 Q580.3594,716.4375 579.3281,714.8438 Q578.2969,713.2266 578.2969,711.3047 L578.2969,709.5703 Q578.2969,707.5781 579.2109,705.8672 Q580.1484,704.1328 581.7891,703.2188 Q583.4297,702.2813 585.2813,702.2813 Q586.3828,702.2813 587.3438,702.5391 Q588.3281,702.7734 589.1484,703.3125 Z "/><text fill="#000000" font-family="sans-serif" font-size="18" lengthAdjust="spacingAndGlyphs" textLength="67.5" x="606" y="716.8652">Guerrier</text><line style="stroke: #A80036; stroke-width: 2.25;" x1="564" x2="676.5" y1="733.5" y2="733.5"/><line style="stroke: #A80036; stroke-width: 2.25;" x1="564" x2="676.5" y1="745.5" y2="745.5"/><!--MD5=[eb8d405af43fb8d97dec3efb6729fc92]
class Voleur--><rect fill="#FEFECE" filter="url(#f199je4p9m3ule)" height="72" id="Voleur" style="stroke: #A80036; stroke-width: 2.25;" width="100.5" x="730.5" y="685.5"/><ellipse cx="753" cy="709.5" fill="#ADD1B2" rx="16.5" ry="16.5" style="stroke: #A80036; stroke-width: 1.5;"/><path d="M757.1484,703.3125 Q757.3828,702.9844 757.6641,702.8203 Q757.9453,702.6563 758.2734,702.6563 Q758.8359,702.6563 759.1875,703.0547 Q759.5391,703.4297 759.5391,704.3438 L759.5391,706.5234 Q759.5391,707.4375 759.1875,707.8359 Q758.8359,708.2344 758.2734,708.2344 Q757.7578,708.2344 757.4531,707.9297 Q757.1484,707.6484 756.9844,706.875 Q756.9141,706.3359 756.6328,706.0547 Q756.1406,705.4922 755.2266,705.1641 Q754.3125,704.8359 753.375,704.8359 Q752.2266,704.8359 751.2656,705.3281 Q750.3281,705.8203 749.5781,706.9453 Q748.8516,708.0703 748.8516,709.6172 L748.8516,711.2578 Q748.8516,713.1094 750.1875,714.3516 Q751.5234,715.5703 753.9141,715.5703 Q755.3203,715.5703 756.3047,715.1953 Q756.8906,714.9609 757.5234,714.3047 Q757.9219,713.9063 758.1328,713.7891 Q758.3672,713.6719 758.6719,713.6719 Q759.1641,713.6719 759.5391,714.0703 Q759.9375,714.4453 759.9375,714.9609 Q759.9375,715.4766 759.4219,716.0859 Q758.6719,716.9531 757.4766,717.4453 Q755.8594,718.125 753.9141,718.125 Q751.6406,718.125 749.8359,717.1875 Q748.3594,716.4375 747.3281,714.8438 Q746.2969,713.2266 746.2969,711.3047 L746.2969,709.5703 Q746.2969,707.5781 747.2109,705.8672 Q748.1484,704.1328 749.7891,703.2188 Q751.4297,702.2813 753.2813,702.2813 Q754.3828,702.2813 755.3438,702.5391 Q756.3281,702.7734 757.1484,703.3125 Z "/><text fill="#000000" font-family="sans-serif" font-size="18" lengthAdjust="spacingAndGlyphs" textLength="52.5" x="774" y="716.8652">Voleur</text><line style="stroke: #A80036; stroke-width: 2.25;" x1="732" x2="829.5" y1="733.5" y2="733.5"/><line style="stroke: #A80036; stroke-width: 2.25;" x1="732" x2="829.5" y1="745.5" y2="745.5"/><!--MD5=[cdbc95a6c634c7489eae863ed87e4b8a]
link PersonnagesService to AbstractPersonnage--><path d="M400.941,506.25 C434.8395,506.25 469.149,506.25 500.2455,506.25 " fill="none" id="PersonnagesService-&gt;AbstractPersonnage" style="stroke: #A80036; stroke-width: 1.5; stroke-dasharray: 7.0,7.0;"/><polygon fill="#A80036" points="508.08,506.25,494.58,500.25,500.58,506.25,494.58,512.25,508.08,506.25" style="stroke: #A80036; stroke-width: 1.5;"/><text fill="#000000" font-family="sans-serif" font-size="19.5" lengthAdjust="spacingAndGlyphs" textLength="52.5" x="428.25" y="496.4927">«use»</text><!--MD5=[93a79229bf765a7dfde88363941e36ce]
reverse link Arme to PersonnagesService--><path d="M537.921,305.6895 C468.714,347.0385 369.831,406.119 297.774,449.1705 " fill="none" id="Arme&lt;-PersonnagesService" style="stroke: #A80036; stroke-width: 1.5; stroke-dasharray: 7.0,7.0;"/><polygon fill="#A80036" points="544.524,301.7445,529.8574,303.5165,538.0853,305.5906,536.0111,313.8185,544.524,301.7445" style="stroke: #A80036; stroke-width: 1.5;"/><text fill="#000000" font-family="sans-serif" font-size="19.5" lengthAdjust="spacingAndGlyphs" textLength="52.5" x="464.25" y="368.2427">«use»</text><!--MD5=[3b82180eeec5f96023e427a9bf75d398]
reverse link AbstractPersonnage to Statistique--><path d="M752.0025,506.25 C762.69,506.25 773.376,506.25 784.0635,506.25 " fill="none" id="AbstractPersonnage&lt;-Statistique" style="stroke: #A80036; stroke-width: 1.5;"/><polygon fill="#A80036" points="732.117,506.25,741.117,512.25,750.117,506.25,741.117,500.25,732.117,506.25" style="stroke: #A80036; stroke-width: 1.5;"/><text fill="#000000" font-family="sans-serif" font-size="19.5" lengthAdjust="spacingAndGlyphs" textLength="10.5" x="762.0662" y="501.1201">1</text><!--MD5=[5951fcc9cab7c3b67c828b2acc3e94ce]
reverse link Arme to AbstractPersonnage--><path d="M620.25,309.96 C620.25,345.825 620.25,393.4965 620.25,432.7005 " fill="none" id="Arme&lt;-AbstractPersonnage" style="stroke: #A80036; stroke-width: 1.5;"/><polygon fill="#A80036" points="620.25,302.0325,614.25,315.5325,620.25,309.5325,626.25,315.5325,620.25,302.0325" style="stroke: #A80036; stroke-width: 1.5;"/><text fill="#000000" font-family="sans-serif" font-size="19.5" lengthAdjust="spacingAndGlyphs" textLength="33" x="584.1047" y="333.602">0..1</text><!--MD5=[fc3f15368ad6ad0d671ea5d98b46b797]
reverse link AbstractEquipement to Arme--><path d="M706.089,141.7305 C688.8135,164.2245 670.4325,188.157 655.131,208.0815 " fill="none" id="AbstractEquipement&lt;-Arme" style="stroke: #A80036; stroke-width: 1.5;"/><polygon fill="none" points="698.301,134.6325,724.902,117.2355,714.9555,147.423,698.301,134.6325" style="stroke: #A80036; stroke-width: 1.5;"/><!--MD5=[372aead21d76fe4fc7325ef31f8647ae]
reverse link AbstractEquipement to Statistique--><path d="M782.4675,136.1145 C802.4025,212.8365 834.3735,335.883 855.8325,418.47 " fill="none" id="AbstractEquipement&lt;-Statistique" style="stroke: #A80036; stroke-width: 1.5;"/><polygon fill="#A80036" points="777.5505,117.189,774.006,127.4084,782.0761,134.6108,785.6205,124.3914,777.5505,117.189" style="stroke: #A80036; stroke-width: 1.5;"/><text fill="#000000" font-family="sans-serif" font-size="19.5" lengthAdjust="spacingAndGlyphs" textLength="10.5" x="841.7876" y="401.9449">1</text><!--MD5=[e3aa2855f43ce1a25917c87387861016]
reverse link AbstractPersonnage to Magicien--><path d="M542.94,603.708 C519.4635,632.8496 495.1545,663.0227 477.1815,685.3298 " fill="none" id="AbstractPersonnage&lt;-Magicien" style="stroke: #A80036; stroke-width: 1.5;"/><polygon fill="none" points="534.882,596.9745,561.8805,580.2015,551.235,610.1498,534.882,596.9745" style="stroke: #A80036; stroke-width: 1.5;"/><!--MD5=[7903440395d07a99cd7a8b599130ad07]
reverse link AbstractPersonnage to Guerrier--><path d="M620.25,610.2462 C620.25,637.3092 620.25,664.6874 620.25,685.3298 " fill="none" id="AbstractPersonnage&lt;-Guerrier" style="stroke: #A80036; stroke-width: 1.5;"/><polygon fill="none" points="609.75,610.2008,620.25,580.2015,630.75,610.2008,609.75,610.2008" style="stroke: #A80036; stroke-width: 1.5;"/><!--MD5=[cc7d698a2c7749f6fae0b4ff1e7ea3ed]
reverse link AbstractPersonnage to Voleur--><path d="M693.141,604.143 C715.0755,633.1497 737.748,663.1337 754.533,685.3298 " fill="none" id="AbstractPersonnage&lt;-Voleur" style="stroke: #A80036; stroke-width: 1.5;"/><polygon fill="none" points="684.756,610.4626,675.036,580.2015,701.5065,597.7965,684.756,610.4626" style="stroke: #A80036; stroke-width: 1.5;"/><!--MD5=[fa390da63138f7d920d945a9afa067f3]
@startuml
scale 1.5
abstract class AbstractPersonnage 	<<abstract>> {
	#_phrase_attaque : String 
	#_phrase_defense : String 
	+degats_attaque() float
    }
	 

abstract class AbstractEquipement <<abstract>> {
	#_nom : String
}
	 
class Statistique {
	 -__force : int
	 -__agilite : int
	 -__magie : int
	 -__defense : int
	 -__points_de_vie : int
}

class PersonnagesService {
	+attaquer() float
	+changer_arme(AbstractPersonnage,Arme) None
}

class Arme{
	#_base_attaque : int
}


AbstractPersonnage <.right. PersonnagesService : <<use>>
Arme <.. PersonnagesService : <<use>>



AbstractPersonnage *-right-"1" Statistique
Arme "0..1"<- - AbstractPersonnage
AbstractEquipement <|- - Arme
AbstractEquipement *-down-"1" Statistique

Magicien -up-|> AbstractPersonnage
Guerrier -up-|> AbstractPersonnage
Voleur -up-|> AbstractPersonnage

@enduml

PlantUML version 1.2020.10(Sun May 17 11:35:57 CEST 2020)
(GPL source distribution)
Java Runtime: OpenJDK Runtime Environment
JVM: OpenJDK 64-Bit Server VM
Java Version: 14+36
Operating System: Windows 10
Default Encoding: Cp1252
Language: fr
Country: FR
--></g></svg>