<?xml version="1.0" encoding="UTF-8" standalone="no"?><svg xmlns="http://www.w3.org/2000/svg" xmlns:xlink="http://www.w3.org/1999/xlink" contentScriptType="application/ecmascript" contentStyleType="text/css" height="619.5px" preserveAspectRatio="none" style="width:801px;height:619px;" version="1.1" viewBox="0 0 801 619" width="801px" zoomAndPan="magnify"><defs><filter height="300%" id="f16n5oesehqmq2" width="300%" x="-1" y="-1"><feGaussianBlur result="blurOut" stdDeviation="3.0"/><feColorMatrix in="blurOut" result="blurOut2" type="matrix" values="0 0 0 0 0 0 0 0 0 0 0 0 0 0 0 0 0 0 .4 0"/><feOffset dx="6.0" dy="6.0" in="blurOut2" result="blurOut3"/><feBlend in="SourceGraphic" in2="blurOut3" mode="normal"/></filter></defs><g><!--MD5=[82f78030d15708ad5ff33f19467d2e14]
class Personnage--><rect fill="#FEFECE" filter="url(#f16n5oesehqmq2)" height="134.2617" id="Personnage" style="stroke: #A80036; stroke-width: 2.25;" width="217.5" x="288" y="222"/><ellipse cx="340.875" cy="246" fill="#ADD1B2" rx="16.5" ry="16.5" style="stroke: #A80036; stroke-width: 1.5;"/><path d="M345.0234,239.8125 Q345.2578,239.4844 345.5391,239.3203 Q345.8203,239.1563 346.1484,239.1563 Q346.7109,239.1563 347.0625,239.5547 Q347.4141,239.9297 347.4141,240.8438 L347.4141,243.0234 Q347.4141,243.9375 347.0625,244.3359 Q346.7109,244.7344 346.1484,244.7344 Q345.6328,244.7344 345.3281,244.4297 Q345.0234,244.1484 344.8594,243.375 Q344.7891,242.8359 344.5078,242.5547 Q344.0156,241.9922 343.1016,241.6641 Q342.1875,241.3359 341.25,241.3359 Q340.1016,241.3359 339.1406,241.8281 Q338.2031,242.3203 337.4531,243.4453 Q336.7266,244.5703 336.7266,246.1172 L336.7266,247.7578 Q336.7266,249.6094 338.0625,250.8516 Q339.3984,252.0703 341.7891,252.0703 Q343.1953,252.0703 344.1797,251.6953 Q344.7656,251.4609 345.3984,250.8047 Q345.7969,250.4063 346.0078,250.2891 Q346.2422,250.1719 346.5469,250.1719 Q347.0391,250.1719 347.4141,250.5703 Q347.8125,250.9453 347.8125,251.4609 Q347.8125,251.9766 347.2969,252.5859 Q346.5469,253.4531 345.3516,253.9453 Q343.7344,254.625 341.7891,254.625 Q339.5156,254.625 337.7109,253.6875 Q336.2344,252.9375 335.2031,251.3438 Q334.1719,249.7266 334.1719,247.8047 L334.1719,246.0703 Q334.1719,244.0781 335.0859,242.3672 Q336.0234,240.6328 337.6641,239.7188 Q339.3047,238.7813 341.1563,238.7813 Q342.2578,238.7813 343.2188,239.0391 Q344.2031,239.2734 345.0234,239.8125 Z "/><text fill="#000000" font-family="sans-serif" font-size="18" lengthAdjust="spacingAndGlyphs" textLength="102" x="368.625" y="253.3652">Personnage</text><line style="stroke: #A80036; stroke-width: 2.25;" x1="289.5" x2="504" y1="270" y2="270"/><polygon fill="none" points="304.5,279,310.5,285,304.5,291,298.5,285" style="stroke: #B38D22; stroke-width: 1.5;"/><text fill="#000000" font-family="sans-serif" font-size="16.5" lengthAdjust="spacingAndGlyphs" textLength="94.5" x="318" y="293.1284">_nom : String</text><polygon fill="none" points="304.5,299.7539,310.5,305.7539,304.5,311.7539,298.5,305.7539" style="stroke: #B38D22; stroke-width: 1.5;"/><text fill="#000000" font-family="sans-serif" font-size="16.5" lengthAdjust="spacingAndGlyphs" textLength="178.5" x="318" y="313.8823">_phrase_attaque : String</text><polygon fill="none" points="304.5,320.5078,310.5,326.5078,304.5,332.5078,298.5,326.5078" style="stroke: #B38D22; stroke-width: 1.5;"/><text fill="#000000" font-family="sans-serif" font-size="16.5" lengthAdjust="spacingAndGlyphs" textLength="163.5" x="318" y="334.6362">_degat_attaque: String</text><line style="stroke: #A80036; stroke-width: 2.25;" x1="289.5" x2="504" y1="344.2617" y2="344.2617"/><!--MD5=[7e839c7f40ad33ee08f12d1385d34f55]
class PersonnagesService--><rect fill="#FEFECE" filter="url(#f16n5oesehqmq2)" height="92.7539" id="PersonnagesService" style="stroke: #A80036; stroke-width: 2.25;" width="220.5" x="286.5" y="12"/><ellipse cx="309" cy="36" fill="#ADD1B2" rx="16.5" ry="16.5" style="stroke: #A80036; stroke-width: 1.5;"/><path d="M313.1484,29.8125 Q313.3828,29.4844 313.6641,29.3203 Q313.9453,29.1563 314.2734,29.1563 Q314.8359,29.1563 315.1875,29.5547 Q315.5391,29.9297 315.5391,30.8438 L315.5391,33.0234 Q315.5391,33.9375 315.1875,34.3359 Q314.8359,34.7344 314.2734,34.7344 Q313.7578,34.7344 313.4531,34.4297 Q313.1484,34.1484 312.9844,33.375 Q312.9141,32.8359 312.6328,32.5547 Q312.1406,31.9922 311.2266,31.6641 Q310.3125,31.3359 309.375,31.3359 Q308.2266,31.3359 307.2656,31.8281 Q306.3281,32.3203 305.5781,33.4453 Q304.8516,34.5703 304.8516,36.1172 L304.8516,37.7578 Q304.8516,39.6094 306.1875,40.8516 Q307.5234,42.0703 309.9141,42.0703 Q311.3203,42.0703 312.3047,41.6953 Q312.8906,41.4609 313.5234,40.8047 Q313.9219,40.4063 314.1328,40.2891 Q314.3672,40.1719 314.6719,40.1719 Q315.1641,40.1719 315.5391,40.5703 Q315.9375,40.9453 315.9375,41.4609 Q315.9375,41.9766 315.4219,42.5859 Q314.6719,43.4531 313.4766,43.9453 Q311.8594,44.625 309.9141,44.625 Q307.6406,44.625 305.8359,43.6875 Q304.3594,42.9375 303.3281,41.3438 Q302.2969,39.7266 302.2969,37.8047 L302.2969,36.0703 Q302.2969,34.0781 303.2109,32.3672 Q304.1484,30.6328 305.7891,29.7188 Q307.4297,28.7813 309.2813,28.7813 Q310.3828,28.7813 311.3438,29.0391 Q312.3281,29.2734 313.1484,29.8125 Z "/><text fill="#000000" font-family="sans-serif" font-size="18" lengthAdjust="spacingAndGlyphs" textLength="172.5" x="330" y="43.3652">PersonnagesService</text><line style="stroke: #A80036; stroke-width: 2.25;" x1="288" x2="505.5" y1="60" y2="60"/><line style="stroke: #A80036; stroke-width: 2.25;" x1="288" x2="505.5" y1="72" y2="72"/><ellipse cx="303" cy="88.5" fill="#84BE84" rx="4.5" ry="4.5" style="stroke: #038048; stroke-width: 1.5;"/><text fill="#000000" font-family="sans-serif" font-size="16.5" lengthAdjust="spacingAndGlyphs" textLength="112.5" x="316.5" y="95.1284">attaque() String</text><!--MD5=[6b455bb8407ccb98ad4b82c422822b44]
class Magicien--><rect fill="#FEFECE" filter="url(#f16n5oesehqmq2)" height="155.0156" id="Magicien" style="stroke: #A80036; stroke-width: 2.25;" width="223.5" x="9" y="448.5"/><ellipse cx="77.625" cy="472.5" fill="#ADD1B2" rx="16.5" ry="16.5" style="stroke: #A80036; stroke-width: 1.5;"/><path d="M81.7734,466.3125 Q82.0078,465.9844 82.2891,465.8203 Q82.5703,465.6563 82.8984,465.6563 Q83.4609,465.6563 83.8125,466.0547 Q84.1641,466.4297 84.1641,467.3438 L84.1641,469.5234 Q84.1641,470.4375 83.8125,470.8359 Q83.4609,471.2344 82.8984,471.2344 Q82.3828,471.2344 82.0781,470.9297 Q81.7734,470.6484 81.6094,469.875 Q81.5391,469.3359 81.2578,469.0547 Q80.7656,468.4922 79.8516,468.1641 Q78.9375,467.8359 78,467.8359 Q76.8516,467.8359 75.8906,468.3281 Q74.9531,468.8203 74.2031,469.9453 Q73.4766,471.0703 73.4766,472.6172 L73.4766,474.2578 Q73.4766,476.1094 74.8125,477.3516 Q76.1484,478.5703 78.5391,478.5703 Q79.9453,478.5703 80.9297,478.1953 Q81.5156,477.9609 82.1484,477.3047 Q82.5469,476.9063 82.7578,476.7891 Q82.9922,476.6719 83.2969,476.6719 Q83.7891,476.6719 84.1641,477.0703 Q84.5625,477.4453 84.5625,477.9609 Q84.5625,478.4766 84.0469,479.0859 Q83.2969,479.9531 82.1016,480.4453 Q80.4844,481.125 78.5391,481.125 Q76.2656,481.125 74.4609,480.1875 Q72.9844,479.4375 71.9531,477.8438 Q70.9219,476.2266 70.9219,474.3047 L70.9219,472.5703 Q70.9219,470.5781 71.8359,468.8672 Q72.7734,467.1328 74.4141,466.2188 Q76.0547,465.2813 77.9063,465.2813 Q79.0078,465.2813 79.9688,465.5391 Q80.9531,465.7734 81.7734,466.3125 Z "/><text fill="#000000" font-family="sans-serif" font-size="18" lengthAdjust="spacingAndGlyphs" textLength="73.5" x="108.375" y="479.8652">Magicien</text><line style="stroke: #A80036; stroke-width: 2.25;" x1="10.5" x2="231" y1="496.5" y2="496.5"/><polygon fill="none" points="25.5,505.5,31.5,511.5,25.5,517.5,19.5,511.5" style="stroke: #B38D22; stroke-width: 1.5;"/><text fill="#000000" font-family="sans-serif" font-size="16.5" lengthAdjust="spacingAndGlyphs" textLength="94.5" x="39" y="519.6284">_nom : String</text><polygon fill="none" points="25.5,526.2539,31.5,532.2539,25.5,538.2539,19.5,532.2539" style="stroke: #B38D22; stroke-width: 1.5;"/><text fill="#000000" font-family="sans-serif" font-size="16.5" lengthAdjust="spacingAndGlyphs" textLength="178.5" x="39" y="540.3823">_phrase_attaque : String</text><polygon fill="none" points="25.5,547.0078,31.5,553.0078,25.5,559.0078,19.5,553.0078" style="stroke: #B38D22; stroke-width: 1.5;"/><text fill="#000000" font-family="sans-serif" font-size="16.5" lengthAdjust="spacingAndGlyphs" textLength="184.5" x="39" y="561.1362">_phrase_defense : String</text><line style="stroke: #A80036; stroke-width: 2.25;" x1="10.5" x2="231" y1="570.7617" y2="570.7617"/><ellipse cx="25.5" cy="587.2617" fill="#84BE84" rx="4.5" ry="4.5" style="stroke: #038048; stroke-width: 1.5;"/><text fill="#000000" font-family="sans-serif" font-size="16.5" lengthAdjust="spacingAndGlyphs" textLength="160.5" x="39" y="593.8901">degats_attaque() float</text><!--MD5=[8b767dff77bbacea0d3f910cfdc225b7]
class Guerrier--><rect fill="#FEFECE" filter="url(#f16n5oesehqmq2)" height="155.0156" id="Guerrier" style="stroke: #A80036; stroke-width: 2.25;" width="223.5" x="285" y="448.5"/><ellipse cx="356.625" cy="472.5" fill="#ADD1B2" rx="16.5" ry="16.5" style="stroke: #A80036; stroke-width: 1.5;"/><path d="M360.7734,466.3125 Q361.0078,465.9844 361.2891,465.8203 Q361.5703,465.6563 361.8984,465.6563 Q362.4609,465.6563 362.8125,466.0547 Q363.1641,466.4297 363.1641,467.3438 L363.1641,469.5234 Q363.1641,470.4375 362.8125,470.8359 Q362.4609,471.2344 361.8984,471.2344 Q361.3828,471.2344 361.0781,470.9297 Q360.7734,470.6484 360.6094,469.875 Q360.5391,469.3359 360.2578,469.0547 Q359.7656,468.4922 358.8516,468.1641 Q357.9375,467.8359 357,467.8359 Q355.8516,467.8359 354.8906,468.3281 Q353.9531,468.8203 353.2031,469.9453 Q352.4766,471.0703 352.4766,472.6172 L352.4766,474.2578 Q352.4766,476.1094 353.8125,477.3516 Q355.1484,478.5703 357.5391,478.5703 Q358.9453,478.5703 359.9297,478.1953 Q360.5156,477.9609 361.1484,477.3047 Q361.5469,476.9063 361.7578,476.7891 Q361.9922,476.6719 362.2969,476.6719 Q362.7891,476.6719 363.1641,477.0703 Q363.5625,477.4453 363.5625,477.9609 Q363.5625,478.4766 363.0469,479.0859 Q362.2969,479.9531 361.1016,480.4453 Q359.4844,481.125 357.5391,481.125 Q355.2656,481.125 353.4609,480.1875 Q351.9844,479.4375 350.9531,477.8438 Q349.9219,476.2266 349.9219,474.3047 L349.9219,472.5703 Q349.9219,470.5781 350.8359,468.8672 Q351.7734,467.1328 353.4141,466.2188 Q355.0547,465.2813 356.9063,465.2813 Q358.0078,465.2813 358.9688,465.5391 Q359.9531,465.7734 360.7734,466.3125 Z "/><text fill="#000000" font-family="sans-serif" font-size="18" lengthAdjust="spacingAndGlyphs" textLength="67.5" x="387.375" y="479.8652">Guerrier</text><line style="stroke: #A80036; stroke-width: 2.25;" x1="286.5" x2="507" y1="496.5" y2="496.5"/><polygon fill="none" points="301.5,505.5,307.5,511.5,301.5,517.5,295.5,511.5" style="stroke: #B38D22; stroke-width: 1.5;"/><text fill="#000000" font-family="sans-serif" font-size="16.5" lengthAdjust="spacingAndGlyphs" textLength="94.5" x="315" y="519.6284">_nom : String</text><polygon fill="none" points="301.5,526.2539,307.5,532.2539,301.5,538.2539,295.5,532.2539" style="stroke: #B38D22; stroke-width: 1.5;"/><text fill="#000000" font-family="sans-serif" font-size="16.5" lengthAdjust="spacingAndGlyphs" textLength="178.5" x="315" y="540.3823">_phrase_attaque : String</text><polygon fill="none" points="301.5,547.0078,307.5,553.0078,301.5,559.0078,295.5,553.0078" style="stroke: #B38D22; stroke-width: 1.5;"/><text fill="#000000" font-family="sans-serif" font-size="16.5" lengthAdjust="spacingAndGlyphs" textLength="184.5" x="315" y="561.1362">_phrase_defense : String</text><line style="stroke: #A80036; stroke-width: 2.25;" x1="286.5" x2="507" y1="570.7617" y2="570.7617"/><ellipse cx="301.5" cy="587.2617" fill="#84BE84" rx="4.5" ry="4.5" style="stroke: #038048; stroke-width: 1.5;"/><text fill="#000000" font-family="sans-serif" font-size="16.5" lengthAdjust="spacingAndGlyphs" textLength="160.5" x="315" y="593.8901">degats_attaque() float</text><!--MD5=[eb8d405af43fb8d97dec3efb6729fc92]
class Voleur--><rect fill="#FEFECE" filter="url(#f16n5oesehqmq2)" height="155.0156" id="Voleur" style="stroke: #A80036; stroke-width: 2.25;" width="223.5" x="561" y="448.5"/><ellipse cx="640.125" cy="472.5" fill="#ADD1B2" rx="16.5" ry="16.5" style="stroke: #A80036; stroke-width: 1.5;"/><path d="M644.2734,466.3125 Q644.5078,465.9844 644.7891,465.8203 Q645.0703,465.6563 645.3984,465.6563 Q645.9609,465.6563 646.3125,466.0547 Q646.6641,466.4297 646.6641,467.3438 L646.6641,469.5234 Q646.6641,470.4375 646.3125,470.8359 Q645.9609,471.2344 645.3984,471.2344 Q644.8828,471.2344 644.5781,470.9297 Q644.2734,470.6484 644.1094,469.875 Q644.0391,469.3359 643.7578,469.0547 Q643.2656,468.4922 642.3516,468.1641 Q641.4375,467.8359 640.5,467.8359 Q639.3516,467.8359 638.3906,468.3281 Q637.4531,468.8203 636.7031,469.9453 Q635.9766,471.0703 635.9766,472.6172 L635.9766,474.2578 Q635.9766,476.1094 637.3125,477.3516 Q638.6484,478.5703 641.0391,478.5703 Q642.4453,478.5703 643.4297,478.1953 Q644.0156,477.9609 644.6484,477.3047 Q645.0469,476.9063 645.2578,476.7891 Q645.4922,476.6719 645.7969,476.6719 Q646.2891,476.6719 646.6641,477.0703 Q647.0625,477.4453 647.0625,477.9609 Q647.0625,478.4766 646.5469,479.0859 Q645.7969,479.9531 644.6016,480.4453 Q642.9844,481.125 641.0391,481.125 Q638.7656,481.125 636.9609,480.1875 Q635.4844,479.4375 634.4531,477.8438 Q633.4219,476.2266 633.4219,474.3047 L633.4219,472.5703 Q633.4219,470.5781 634.3359,468.8672 Q635.2734,467.1328 636.9141,466.2188 Q638.5547,465.2813 640.4063,465.2813 Q641.5078,465.2813 642.4688,465.5391 Q643.4531,465.7734 644.2734,466.3125 Z "/><text fill="#000000" font-family="sans-serif" font-size="18" lengthAdjust="spacingAndGlyphs" textLength="52.5" x="670.875" y="479.8652">Voleur</text><line style="stroke: #A80036; stroke-width: 2.25;" x1="562.5" x2="783" y1="496.5" y2="496.5"/><polygon fill="none" points="577.5,505.5,583.5,511.5,577.5,517.5,571.5,511.5" style="stroke: #B38D22; stroke-width: 1.5;"/><text fill="#000000" font-family="sans-serif" font-size="16.5" lengthAdjust="spacingAndGlyphs" textLength="94.5" x="591" y="519.6284">_nom : String</text><polygon fill="none" points="577.5,526.2539,583.5,532.2539,577.5,538.2539,571.5,532.2539" style="stroke: #B38D22; stroke-width: 1.5;"/><text fill="#000000" font-family="sans-serif" font-size="16.5" lengthAdjust="spacingAndGlyphs" textLength="178.5" x="591" y="540.3823">_phrase_attaque : String</text><polygon fill="none" points="577.5,547.0078,583.5,553.0078,577.5,559.0078,571.5,553.0078" style="stroke: #B38D22; stroke-width: 1.5;"/><text fill="#000000" font-family="sans-serif" font-size="16.5" lengthAdjust="spacingAndGlyphs" textLength="184.5" x="591" y="561.1362">_phrase_defense : String</text><line style="stroke: #A80036; stroke-width: 2.25;" x1="562.5" x2="783" y1="570.7617" y2="570.7617"/><ellipse cx="577.5" cy="587.2617" fill="#84BE84" rx="4.5" ry="4.5" style="stroke: #038048; stroke-width: 1.5;"/><text fill="#000000" font-family="sans-serif" font-size="16.5" lengthAdjust="spacingAndGlyphs" textLength="160.5" x="591" y="593.8901">degats_attaque() float</text><!--MD5=[3236cb67c3e05d64258cefeca6823ee1]
link PersonnagesService to Personnage--><path d="M396.75,105.045 C396.75,136.1835 396.75,178.3155 396.75,214.299 " fill="none" id="PersonnagesService-&gt;Personnage" style="stroke: #A80036; stroke-width: 1.5; stroke-dasharray: 7.0,7.0;"/><polygon fill="#A80036" points="396.75,221.8785,402.75,208.3785,396.75,214.3785,390.75,208.3785,396.75,221.8785" style="stroke: #A80036; stroke-width: 1.5;"/><text fill="#000000" font-family="sans-serif" font-size="19.5" lengthAdjust="spacingAndGlyphs" textLength="52.5" x="398.25" y="171.7427">«use»</text><!--MD5=[4d5e41878f29d4ff72955b7d54f27664]
reverse link Personnage to Magicien--><path d="M295.182,376.836 C267.423,400.296 237.5445,425.5455 210.4965,448.404 " fill="none" id="Personnage&lt;-Magicien" style="stroke: #A80036; stroke-width: 1.5;"/><polygon fill="none" points="288.7065,368.5605,318.3975,357.216,302.262,384.6,288.7065,368.5605" style="stroke: #A80036; stroke-width: 1.5;"/><!--MD5=[c89be112b1e2fb365abb0d7e9384ebc3]
reverse link Personnage to Guerrier--><path d="M396.75,387.9135 C396.75,408.105 396.75,429.1065 396.75,448.404 " fill="none" id="Personnage&lt;-Guerrier" style="stroke: #A80036; stroke-width: 1.5;"/><polygon fill="none" points="386.25,387.216,396.75,357.216,407.25,387.216,386.25,387.216" style="stroke: #A80036; stroke-width: 1.5;"/><!--MD5=[faf818d6918e30d1f4a0244470361e52]
reverse link Personnage to Voleur--><path d="M498.318,376.836 C526.077,400.296 555.9555,425.5455 583.0035,448.404 " fill="none" id="Personnage&lt;-Voleur" style="stroke: #A80036; stroke-width: 1.5;"/><polygon fill="none" points="491.238,384.6,475.1025,357.216,504.7935,368.5605,491.238,384.6" style="stroke: #A80036; stroke-width: 1.5;"/><!--MD5=[56d64c72f9b7f5eb247b0d976125e457]
@startuml
scale 1.5

class Personnage {
	#_nom : String
	#_phrase_attaque : String
	#_degat_attaque: String
	}

class PersonnagesService {
	+attaque() String
}

class Magicien {
	#_nom : String
	#_phrase_attaque : String
	#_phrase_defense : String
	+degats_attaque() float    
}

class Guerrier {
	#_nom : String
	#_phrase_attaque : String
	#_phrase_defense : String
	+degats_attaque() float    
}

class Voleur {
	#_nom : String
	#_phrase_attaque : String
	#_phrase_defense : String
	+degats_attaque() float    
}

PersonnagesService ..> Personnage : <<use>>
Personnage <|- - Magicien
Personnage <|- - Guerrier
Personnage <|- - Voleur
@enduml

PlantUML version 1.2020.10(Sun May 17 11:35:57 CEST 2020)
(GPL source distribution)
Java Runtime: OpenJDK Runtime Environment
JVM: OpenJDK 64-Bit Server VM
Java Version: 14+36
Operating System: Windows 10
Default Encoding: Cp1252
Language: fr
Country: FR
--></g></svg>