<?xml version="1.0" encoding="UTF-8" standalone="no"?><svg xmlns="http://www.w3.org/2000/svg" xmlns:xlink="http://www.w3.org/1999/xlink" contentScriptType="application/ecmascript" contentStyleType="text/css" height="639px" preserveAspectRatio="none" style="width:801px;height:639px;" version="1.1" viewBox="0 0 801 639" width="801px" zoomAndPan="magnify"><defs><filter height="300%" id="fyyurgi3ll7sp" width="300%" x="-1" y="-1"><feGaussianBlur result="blurOut" stdDeviation="3.0"/><feColorMatrix in="blurOut" result="blurOut2" type="matrix" values="0 0 0 0 0 0 0 0 0 0 0 0 0 0 0 0 0 0 .4 0"/><feOffset dx="6.0" dy="6.0" in="blurOut2" result="blurOut3"/><feBlend in="SourceGraphic" in2="blurOut3" mode="normal"/></filter></defs><g><!--MD5=[82f78030d15708ad5ff33f19467d2e14]
class Personnage--><rect fill="#FEFECE" filter="url(#fyyurgi3ll7sp)" height="155.0156" id="Personnage" style="stroke: #A80036; stroke-width: 2.25;" width="223.5" x="285" y="222"/><ellipse cx="340.575" cy="246" fill="#ADD1B2" rx="16.5" ry="16.5" style="stroke: #A80036; stroke-width: 1.5;"/><path d="M344.7234,239.8125 Q344.9578,239.4844 345.2391,239.3203 Q345.5203,239.1563 345.8484,239.1563 Q346.4109,239.1563 346.7625,239.5547 Q347.1141,239.9297 347.1141,240.8438 L347.1141,243.0234 Q347.1141,243.9375 346.7625,244.3359 Q346.4109,244.7344 345.8484,244.7344 Q345.3328,244.7344 345.0281,244.4297 Q344.7234,244.1484 344.5594,243.375 Q344.4891,242.8359 344.2078,242.5547 Q343.7156,241.9922 342.8016,241.6641 Q341.8875,241.3359 340.95,241.3359 Q339.8016,241.3359 338.8406,241.8281 Q337.9031,242.3203 337.1531,243.4453 Q336.4266,244.5703 336.4266,246.1172 L336.4266,247.7578 Q336.4266,249.6094 337.7625,250.8516 Q339.0984,252.0703 341.4891,252.0703 Q342.8953,252.0703 343.8797,251.6953 Q344.4656,251.4609 345.0984,250.8047 Q345.4969,250.4063 345.7078,250.2891 Q345.9422,250.1719 346.2469,250.1719 Q346.7391,250.1719 347.1141,250.5703 Q347.5125,250.9453 347.5125,251.4609 Q347.5125,251.9766 346.9969,252.5859 Q346.2469,253.4531 345.0516,253.9453 Q343.4344,254.625 341.4891,254.625 Q339.2156,254.625 337.4109,253.6875 Q335.9344,252.9375 334.9031,251.3438 Q333.8719,249.7266 333.8719,247.8047 L333.8719,246.0703 Q333.8719,244.0781 334.7859,242.3672 Q335.7234,240.6328 337.3641,239.7188 Q339.0047,238.7813 340.8563,238.7813 Q341.9578,238.7813 342.9188,239.0391 Q343.9031,239.2734 344.7234,239.8125 Z "/><text fill="#000000" font-family="sans-serif" font-size="18" lengthAdjust="spacingAndGlyphs" textLength="102" x="368.925" y="253.3652">Personnage</text><line style="stroke: #A80036; stroke-width: 2.25;" x1="286.5" x2="507" y1="270" y2="270"/><polygon fill="none" points="301.5,279,307.5,285,301.5,291,295.5,285" style="stroke: #B38D22; stroke-width: 1.5;"/><text fill="#000000" font-family="sans-serif" font-size="16.5" lengthAdjust="spacingAndGlyphs" textLength="94.5" x="315" y="293.1284">_nom : String</text><polygon fill="none" points="301.5,299.7539,307.5,305.7539,301.5,311.7539,295.5,305.7539" style="stroke: #B38D22; stroke-width: 1.5;"/><text fill="#000000" font-family="sans-serif" font-size="16.5" lengthAdjust="spacingAndGlyphs" textLength="178.5" x="315" y="313.8823">_phrase_attaque : String</text><polygon fill="none" points="301.5,320.5078,307.5,326.5078,301.5,332.5078,295.5,326.5078" style="stroke: #B38D22; stroke-width: 1.5;"/><text fill="#000000" font-family="sans-serif" font-size="16.5" lengthAdjust="spacingAndGlyphs" textLength="184.5" x="315" y="334.6362">_phrase_defense : String</text><line style="stroke: #A80036; stroke-width: 2.25;" x1="286.5" x2="507" y1="344.2617" y2="344.2617"/><ellipse cx="301.5" cy="360.7617" fill="#84BE84" rx="4.5" ry="4.5" style="stroke: #038048; stroke-width: 1.5;"/><text fill="#000000" font-family="sans-serif" font-size="16.5" lengthAdjust="spacingAndGlyphs" textLength="160.5" x="315" y="367.3901">degats_attaque() float</text><!--MD5=[7e839c7f40ad33ee08f12d1385d34f55]
class PersonnagesService--><rect fill="#FEFECE" filter="url(#fyyurgi3ll7sp)" height="92.7539" id="PersonnagesService" style="stroke: #A80036; stroke-width: 2.25;" width="220.5" x="286.5" y="12"/><ellipse cx="309" cy="36" fill="#ADD1B2" rx="16.5" ry="16.5" style="stroke: #A80036; stroke-width: 1.5;"/><path d="M313.1484,29.8125 Q313.3828,29.4844 313.6641,29.3203 Q313.9453,29.1563 314.2734,29.1563 Q314.8359,29.1563 315.1875,29.5547 Q315.5391,29.9297 315.5391,30.8438 L315.5391,33.0234 Q315.5391,33.9375 315.1875,34.3359 Q314.8359,34.7344 314.2734,34.7344 Q313.7578,34.7344 313.4531,34.4297 Q313.1484,34.1484 312.9844,33.375 Q312.9141,32.8359 312.6328,32.5547 Q312.1406,31.9922 311.2266,31.6641 Q310.3125,31.3359 309.375,31.3359 Q308.2266,31.3359 307.2656,31.8281 Q306.3281,32.3203 305.5781,33.4453 Q304.8516,34.5703 304.8516,36.1172 L304.8516,37.7578 Q304.8516,39.6094 306.1875,40.8516 Q307.5234,42.0703 309.9141,42.0703 Q311.3203,42.0703 312.3047,41.6953 Q312.8906,41.4609 313.5234,40.8047 Q313.9219,40.4063 314.1328,40.2891 Q314.3672,40.1719 314.6719,40.1719 Q315.1641,40.1719 315.5391,40.5703 Q315.9375,40.9453 315.9375,41.4609 Q315.9375,41.9766 315.4219,42.5859 Q314.6719,43.4531 313.4766,43.9453 Q311.8594,44.625 309.9141,44.625 Q307.6406,44.625 305.8359,43.6875 Q304.3594,42.9375 303.3281,41.3438 Q302.2969,39.7266 302.2969,37.8047 L302.2969,36.0703 Q302.2969,34.0781 303.2109,32.3672 Q304.1484,30.6328 305.7891,29.7188 Q307.4297,28.7813 309.2813,28.7813 Q310.3828,28.7813 311.3438,29.0391 Q312.3281,29.2734 313.1484,29.8125 Z "/><text fill="#000000" font-family="sans-serif" font-size="18" lengthAdjust="spacingAndGlyphs" textLength="172.5" x="330" y="43.3652">PersonnagesService</text><line style="stroke: #A80036; stroke-width: 2.25;" x1="288" x2="505.5" y1="60" y2="60"/><line style="stroke: #A80036; stroke-width: 2.25;" x1="288" x2="505.5" y1="72" y2="72"/><ellipse cx="303" cy="88.5" fill="#84BE84" rx="4.5" ry="4.5" style="stroke: #038048; stroke-width: 1.5;"/><text fill="#000000" font-family="sans-serif" font-size="16.5" lengthAdjust="spacingAndGlyphs" textLength="112.5" x="316.5" y="95.1284">attaque() String</text><!--MD5=[6b455bb8407ccb98ad4b82c422822b44]
class Magicien--><rect fill="#FEFECE" filter="url(#fyyurgi3ll7sp)" height="155.0156" id="Magicien" style="stroke: #A80036; stroke-width: 2.25;" width="223.5" x="9" y="468"/><ellipse cx="77.625" cy="492" fill="#ADD1B2" rx="16.5" ry="16.5" style="stroke: #A80036; stroke-width: 1.5;"/><path d="M81.7734,485.8125 Q82.0078,485.4844 82.2891,485.3203 Q82.5703,485.1563 82.8984,485.1563 Q83.4609,485.1563 83.8125,485.5547 Q84.1641,485.9297 84.1641,486.8438 L84.1641,489.0234 Q84.1641,489.9375 83.8125,490.3359 Q83.4609,490.7344 82.8984,490.7344 Q82.3828,490.7344 82.0781,490.4297 Q81.7734,490.1484 81.6094,489.375 Q81.5391,488.8359 81.2578,488.5547 Q80.7656,487.9922 79.8516,487.6641 Q78.9375,487.3359 78,487.3359 Q76.8516,487.3359 75.8906,487.8281 Q74.9531,488.3203 74.2031,489.4453 Q73.4766,490.5703 73.4766,492.1172 L73.4766,493.7578 Q73.4766,495.6094 74.8125,496.8516 Q76.1484,498.0703 78.5391,498.0703 Q79.9453,498.0703 80.9297,497.6953 Q81.5156,497.4609 82.1484,496.8047 Q82.5469,496.4063 82.7578,496.2891 Q82.9922,496.1719 83.2969,496.1719 Q83.7891,496.1719 84.1641,496.5703 Q84.5625,496.9453 84.5625,497.4609 Q84.5625,497.9766 84.0469,498.5859 Q83.2969,499.4531 82.1016,499.9453 Q80.4844,500.625 78.5391,500.625 Q76.2656,500.625 74.4609,499.6875 Q72.9844,498.9375 71.9531,497.3438 Q70.9219,495.7266 70.9219,493.8047 L70.9219,492.0703 Q70.9219,490.0781 71.8359,488.3672 Q72.7734,486.6328 74.4141,485.7188 Q76.0547,484.7813 77.9063,484.7813 Q79.0078,484.7813 79.9688,485.0391 Q80.9531,485.2734 81.7734,485.8125 Z "/><text fill="#000000" font-family="sans-serif" font-size="18" lengthAdjust="spacingAndGlyphs" textLength="73.5" x="108.375" y="499.3652">Magicien</text><line style="stroke: #A80036; stroke-width: 2.25;" x1="10.5" x2="231" y1="516" y2="516"/><polygon fill="none" points="25.5,525,31.5,531,25.5,537,19.5,531" style="stroke: #B38D22; stroke-width: 1.5;"/><text fill="#000000" font-family="sans-serif" font-size="16.5" lengthAdjust="spacingAndGlyphs" textLength="94.5" x="39" y="539.1284">_nom : String</text><polygon fill="none" points="25.5,545.7539,31.5,551.7539,25.5,557.7539,19.5,551.7539" style="stroke: #B38D22; stroke-width: 1.5;"/><text fill="#000000" font-family="sans-serif" font-size="16.5" lengthAdjust="spacingAndGlyphs" textLength="178.5" x="39" y="559.8823">_phrase_attaque : String</text><polygon fill="none" points="25.5,566.5078,31.5,572.5078,25.5,578.5078,19.5,572.5078" style="stroke: #B38D22; stroke-width: 1.5;"/><text fill="#000000" font-family="sans-serif" font-size="16.5" lengthAdjust="spacingAndGlyphs" textLength="184.5" x="39" y="580.6362">_phrase_defense : String</text><line style="stroke: #A80036; stroke-width: 2.25;" x1="10.5" x2="231" y1="590.2617" y2="590.2617"/><ellipse cx="25.5" cy="606.7617" fill="#84BE84" rx="4.5" ry="4.5" style="stroke: #038048; stroke-width: 1.5;"/><text fill="#000000" font-family="sans-serif" font-size="16.5" lengthAdjust="spacingAndGlyphs" textLength="160.5" x="39" y="613.3901">degats_attaque() float</text><!--MD5=[8b767dff77bbacea0d3f910cfdc225b7]
class Guerrier--><rect fill="#FEFECE" filter="url(#fyyurgi3ll7sp)" height="155.0156" id="Guerrier" style="stroke: #A80036; stroke-width: 2.25;" width="223.5" x="285" y="468"/><ellipse cx="356.625" cy="492" fill="#ADD1B2" rx="16.5" ry="16.5" style="stroke: #A80036; stroke-width: 1.5;"/><path d="M360.7734,485.8125 Q361.0078,485.4844 361.2891,485.3203 Q361.5703,485.1563 361.8984,485.1563 Q362.4609,485.1563 362.8125,485.5547 Q363.1641,485.9297 363.1641,486.8438 L363.1641,489.0234 Q363.1641,489.9375 362.8125,490.3359 Q362.4609,490.7344 361.8984,490.7344 Q361.3828,490.7344 361.0781,490.4297 Q360.7734,490.1484 360.6094,489.375 Q360.5391,488.8359 360.2578,488.5547 Q359.7656,487.9922 358.8516,487.6641 Q357.9375,487.3359 357,487.3359 Q355.8516,487.3359 354.8906,487.8281 Q353.9531,488.3203 353.2031,489.4453 Q352.4766,490.5703 352.4766,492.1172 L352.4766,493.7578 Q352.4766,495.6094 353.8125,496.8516 Q355.1484,498.0703 357.5391,498.0703 Q358.9453,498.0703 359.9297,497.6953 Q360.5156,497.4609 361.1484,496.8047 Q361.5469,496.4063 361.7578,496.2891 Q361.9922,496.1719 362.2969,496.1719 Q362.7891,496.1719 363.1641,496.5703 Q363.5625,496.9453 363.5625,497.4609 Q363.5625,497.9766 363.0469,498.5859 Q362.2969,499.4531 361.1016,499.9453 Q359.4844,500.625 357.5391,500.625 Q355.2656,500.625 353.4609,499.6875 Q351.9844,498.9375 350.9531,497.3438 Q349.9219,495.7266 349.9219,493.8047 L349.9219,492.0703 Q349.9219,490.0781 350.8359,488.3672 Q351.7734,486.6328 353.4141,485.7188 Q355.0547,484.7813 356.9063,484.7813 Q358.0078,484.7813 358.9688,485.0391 Q359.9531,485.2734 360.7734,485.8125 Z "/><text fill="#000000" font-family="sans-serif" font-size="18" lengthAdjust="spacingAndGlyphs" textLength="67.5" x="387.375" y="499.3652">Guerrier</text><line style="stroke: #A80036; stroke-width: 2.25;" x1="286.5" x2="507" y1="516" y2="516"/><polygon fill="none" points="301.5,525,307.5,531,301.5,537,295.5,531" style="stroke: #B38D22; stroke-width: 1.5;"/><text fill="#000000" font-family="sans-serif" font-size="16.5" lengthAdjust="spacingAndGlyphs" textLength="94.5" x="315" y="539.1284">_nom : String</text><polygon fill="none" points="301.5,545.7539,307.5,551.7539,301.5,557.7539,295.5,551.7539" style="stroke: #B38D22; stroke-width: 1.5;"/><text fill="#000000" font-family="sans-serif" font-size="16.5" lengthAdjust="spacingAndGlyphs" textLength="178.5" x="315" y="559.8823">_phrase_attaque : String</text><polygon fill="none" points="301.5,566.5078,307.5,572.5078,301.5,578.5078,295.5,572.5078" style="stroke: #B38D22; stroke-width: 1.5;"/><text fill="#000000" font-family="sans-serif" font-size="16.5" lengthAdjust="spacingAndGlyphs" textLength="184.5" x="315" y="580.6362">_phrase_defense : String</text><line style="stroke: #A80036; stroke-width: 2.25;" x1="286.5" x2="507" y1="590.2617" y2="590.2617"/><ellipse cx="301.5" cy="606.7617" fill="#84BE84" rx="4.5" ry="4.5" style="stroke: #038048; stroke-width: 1.5;"/><text fill="#000000" font-family="sans-serif" font-size="16.5" lengthAdjust="spacingAndGlyphs" textLength="160.5" x="315" y="613.3901">degats_attaque() float</text><!--MD5=[eb8d405af43fb8d97dec3efb6729fc92]
class Voleur--><rect fill="#FEFECE" filter="url(#fyyurgi3ll7sp)" height="155.0156" id="Voleur" style="stroke: #A80036; stroke-width: 2.25;" width="223.5" x="561" y="468"/><ellipse cx="640.125" cy="492" fill="#ADD1B2" rx="16.5" ry="16.5" style="stroke: #A80036; stroke-width: 1.5;"/><path d="M644.2734,485.8125 Q644.5078,485.4844 644.7891,485.3203 Q645.0703,485.1563 645.3984,485.1563 Q645.9609,485.1563 646.3125,485.5547 Q646.6641,485.9297 646.6641,486.8438 L646.6641,489.0234 Q646.6641,489.9375 646.3125,490.3359 Q645.9609,490.7344 645.3984,490.7344 Q644.8828,490.7344 644.5781,490.4297 Q644.2734,490.1484 644.1094,489.375 Q644.0391,488.8359 643.7578,488.5547 Q643.2656,487.9922 642.3516,487.6641 Q641.4375,487.3359 640.5,487.3359 Q639.3516,487.3359 638.3906,487.8281 Q637.4531,488.3203 636.7031,489.4453 Q635.9766,490.5703 635.9766,492.1172 L635.9766,493.7578 Q635.9766,495.6094 637.3125,496.8516 Q638.6484,498.0703 641.0391,498.0703 Q642.4453,498.0703 643.4297,497.6953 Q644.0156,497.4609 644.6484,496.8047 Q645.0469,496.4063 645.2578,496.2891 Q645.4922,496.1719 645.7969,496.1719 Q646.2891,496.1719 646.6641,496.5703 Q647.0625,496.9453 647.0625,497.4609 Q647.0625,497.9766 646.5469,498.5859 Q645.7969,499.4531 644.6016,499.9453 Q642.9844,500.625 641.0391,500.625 Q638.7656,500.625 636.9609,499.6875 Q635.4844,498.9375 634.4531,497.3438 Q633.4219,495.7266 633.4219,493.8047 L633.4219,492.0703 Q633.4219,490.0781 634.3359,488.3672 Q635.2734,486.6328 636.9141,485.7188 Q638.5547,484.7813 640.4063,484.7813 Q641.5078,484.7813 642.4688,485.0391 Q643.4531,485.2734 644.2734,485.8125 Z "/><text fill="#000000" font-family="sans-serif" font-size="18" lengthAdjust="spacingAndGlyphs" textLength="52.5" x="670.875" y="499.3652">Voleur</text><line style="stroke: #A80036; stroke-width: 2.25;" x1="562.5" x2="783" y1="516" y2="516"/><polygon fill="none" points="577.5,525,583.5,531,577.5,537,571.5,531" style="stroke: #B38D22; stroke-width: 1.5;"/><text fill="#000000" font-family="sans-serif" font-size="16.5" lengthAdjust="spacingAndGlyphs" textLength="94.5" x="591" y="539.1284">_nom : String</text><polygon fill="none" points="577.5,545.7539,583.5,551.7539,577.5,557.7539,571.5,551.7539" style="stroke: #B38D22; stroke-width: 1.5;"/><text fill="#000000" font-family="sans-serif" font-size="16.5" lengthAdjust="spacingAndGlyphs" textLength="178.5" x="591" y="559.8823">_phrase_attaque : String</text><polygon fill="none" points="577.5,566.5078,583.5,572.5078,577.5,578.5078,571.5,572.5078" style="stroke: #B38D22; stroke-width: 1.5;"/><text fill="#000000" font-family="sans-serif" font-size="16.5" lengthAdjust="spacingAndGlyphs" textLength="184.5" x="591" y="580.6362">_phrase_defense : String</text><line style="stroke: #A80036; stroke-width: 2.25;" x1="562.5" x2="783" y1="590.2617" y2="590.2617"/><ellipse cx="577.5" cy="606.7617" fill="#84BE84" rx="4.5" ry="4.5" style="stroke: #038048; stroke-width: 1.5;"/><text fill="#000000" font-family="sans-serif" font-size="16.5" lengthAdjust="spacingAndGlyphs" textLength="160.5" x="591" y="613.3901">degats_attaque() float</text><!--MD5=[3236cb67c3e05d64258cefeca6823ee1]
link PersonnagesService to Personnage--><path d="M396.75,105.279 C396.75,135.969 396.75,177.45 396.75,214.044 " fill="none" id="PersonnagesService-&gt;Personnage" style="stroke: #A80036; stroke-width: 1.5; stroke-dasharray: 7.0,7.0;"/><polygon fill="#A80036" points="396.75,221.7735,402.75,208.2735,396.75,214.2735,390.75,208.2735,396.75,221.7735" style="stroke: #A80036; stroke-width: 1.5;"/><text fill="#000000" font-family="sans-serif" font-size="19.5" lengthAdjust="spacingAndGlyphs" textLength="52.5" x="398.25" y="171.7427">«use»</text><!--MD5=[4d5e41878f29d4ff72955b7d54f27664]
reverse link Personnage to Magicien--><path d="M288,396.498 C261.189,420.1035 232.833,445.068 207.2385,467.6025 " fill="none" id="Personnage&lt;-Magicien" style="stroke: #A80036; stroke-width: 1.5;"/><polygon fill="none" points="281.1015,388.581,310.557,376.6365,294.9795,404.343,281.1015,388.581" style="stroke: #A80036; stroke-width: 1.5;"/><!--MD5=[c89be112b1e2fb365abb0d7e9384ebc3]
reverse link Personnage to Guerrier--><path d="M396.75,407.1975 C396.75,427.6065 396.75,448.5915 396.75,467.8005 " fill="none" id="Personnage&lt;-Guerrier" style="stroke: #A80036; stroke-width: 1.5;"/><polygon fill="none" points="386.25,406.9695,396.75,376.9695,407.25,406.9695,386.25,406.9695" style="stroke: #A80036; stroke-width: 1.5;"/><!--MD5=[faf818d6918e30d1f4a0244470361e52]
reverse link Personnage to Voleur--><path d="M505.5,396.498 C532.311,420.1035 560.667,445.068 586.2615,467.6025 " fill="none" id="Personnage&lt;-Voleur" style="stroke: #A80036; stroke-width: 1.5;"/><polygon fill="none" points="498.5205,404.343,482.943,376.6365,512.3985,388.581,498.5205,404.343" style="stroke: #A80036; stroke-width: 1.5;"/><!--MD5=[952f98a13f32e5f330b47573125fa398]
@startuml
scale 1.5

class Personnage {
	#_nom : String
	#_phrase_attaque : String
	#_phrase_defense : String
	+degats_attaque() float    
	}

class PersonnagesService {
	+attaque() String
}

class Magicien {
	#_nom : String
	#_phrase_attaque : String
	#_phrase_defense : String
	+degats_attaque() float    
}

class Guerrier {
	#_nom : String
	#_phrase_attaque : String
	#_phrase_defense : String
	+degats_attaque() float    
}

class Voleur {
	#_nom : String
	#_phrase_attaque : String
	#_phrase_defense : String
	+degats_attaque() float    
}

PersonnagesService ..> Personnage : <<use>>
Personnage <|- - Magicien
Personnage <|- - Guerrier
Personnage <|- - Voleur
@enduml

PlantUML version 1.2020.10(Sun May 17 11:35:57 CEST 2020)
(GPL source distribution)
Java Runtime: OpenJDK Runtime Environment
JVM: OpenJDK 64-Bit Server VM
Java Version: 14+36
Operating System: Windows 10
Default Encoding: Cp1252
Language: fr
Country: FR
--></g></svg>