<?xml version="1.0" encoding="UTF-8" standalone="no"?><svg xmlns="http://www.w3.org/2000/svg" xmlns:xlink="http://www.w3.org/1999/xlink" contentScriptType="application/ecmascript" contentStyleType="text/css" height="372px" preserveAspectRatio="none" style="width:282px;height:372px;" version="1.1" viewBox="0 0 282 372" width="282px" zoomAndPan="magnify"><defs><filter height="300%" id="fmvtqu0o2eclv" width="300%" x="-1" y="-1"><feGaussianBlur result="blurOut" stdDeviation="3.0"/><feColorMatrix in="blurOut" result="blurOut2" type="matrix" values="0 0 0 0 0 0 0 0 0 0 0 0 0 0 0 0 0 0 .4 0"/><feOffset dx="6.0" dy="6.0" in="blurOut2" result="blurOut3"/><feBlend in="SourceGraphic" in2="blurOut3" mode="normal"/></filter></defs><g><!--MD5=[82f78030d15708ad5ff33f19467d2e14]
class Personnage--><rect fill="#FEFECE" filter="url(#fmvtqu0o2eclv)" height="134.2617" id="Personnage" style="stroke: #A80036; stroke-width: 2.25;" width="256.5" x="9" y="222"/><ellipse cx="79.875" cy="246" fill="#ADD1B2" rx="16.5" ry="16.5" style="stroke: #A80036; stroke-width: 1.5;"/><path d="M84.0234,239.8125 Q84.2578,239.4844 84.5391,239.3203 Q84.8203,239.1563 85.1484,239.1563 Q85.7109,239.1563 86.0625,239.5547 Q86.4141,239.9297 86.4141,240.8438 L86.4141,243.0234 Q86.4141,243.9375 86.0625,244.3359 Q85.7109,244.7344 85.1484,244.7344 Q84.6328,244.7344 84.3281,244.4297 Q84.0234,244.1484 83.8594,243.375 Q83.7891,242.8359 83.5078,242.5547 Q83.0156,241.9922 82.1016,241.6641 Q81.1875,241.3359 80.25,241.3359 Q79.1016,241.3359 78.1406,241.8281 Q77.2031,242.3203 76.4531,243.4453 Q75.7266,244.5703 75.7266,246.1172 L75.7266,247.7578 Q75.7266,249.6094 77.0625,250.8516 Q78.3984,252.0703 80.7891,252.0703 Q82.1953,252.0703 83.1797,251.6953 Q83.7656,251.4609 84.3984,250.8047 Q84.7969,250.4063 85.0078,250.2891 Q85.2422,250.1719 85.5469,250.1719 Q86.0391,250.1719 86.4141,250.5703 Q86.8125,250.9453 86.8125,251.4609 Q86.8125,251.9766 86.2969,252.5859 Q85.5469,253.4531 84.3516,253.9453 Q82.7344,254.625 80.7891,254.625 Q78.5156,254.625 76.7109,253.6875 Q75.2344,252.9375 74.2031,251.3438 Q73.1719,249.7266 73.1719,247.8047 L73.1719,246.0703 Q73.1719,244.0781 74.0859,242.3672 Q75.0234,240.6328 76.6641,239.7188 Q78.3047,238.7813 80.1563,238.7813 Q81.2578,238.7813 82.2188,239.0391 Q83.2031,239.2734 84.0234,239.8125 Z "/><text fill="#000000" font-family="sans-serif" font-size="18" lengthAdjust="spacingAndGlyphs" textLength="102" x="110.625" y="253.3652">Personnage</text><line style="stroke: #A80036; stroke-width: 2.25;" x1="10.5" x2="264" y1="270" y2="270"/><rect fill="none" height="9" style="stroke: #C82930; stroke-width: 1.5;" width="9" x="21" y="282"/><text fill="#000000" font-family="sans-serif" font-size="16.5" lengthAdjust="spacingAndGlyphs" textLength="103.5" x="39" y="293.1284">__nom : String</text><rect fill="none" height="9" style="stroke: #C82930; stroke-width: 1.5;" width="9" x="21" y="302.7539"/><text fill="#000000" font-family="sans-serif" font-size="16.5" lengthAdjust="spacingAndGlyphs" textLength="201" x="39" y="313.8823">__personnage_type : String</text><line style="stroke: #A80036; stroke-width: 2.25;" x1="10.5" x2="264" y1="323.5078" y2="323.5078"/><ellipse cx="25.5" cy="340.0078" fill="#84BE84" rx="4.5" ry="4.5" style="stroke: #038048; stroke-width: 1.5;"/><text fill="#000000" font-family="sans-serif" font-size="16.5" lengthAdjust="spacingAndGlyphs" textLength="217.5" x="39" y="346.6362">get_personnage_type() String</text><!--MD5=[7e839c7f40ad33ee08f12d1385d34f55]
class PersonnagesService--><rect fill="#FEFECE" filter="url(#fmvtqu0o2eclv)" height="92.7539" id="PersonnagesService" style="stroke: #A80036; stroke-width: 2.25;" width="220.5" x="27" y="12"/><ellipse cx="49.5" cy="36" fill="#ADD1B2" rx="16.5" ry="16.5" style="stroke: #A80036; stroke-width: 1.5;"/><path d="M53.6484,29.8125 Q53.8828,29.4844 54.1641,29.3203 Q54.4453,29.1563 54.7734,29.1563 Q55.3359,29.1563 55.6875,29.5547 Q56.0391,29.9297 56.0391,30.8438 L56.0391,33.0234 Q56.0391,33.9375 55.6875,34.3359 Q55.3359,34.7344 54.7734,34.7344 Q54.2578,34.7344 53.9531,34.4297 Q53.6484,34.1484 53.4844,33.375 Q53.4141,32.8359 53.1328,32.5547 Q52.6406,31.9922 51.7266,31.6641 Q50.8125,31.3359 49.875,31.3359 Q48.7266,31.3359 47.7656,31.8281 Q46.8281,32.3203 46.0781,33.4453 Q45.3516,34.5703 45.3516,36.1172 L45.3516,37.7578 Q45.3516,39.6094 46.6875,40.8516 Q48.0234,42.0703 50.4141,42.0703 Q51.8203,42.0703 52.8047,41.6953 Q53.3906,41.4609 54.0234,40.8047 Q54.4219,40.4063 54.6328,40.2891 Q54.8672,40.1719 55.1719,40.1719 Q55.6641,40.1719 56.0391,40.5703 Q56.4375,40.9453 56.4375,41.4609 Q56.4375,41.9766 55.9219,42.5859 Q55.1719,43.4531 53.9766,43.9453 Q52.3594,44.625 50.4141,44.625 Q48.1406,44.625 46.3359,43.6875 Q44.8594,42.9375 43.8281,41.3438 Q42.7969,39.7266 42.7969,37.8047 L42.7969,36.0703 Q42.7969,34.0781 43.7109,32.3672 Q44.6484,30.6328 46.2891,29.7188 Q47.9297,28.7813 49.7813,28.7813 Q50.8828,28.7813 51.8438,29.0391 Q52.8281,29.2734 53.6484,29.8125 Z "/><text fill="#000000" font-family="sans-serif" font-size="18" lengthAdjust="spacingAndGlyphs" textLength="172.5" x="70.5" y="43.3652">PersonnagesService</text><line style="stroke: #A80036; stroke-width: 2.25;" x1="28.5" x2="246" y1="60" y2="60"/><line style="stroke: #A80036; stroke-width: 2.25;" x1="28.5" x2="246" y1="72" y2="72"/><ellipse cx="43.5" cy="88.5" fill="#84BE84" rx="4.5" ry="4.5" style="stroke: #038048; stroke-width: 1.5;"/><text fill="#000000" font-family="sans-serif" font-size="16.5" lengthAdjust="spacingAndGlyphs" textLength="112.5" x="57" y="95.1284">attaque() String</text><!--MD5=[3236cb67c3e05d64258cefeca6823ee1]
link PersonnagesService to Personnage--><path d="M137.25,105.045 C137.25,136.1835 137.25,178.3155 137.25,214.2993 " fill="none" id="PersonnagesService-&gt;Personnage" style="stroke: #A80036; stroke-width: 1.5; stroke-dasharray: 7.0,7.0;"/><polygon fill="#A80036" points="137.25,221.8784,143.25,208.3784,137.25,214.3784,131.25,208.3784,137.25,221.8784" style="stroke: #A80036; stroke-width: 1.5;"/><text fill="#000000" font-family="sans-serif" font-size="19.5" lengthAdjust="spacingAndGlyphs" textLength="52.5" x="138.75" y="171.7427">«use»</text><!--MD5=[f5cc35ae3002a423b654b67d404fc53d]
@startuml
scale 1.5

class Personnage {
    -__nom : String
	-__personnage_type : String
	+get_personnage_type() String
}
	
class PersonnagesService {
	+attaque() String
}
	
PersonnagesService ..> Personnage : <<use>>
@enduml

PlantUML version 1.2020.10(Sun May 17 11:35:57 CEST 2020)
(GPL source distribution)
Java Runtime: OpenJDK Runtime Environment
JVM: OpenJDK 64-Bit Server VM
Java Version: 14+36
Operating System: Windows 10
Default Encoding: Cp1252
Language: fr
Country: FR
--></g></svg>