<?xml version="1.0" encoding="UTF-8" standalone="no"?><svg xmlns="http://www.w3.org/2000/svg" xmlns:xlink="http://www.w3.org/1999/xlink" contentScriptType="application/ecmascript" contentStyleType="text/css" height="828px" preserveAspectRatio="none" style="width:661px;height:828px;" version="1.1" viewBox="0 0 661 828" width="661.5px" zoomAndPan="magnify"><defs><filter height="300%" id="f1kau0ujjcco4n" width="300%" x="-1" y="-1"><feGaussianBlur result="blurOut" stdDeviation="3.0"/><feColorMatrix in="blurOut" result="blurOut2" type="matrix" values="0 0 0 0 0 0 0 0 0 0 0 0 0 0 0 0 0 0 .4 0"/><feOffset dx="6.0" dy="6.0" in="blurOut2" result="blurOut3"/><feBlend in="SourceGraphic" in2="blurOut3" mode="normal"/></filter></defs><g><!--MD5=[fe7de06e0f2f4ddb9c35fce3669b0853]
class AbstractEquipement--><rect fill="#FEFECE" filter="url(#f1kau0ujjcco4n)" height="113.5078" id="AbstractEquipement" style="stroke: #A80036; stroke-width: 2.25;" width="216" x="429.75" y="277.5"/><ellipse cx="452.25" cy="301.5" fill="#A9DCDF" rx="16.5" ry="16.5" style="stroke: #A80036; stroke-width: 1.5;"/><path d="M455.5313,304.1484 L449.3203,304.1484 L448.6875,305.6953 L449.3203,305.6953 Q450.2344,305.6953 450.6328,306.0469 Q451.0313,306.3984 451.0313,306.9844 Q451.0313,307.5469 450.6328,307.8984 Q450.2344,308.25 449.3203,308.25 L445.875,308.25 Q444.9609,308.25 444.5859,307.8984 Q444.1875,307.5469 444.1875,306.9609 Q444.1875,306.3984 444.6094,306.0469 Q445.0078,305.6719 445.9453,305.6953 L449.9531,295.7109 L448.2891,295.7109 Q447.375,295.7109 446.9766,295.3594 Q446.5781,295.0078 446.5781,294.4219 Q446.5781,293.8594 446.9766,293.5078 Q447.375,293.1563 448.2891,293.1563 L453.7969,293.1563 L458.8828,305.6953 Q459.7734,305.6953 460.0547,305.9063 Q460.6406,306.3047 460.6406,306.9844 Q460.6406,307.5469 460.2422,307.8984 Q459.8672,308.25 458.9531,308.25 L455.5078,308.25 Q454.5938,308.25 454.1953,307.8984 Q453.7969,307.5469 453.7969,306.9609 Q453.7969,306.3984 454.1953,306.0469 Q454.5938,305.6953 455.5078,305.6953 L456.1406,305.6953 L455.5313,304.1484 Z M454.4531,301.5938 L452.4141,296.5313 L450.3516,301.5938 L454.4531,301.5938 Z "/><text fill="#000000" font-family="sans-serif" font-size="18" font-style="italic" lengthAdjust="spacingAndGlyphs" textLength="168" x="473.25" y="308.8652">AbstractEquipement</text><line style="stroke: #A80036; stroke-width: 2.25;" x1="431.25" x2="644.25" y1="325.5" y2="325.5"/><polygon fill="none" points="446.25,334.5,452.25,340.5,446.25,346.5,440.25,340.5" style="stroke: #B38D22; stroke-width: 1.5;"/><text fill="#000000" font-family="sans-serif" font-size="16.5" lengthAdjust="spacingAndGlyphs" textLength="85.5" x="459.75" y="348.6284">_nom String</text><polygon fill="none" points="446.25,355.2539,452.25,361.2539,446.25,367.2539,440.25,361.2539" style="stroke: #B38D22; stroke-width: 1.5;"/><text fill="#000000" font-family="sans-serif" font-size="16.5" lengthAdjust="spacingAndGlyphs" textLength="46.5" x="459.75" y="369.3823">_id  int</text><line style="stroke: #A80036; stroke-width: 2.25;" x1="431.25" x2="644.25" y1="379.0078" y2="379.0078"/><!--MD5=[b0db65a3897154742e873e1173841c99]
class AbstractArme--><rect fill="#FEFECE" filter="url(#f1kau0ujjcco4n)" height="167.2969" id="AbstractArme" style="stroke: #A80036; stroke-width: 2.25;" width="286.5" x="127.5" y="481.5"/><ellipse cx="208.125" cy="511.6406" fill="#A9DCDF" rx="16.5" ry="16.5" style="stroke: #A80036; stroke-width: 1.5;"/><path d="M211.4063,514.2891 L205.1953,514.2891 L204.5625,515.8359 L205.1953,515.8359 Q206.1094,515.8359 206.5078,516.1875 Q206.9063,516.5391 206.9063,517.125 Q206.9063,517.6875 206.5078,518.0391 Q206.1094,518.3906 205.1953,518.3906 L201.75,518.3906 Q200.8359,518.3906 200.4609,518.0391 Q200.0625,517.6875 200.0625,517.1016 Q200.0625,516.5391 200.4844,516.1875 Q200.8828,515.8125 201.8203,515.8359 L205.8281,505.8516 L204.1641,505.8516 Q203.25,505.8516 202.8516,505.5 Q202.4531,505.1484 202.4531,504.5625 Q202.4531,504 202.8516,503.6484 Q203.25,503.2969 204.1641,503.2969 L209.6719,503.2969 L214.7578,515.8359 Q215.6484,515.8359 215.9297,516.0469 Q216.5156,516.4453 216.5156,517.125 Q216.5156,517.6875 216.1172,518.0391 Q215.7422,518.3906 214.8281,518.3906 L211.3828,518.3906 Q210.4688,518.3906 210.0703,518.0391 Q209.6719,517.6875 209.6719,517.1016 Q209.6719,516.5391 210.0703,516.1875 Q210.4688,515.8359 211.3828,515.8359 L212.0156,515.8359 L211.4063,514.2891 Z M210.3281,511.7344 L208.2891,506.6719 L206.2266,511.7344 L210.3281,511.7344 Z "/><text fill="#000000" font-family="sans-serif" font-size="18" font-style="italic" lengthAdjust="spacingAndGlyphs" textLength="87" x="251.625" y="507.6855">«abstract»</text><text fill="#000000" font-family="sans-serif" font-size="18" font-style="italic" lengthAdjust="spacingAndGlyphs" textLength="112.5" x="238.875" y="530.3262">AbstractArme</text><line style="stroke: #A80036; stroke-width: 2.25;" x1="129" x2="412.5" y1="541.7813" y2="541.7813"/><polygon fill="none" points="144,550.7813,150,556.7813,144,562.7813,138,556.7813" style="stroke: #B38D22; stroke-width: 1.5;"/><text fill="#000000" font-family="sans-serif" font-size="16.5" lengthAdjust="spacingAndGlyphs" textLength="219" x="157.5" y="564.9097">_description_utilisation : String</text><polygon fill="none" points="144,571.5352,150,577.5352,144,583.5352,138,577.5352" style="stroke: #B38D22; stroke-width: 1.5;"/><text fill="#000000" font-family="sans-serif" font-size="16.5" lengthAdjust="spacingAndGlyphs" textLength="138" x="157.5" y="585.6636">_base_attaque : int</text><ellipse cx="144" cy="599.7891" fill="none" rx="4.5" ry="4.5" style="stroke: #038048; stroke-width: 1.5;"/><text fill="#000000" font-family="sans-serif" font-size="16.5" lengthAdjust="spacingAndGlyphs" textLength="247.5" x="157.5" y="606.4175">DATABASE_TYPE_LABEL : String</text><line style="stroke: #A80036; stroke-width: 2.25;" x1="129" x2="412.5" y1="616.043" y2="616.043"/><ellipse cx="144" cy="632.543" fill="#84BE84" rx="4.5" ry="4.5" style="stroke: #038048; stroke-width: 1.5;"/><text fill="#000000" font-family="sans-serif" font-size="16.5" lengthAdjust="spacingAndGlyphs" textLength="199.5" x="157.5" y="639.1714">utiliser_arme(Statistique) int</text><!--MD5=[4fee37becfc6618f6c12d3f3b2ea6d43]
class Statistique--><rect fill="#FEFECE" filter="url(#f1kau0ujjcco4n)" height="175.7695" id="Statistique" style="stroke: #A80036; stroke-width: 2.25;" width="192" x="441.75" y="12"/><ellipse cx="489.9" cy="36" fill="#ADD1B2" rx="16.5" ry="16.5" style="stroke: #A80036; stroke-width: 1.5;"/><path d="M494.0484,29.8125 Q494.2828,29.4844 494.5641,29.3203 Q494.8453,29.1563 495.1734,29.1563 Q495.7359,29.1563 496.0875,29.5547 Q496.4391,29.9297 496.4391,30.8438 L496.4391,33.0234 Q496.4391,33.9375 496.0875,34.3359 Q495.7359,34.7344 495.1734,34.7344 Q494.6578,34.7344 494.3531,34.4297 Q494.0484,34.1484 493.8844,33.375 Q493.8141,32.8359 493.5328,32.5547 Q493.0406,31.9922 492.1266,31.6641 Q491.2125,31.3359 490.275,31.3359 Q489.1266,31.3359 488.1656,31.8281 Q487.2281,32.3203 486.4781,33.4453 Q485.7516,34.5703 485.7516,36.1172 L485.7516,37.7578 Q485.7516,39.6094 487.0875,40.8516 Q488.4234,42.0703 490.8141,42.0703 Q492.2203,42.0703 493.2047,41.6953 Q493.7906,41.4609 494.4234,40.8047 Q494.8219,40.4063 495.0328,40.2891 Q495.2672,40.1719 495.5719,40.1719 Q496.0641,40.1719 496.4391,40.5703 Q496.8375,40.9453 496.8375,41.4609 Q496.8375,41.9766 496.3219,42.5859 Q495.5719,43.4531 494.3766,43.9453 Q492.7594,44.625 490.8141,44.625 Q488.5406,44.625 486.7359,43.6875 Q485.2594,42.9375 484.2281,41.3438 Q483.1969,39.7266 483.1969,37.8047 L483.1969,36.0703 Q483.1969,34.0781 484.1109,32.3672 Q485.0484,30.6328 486.6891,29.7188 Q488.3297,28.7813 490.1813,28.7813 Q491.2828,28.7813 492.2438,29.0391 Q493.2281,29.2734 494.0484,29.8125 Z "/><text fill="#000000" font-family="sans-serif" font-size="18" lengthAdjust="spacingAndGlyphs" textLength="87" x="516.6" y="43.3652">Statistique</text><line style="stroke: #A80036; stroke-width: 2.25;" x1="443.25" x2="632.25" y1="60" y2="60"/><rect fill="none" height="9" style="stroke: #C82930; stroke-width: 1.5;" width="9" x="453.75" y="72"/><text fill="#000000" font-family="sans-serif" font-size="16.5" lengthAdjust="spacingAndGlyphs" textLength="87" x="471.75" y="83.1284">__force : int</text><rect fill="none" height="9" style="stroke: #C82930; stroke-width: 1.5;" width="9" x="453.75" y="92.7539"/><text fill="#000000" font-family="sans-serif" font-size="16.5" lengthAdjust="spacingAndGlyphs" textLength="88.5" x="471.75" y="103.8823">__agilite : int</text><rect fill="none" height="9" style="stroke: #C82930; stroke-width: 1.5;" width="9" x="453.75" y="113.5078"/><text fill="#000000" font-family="sans-serif" font-size="16.5" lengthAdjust="spacingAndGlyphs" textLength="90" x="471.75" y="124.6362">__magie : int</text><rect fill="none" height="9" style="stroke: #C82930; stroke-width: 1.5;" width="9" x="453.75" y="134.2617"/><text fill="#000000" font-family="sans-serif" font-size="16.5" lengthAdjust="spacingAndGlyphs" textLength="108" x="471.75" y="145.3901">__defense : int</text><rect fill="none" height="9" style="stroke: #C82930; stroke-width: 1.5;" width="9" x="453.75" y="155.0156"/><text fill="#000000" font-family="sans-serif" font-size="16.5" lengthAdjust="spacingAndGlyphs" textLength="153" x="471.75" y="166.144">__points_de_vie  : int</text><line style="stroke: #A80036; stroke-width: 2.25;" x1="443.25" x2="632.25" y1="175.7695" y2="175.7695"/><!--MD5=[14c31d852211043c5c6227b482009b90]
class Epee--><rect fill="#FEFECE" filter="url(#f1kau0ujjcco4n)" height="72" id="Epee" style="stroke: #A80036; stroke-width: 2.25;" width="91.5" x="9" y="298.5"/><ellipse cx="31.5" cy="322.5" fill="#ADD1B2" rx="16.5" ry="16.5" style="stroke: #A80036; stroke-width: 1.5;"/><path d="M35.6484,316.3125 Q35.8828,315.9844 36.1641,315.8203 Q36.4453,315.6563 36.7734,315.6563 Q37.3359,315.6563 37.6875,316.0547 Q38.0391,316.4297 38.0391,317.3438 L38.0391,319.5234 Q38.0391,320.4375 37.6875,320.8359 Q37.3359,321.2344 36.7734,321.2344 Q36.2578,321.2344 35.9531,320.9297 Q35.6484,320.6484 35.4844,319.875 Q35.4141,319.3359 35.1328,319.0547 Q34.6406,318.4922 33.7266,318.1641 Q32.8125,317.8359 31.875,317.8359 Q30.7266,317.8359 29.7656,318.3281 Q28.8281,318.8203 28.0781,319.9453 Q27.3516,321.0703 27.3516,322.6172 L27.3516,324.2578 Q27.3516,326.1094 28.6875,327.3516 Q30.0234,328.5703 32.4141,328.5703 Q33.8203,328.5703 34.8047,328.1953 Q35.3906,327.9609 36.0234,327.3047 Q36.4219,326.9063 36.6328,326.7891 Q36.8672,326.6719 37.1719,326.6719 Q37.6641,326.6719 38.0391,327.0703 Q38.4375,327.4453 38.4375,327.9609 Q38.4375,328.4766 37.9219,329.0859 Q37.1719,329.9531 35.9766,330.4453 Q34.3594,331.125 32.4141,331.125 Q30.1406,331.125 28.3359,330.1875 Q26.8594,329.4375 25.8281,327.8438 Q24.7969,326.2266 24.7969,324.3047 L24.7969,322.5703 Q24.7969,320.5781 25.7109,318.8672 Q26.6484,317.1328 28.2891,316.2188 Q29.9297,315.2813 31.7813,315.2813 Q32.8828,315.2813 33.8438,315.5391 Q34.8281,315.7734 35.6484,316.3125 Z "/><text fill="#000000" font-family="sans-serif" font-size="18" lengthAdjust="spacingAndGlyphs" textLength="43.5" x="52.5" y="329.8652">Epee</text><line style="stroke: #A80036; stroke-width: 2.25;" x1="10.5" x2="99" y1="346.5" y2="346.5"/><line style="stroke: #A80036; stroke-width: 2.25;" x1="10.5" x2="99" y1="358.5" y2="358.5"/><!--MD5=[ea236aa9c420d1c71b0f4c856d0a876c]
class Baton--><rect fill="#FEFECE" filter="url(#f1kau0ujjcco4n)" height="72" id="Baton" style="stroke: #A80036; stroke-width: 2.25;" width="96" x="153.75" y="298.5"/><ellipse cx="176.25" cy="322.5" fill="#ADD1B2" rx="16.5" ry="16.5" style="stroke: #A80036; stroke-width: 1.5;"/><path d="M180.3984,316.3125 Q180.6328,315.9844 180.9141,315.8203 Q181.1953,315.6563 181.5234,315.6563 Q182.0859,315.6563 182.4375,316.0547 Q182.7891,316.4297 182.7891,317.3438 L182.7891,319.5234 Q182.7891,320.4375 182.4375,320.8359 Q182.0859,321.2344 181.5234,321.2344 Q181.0078,321.2344 180.7031,320.9297 Q180.3984,320.6484 180.2344,319.875 Q180.1641,319.3359 179.8828,319.0547 Q179.3906,318.4922 178.4766,318.1641 Q177.5625,317.8359 176.625,317.8359 Q175.4766,317.8359 174.5156,318.3281 Q173.5781,318.8203 172.8281,319.9453 Q172.1016,321.0703 172.1016,322.6172 L172.1016,324.2578 Q172.1016,326.1094 173.4375,327.3516 Q174.7734,328.5703 177.1641,328.5703 Q178.5703,328.5703 179.5547,328.1953 Q180.1406,327.9609 180.7734,327.3047 Q181.1719,326.9063 181.3828,326.7891 Q181.6172,326.6719 181.9219,326.6719 Q182.4141,326.6719 182.7891,327.0703 Q183.1875,327.4453 183.1875,327.9609 Q183.1875,328.4766 182.6719,329.0859 Q181.9219,329.9531 180.7266,330.4453 Q179.1094,331.125 177.1641,331.125 Q174.8906,331.125 173.0859,330.1875 Q171.6094,329.4375 170.5781,327.8438 Q169.5469,326.2266 169.5469,324.3047 L169.5469,322.5703 Q169.5469,320.5781 170.4609,318.8672 Q171.3984,317.1328 173.0391,316.2188 Q174.6797,315.2813 176.5313,315.2813 Q177.6328,315.2813 178.5938,315.5391 Q179.5781,315.7734 180.3984,316.3125 Z "/><text fill="#000000" font-family="sans-serif" font-size="18" lengthAdjust="spacingAndGlyphs" textLength="48" x="197.25" y="329.8652">Baton</text><line style="stroke: #A80036; stroke-width: 2.25;" x1="155.25" x2="248.25" y1="346.5" y2="346.5"/><line style="stroke: #A80036; stroke-width: 2.25;" x1="155.25" x2="248.25" y1="358.5" y2="358.5"/><!--MD5=[ae7bc4368a5efd04dbc3ae20ffd6acf5]
class Arc--><rect fill="#FEFECE" filter="url(#f1kau0ujjcco4n)" height="72" id="Arc" style="stroke: #A80036; stroke-width: 2.25;" width="73.5" x="303" y="298.5"/><ellipse cx="325.5" cy="322.5" fill="#ADD1B2" rx="16.5" ry="16.5" style="stroke: #A80036; stroke-width: 1.5;"/><path d="M329.6484,316.3125 Q329.8828,315.9844 330.1641,315.8203 Q330.4453,315.6563 330.7734,315.6563 Q331.3359,315.6563 331.6875,316.0547 Q332.0391,316.4297 332.0391,317.3438 L332.0391,319.5234 Q332.0391,320.4375 331.6875,320.8359 Q331.3359,321.2344 330.7734,321.2344 Q330.2578,321.2344 329.9531,320.9297 Q329.6484,320.6484 329.4844,319.875 Q329.4141,319.3359 329.1328,319.0547 Q328.6406,318.4922 327.7266,318.1641 Q326.8125,317.8359 325.875,317.8359 Q324.7266,317.8359 323.7656,318.3281 Q322.8281,318.8203 322.0781,319.9453 Q321.3516,321.0703 321.3516,322.6172 L321.3516,324.2578 Q321.3516,326.1094 322.6875,327.3516 Q324.0234,328.5703 326.4141,328.5703 Q327.8203,328.5703 328.8047,328.1953 Q329.3906,327.9609 330.0234,327.3047 Q330.4219,326.9063 330.6328,326.7891 Q330.8672,326.6719 331.1719,326.6719 Q331.6641,326.6719 332.0391,327.0703 Q332.4375,327.4453 332.4375,327.9609 Q332.4375,328.4766 331.9219,329.0859 Q331.1719,329.9531 329.9766,330.4453 Q328.3594,331.125 326.4141,331.125 Q324.1406,331.125 322.3359,330.1875 Q320.8594,329.4375 319.8281,327.8438 Q318.7969,326.2266 318.7969,324.3047 L318.7969,322.5703 Q318.7969,320.5781 319.7109,318.8672 Q320.6484,317.1328 322.2891,316.2188 Q323.9297,315.2813 325.7813,315.2813 Q326.8828,315.2813 327.8438,315.5391 Q328.8281,315.7734 329.6484,316.3125 Z "/><text fill="#000000" font-family="sans-serif" font-size="18" lengthAdjust="spacingAndGlyphs" textLength="25.5" x="346.5" y="329.8652">Arc</text><line style="stroke: #A80036; stroke-width: 2.25;" x1="304.5" x2="375" y1="346.5" y2="346.5"/><line style="stroke: #A80036; stroke-width: 2.25;" x1="304.5" x2="375" y1="358.5" y2="358.5"/><!--MD5=[27bf5b02022a00c45befc02adbdd81fc]
class Couteau--><rect fill="#FEFECE" filter="url(#f1kau0ujjcco4n)" height="72" id="Couteau" style="stroke: #A80036; stroke-width: 2.25;" width="118.5" x="49.5" y="739.5"/><ellipse cx="72" cy="763.5" fill="#ADD1B2" rx="16.5" ry="16.5" style="stroke: #A80036; stroke-width: 1.5;"/><path d="M76.1484,757.3125 Q76.3828,756.9844 76.6641,756.8203 Q76.9453,756.6563 77.2734,756.6563 Q77.8359,756.6563 78.1875,757.0547 Q78.5391,757.4297 78.5391,758.3438 L78.5391,760.5234 Q78.5391,761.4375 78.1875,761.8359 Q77.8359,762.2344 77.2734,762.2344 Q76.7578,762.2344 76.4531,761.9297 Q76.1484,761.6484 75.9844,760.875 Q75.9141,760.3359 75.6328,760.0547 Q75.1406,759.4922 74.2266,759.1641 Q73.3125,758.8359 72.375,758.8359 Q71.2266,758.8359 70.2656,759.3281 Q69.3281,759.8203 68.5781,760.9453 Q67.8516,762.0703 67.8516,763.6172 L67.8516,765.2578 Q67.8516,767.1094 69.1875,768.3516 Q70.5234,769.5703 72.9141,769.5703 Q74.3203,769.5703 75.3047,769.1953 Q75.8906,768.9609 76.5234,768.3047 Q76.9219,767.9063 77.1328,767.7891 Q77.3672,767.6719 77.6719,767.6719 Q78.1641,767.6719 78.5391,768.0703 Q78.9375,768.4453 78.9375,768.9609 Q78.9375,769.4766 78.4219,770.0859 Q77.6719,770.9531 76.4766,771.4453 Q74.8594,772.125 72.9141,772.125 Q70.6406,772.125 68.8359,771.1875 Q67.3594,770.4375 66.3281,768.8438 Q65.2969,767.2266 65.2969,765.3047 L65.2969,763.5703 Q65.2969,761.5781 66.2109,759.8672 Q67.1484,758.1328 68.7891,757.2188 Q70.4297,756.2813 72.2813,756.2813 Q73.3828,756.2813 74.3438,756.5391 Q75.3281,756.7734 76.1484,757.3125 Z "/><text fill="#000000" font-family="sans-serif" font-size="18" lengthAdjust="spacingAndGlyphs" textLength="70.5" x="93" y="770.8652">Couteau</text><line style="stroke: #A80036; stroke-width: 2.25;" x1="51" x2="166.5" y1="787.5" y2="787.5"/><line style="stroke: #A80036; stroke-width: 2.25;" x1="51" x2="166.5" y1="799.5" y2="799.5"/><!--MD5=[e84bf443d14748ff027e0241600c7459]
class Lance--><rect fill="#FEFECE" filter="url(#f1kau0ujjcco4n)" height="72" id="Lance" style="stroke: #A80036; stroke-width: 2.25;" width="99" x="221.25" y="739.5"/><ellipse cx="243.75" cy="763.5" fill="#ADD1B2" rx="16.5" ry="16.5" style="stroke: #A80036; stroke-width: 1.5;"/><path d="M247.8984,757.3125 Q248.1328,756.9844 248.4141,756.8203 Q248.6953,756.6563 249.0234,756.6563 Q249.5859,756.6563 249.9375,757.0547 Q250.2891,757.4297 250.2891,758.3438 L250.2891,760.5234 Q250.2891,761.4375 249.9375,761.8359 Q249.5859,762.2344 249.0234,762.2344 Q248.5078,762.2344 248.2031,761.9297 Q247.8984,761.6484 247.7344,760.875 Q247.6641,760.3359 247.3828,760.0547 Q246.8906,759.4922 245.9766,759.1641 Q245.0625,758.8359 244.125,758.8359 Q242.9766,758.8359 242.0156,759.3281 Q241.0781,759.8203 240.3281,760.9453 Q239.6016,762.0703 239.6016,763.6172 L239.6016,765.2578 Q239.6016,767.1094 240.9375,768.3516 Q242.2734,769.5703 244.6641,769.5703 Q246.0703,769.5703 247.0547,769.1953 Q247.6406,768.9609 248.2734,768.3047 Q248.6719,767.9063 248.8828,767.7891 Q249.1172,767.6719 249.4219,767.6719 Q249.9141,767.6719 250.2891,768.0703 Q250.6875,768.4453 250.6875,768.9609 Q250.6875,769.4766 250.1719,770.0859 Q249.4219,770.9531 248.2266,771.4453 Q246.6094,772.125 244.6641,772.125 Q242.3906,772.125 240.5859,771.1875 Q239.1094,770.4375 238.0781,768.8438 Q237.0469,767.2266 237.0469,765.3047 L237.0469,763.5703 Q237.0469,761.5781 237.9609,759.8672 Q238.8984,758.1328 240.5391,757.2188 Q242.1797,756.2813 244.0313,756.2813 Q245.1328,756.2813 246.0938,756.5391 Q247.0781,756.7734 247.8984,757.3125 Z "/><text fill="#000000" font-family="sans-serif" font-size="18" lengthAdjust="spacingAndGlyphs" textLength="51" x="264.75" y="770.8652">Lance</text><line style="stroke: #A80036; stroke-width: 2.25;" x1="222.75" x2="318.75" y1="787.5" y2="787.5"/><line style="stroke: #A80036; stroke-width: 2.25;" x1="222.75" x2="318.75" y1="799.5" y2="799.5"/><!--MD5=[e6c689e0fb2094b6e7ddc8286563ae4c]
class Livre--><rect fill="#FEFECE" filter="url(#f1kau0ujjcco4n)" height="72" id="Livre" style="stroke: #A80036; stroke-width: 2.25;" width="87" x="372.75" y="739.5"/><ellipse cx="395.25" cy="763.5" fill="#ADD1B2" rx="16.5" ry="16.5" style="stroke: #A80036; stroke-width: 1.5;"/><path d="M399.3984,757.3125 Q399.6328,756.9844 399.9141,756.8203 Q400.1953,756.6563 400.5234,756.6563 Q401.0859,756.6563 401.4375,757.0547 Q401.7891,757.4297 401.7891,758.3438 L401.7891,760.5234 Q401.7891,761.4375 401.4375,761.8359 Q401.0859,762.2344 400.5234,762.2344 Q400.0078,762.2344 399.7031,761.9297 Q399.3984,761.6484 399.2344,760.875 Q399.1641,760.3359 398.8828,760.0547 Q398.3906,759.4922 397.4766,759.1641 Q396.5625,758.8359 395.625,758.8359 Q394.4766,758.8359 393.5156,759.3281 Q392.5781,759.8203 391.8281,760.9453 Q391.1016,762.0703 391.1016,763.6172 L391.1016,765.2578 Q391.1016,767.1094 392.4375,768.3516 Q393.7734,769.5703 396.1641,769.5703 Q397.5703,769.5703 398.5547,769.1953 Q399.1406,768.9609 399.7734,768.3047 Q400.1719,767.9063 400.3828,767.7891 Q400.6172,767.6719 400.9219,767.6719 Q401.4141,767.6719 401.7891,768.0703 Q402.1875,768.4453 402.1875,768.9609 Q402.1875,769.4766 401.6719,770.0859 Q400.9219,770.9531 399.7266,771.4453 Q398.1094,772.125 396.1641,772.125 Q393.8906,772.125 392.0859,771.1875 Q390.6094,770.4375 389.5781,768.8438 Q388.5469,767.2266 388.5469,765.3047 L388.5469,763.5703 Q388.5469,761.5781 389.4609,759.8672 Q390.3984,758.1328 392.0391,757.2188 Q393.6797,756.2813 395.5313,756.2813 Q396.6328,756.2813 397.5938,756.5391 Q398.5781,756.7734 399.3984,757.3125 Z "/><text fill="#000000" font-family="sans-serif" font-size="18" lengthAdjust="spacingAndGlyphs" textLength="39" x="416.25" y="770.8652">Livre</text><line style="stroke: #A80036; stroke-width: 2.25;" x1="374.25" x2="458.25" y1="787.5" y2="787.5"/><line style="stroke: #A80036; stroke-width: 2.25;" x1="374.25" x2="458.25" y1="799.5" y2="799.5"/><!--MD5=[8328a021501810b8d85065988d54b55d]
link Statistique to AbstractEquipement--><path d="M537.75,187.545 C537.75,210.4035 537.75,234.909 537.75,257.166 " fill="none" id="Statistique-&gt;AbstractEquipement" style="stroke: #A80036; stroke-width: 1.5;"/><polygon fill="#A80036" points="537.75,276.8625,543.75,267.8625,537.75,258.8625,531.75,267.8625,537.75,276.8625" style="stroke: #A80036; stroke-width: 1.5;"/><text fill="#000000" font-family="sans-serif" font-size="19.5" lengthAdjust="spacingAndGlyphs" textLength="10.5" x="526.6102" y="219.9659">1</text><!--MD5=[d04d4f213dc32a2defacb7ed4f31b75d]
reverse link AbstractEquipement to AbstractArme--><path d="M449.2845,411.543 C423.1305,433.878 394.3635,458.442 367.704,481.2075 " fill="none" id="AbstractEquipement&lt;-AbstractArme" style="stroke: #A80036; stroke-width: 1.5;"/><polygon fill="none" points="442.8015,403.272,472.434,391.7745,456.4395,419.241,442.8015,403.272" style="stroke: #A80036; stroke-width: 1.5;"/><!--MD5=[9b6e406c015dd290189d05b176ba032b]
link Epee to AbstractArme--><path d="M87.5558,370.629 C110.0898,394.4145 141.2943,427.353 171.5685,459.309 " fill="none" id="Epee-&gt;AbstractArme" style="stroke: #A80036; stroke-width: 1.5;"/><polygon fill="none" points="179.2515,452.1495,192.261,481.1505,164.0055,466.593,179.2515,452.1495" style="stroke: #A80036; stroke-width: 1.5;"/><!--MD5=[c9b0f911b024d2dc3f2b18078dd5b6ec]
link Baton to AbstractArme--><path d="M212.229,370.629 C218.9085,392.6985 227.973,422.649 236.9715,452.3835 " fill="none" id="Baton-&gt;AbstractArme" style="stroke: #A80036; stroke-width: 1.5;"/><polygon fill="none" points="247.0365,449.3955,245.6775,481.1505,226.938,455.478,247.0365,449.3955" style="stroke: #A80036; stroke-width: 1.5;"/><!--MD5=[467e06bf1070bb5ad80829b4be99a0f3]
link Arc to AbstractArme--><path d="M329.271,370.629 C322.5915,392.6985 313.527,422.649 304.5285,452.3835 " fill="none" id="Arc-&gt;AbstractArme" style="stroke: #A80036; stroke-width: 1.5;"/><polygon fill="none" points="314.562,455.478,295.8225,481.1505,294.4635,449.3955,314.562,455.478" style="stroke: #A80036; stroke-width: 1.5;"/><!--MD5=[2d044bec438a0004392ecbf35213228d]
reverse link AbstractArme to Couteau--><path d="M186.759,674.3219 C168.414,697.7619 150.2751,720.9402 136.1108,739.0389 " fill="none" id="AbstractArme&lt;-Couteau" style="stroke: #A80036; stroke-width: 1.5;"/><polygon fill="none" points="179.034,667.1561,205.7925,650.0025,195.5715,680.0985,179.034,667.1561" style="stroke: #A80036; stroke-width: 1.5;"/><!--MD5=[ec0bd100f1cb45a009e81bb20a32a083]
reverse link AbstractArme to Lance--><path d="M270.75,680.2352 C270.75,701.6295 270.75,722.4642 270.75,739.0389 " fill="none" id="AbstractArme&lt;-Lance" style="stroke: #A80036; stroke-width: 1.5;"/><polygon fill="none" points="260.25,680.0022,270.75,650.0025,281.25,680.0021,260.25,680.0022" style="stroke: #A80036; stroke-width: 1.5;"/><!--MD5=[bb2e391553cc5013f0ee8dd941c99f03]
reverse link AbstractArme to Livre--><path d="M346.707,675.062 C363.0045,698.2493 379.0875,721.1307 391.6755,739.0389 " fill="none" id="AbstractArme&lt;-Livre" style="stroke: #A80036; stroke-width: 1.5;"/><polygon fill="none" points="337.7535,680.5838,329.0925,650.0025,354.9345,668.5076,337.7535,680.5838" style="stroke: #A80036; stroke-width: 1.5;"/><!--MD5=[06595126cf7abc029a2c9bdc1bd5793a]
@startuml
scale 1.5
abstract class AbstractEquipement {
	#_nom String
    #_id  int
	 }

abstract class AbstractArme <<abstract>> {
    #_description_utilisation : String
    #_base_attaque : int
    +DATABASE_TYPE_LABEL : String
    +utiliser_arme(Statistique) int
}

	 
class Statistique {
	 -__force : int
	 -__agilite : int
	 -__magie : int
	 -__defense : int
	 -__points_de_vie  : int
}

Statistique "1"- -* AbstractEquipement
AbstractEquipement <|- - AbstractArme
Epee - -|> AbstractArme
Baton - -|> AbstractArme
Arc - -|> AbstractArme
AbstractArme <|- - Couteau
AbstractArme <|- - Lance
AbstractArme <|- - Livre

@enduml

PlantUML version 1.2020.10(Sun May 17 11:35:57 CEST 2020)
(GPL source distribution)
Java Runtime: OpenJDK Runtime Environment
JVM: OpenJDK 64-Bit Server VM
Java Version: 14+36
Operating System: Windows 10
Default Encoding: Cp1252
Language: fr
Country: FR
--></g></svg>