<?xml version="1.0" encoding="UTF-8" standalone="no"?><svg xmlns="http://www.w3.org/2000/svg" xmlns:xlink="http://www.w3.org/1999/xlink" contentScriptType="application/ecmascript" contentStyleType="text/css" height="969px" preserveAspectRatio="none" style="width:1002px;height:969px;" version="1.1" viewBox="0 0 1002 969" width="1002px" zoomAndPan="magnify"><defs><filter height="300%" id="f1aaobxminiky8" width="300%" x="-1" y="-1"><feGaussianBlur result="blurOut" stdDeviation="3.0"/><feColorMatrix in="blurOut" result="blurOut2" type="matrix" values="0 0 0 0 0 0 0 0 0 0 0 0 0 0 0 0 0 0 .4 0"/><feOffset dx="6.0" dy="6.0" in="blurOut2" result="blurOut3"/><feBlend in="SourceGraphic" in2="blurOut3" mode="normal"/></filter></defs><g><!--MD5=[fe7de06e0f2f4ddb9c35fce3669b0853]
class AbstractEquipement--><rect fill="#FEFECE" filter="url(#f1aaobxminiky8)" height="113.5078" id="AbstractEquipement" style="stroke: #A80036; stroke-width: 2.25;" width="216" x="9" y="279"/><ellipse cx="31.5" cy="303" fill="#A9DCDF" rx="16.5" ry="16.5" style="stroke: #A80036; stroke-width: 1.5;"/><path d="M34.7813,305.6484 L28.5703,305.6484 L27.9375,307.1953 L28.5703,307.1953 Q29.4844,307.1953 29.8828,307.5469 Q30.2813,307.8984 30.2813,308.4844 Q30.2813,309.0469 29.8828,309.3984 Q29.4844,309.75 28.5703,309.75 L25.125,309.75 Q24.2109,309.75 23.8359,309.3984 Q23.4375,309.0469 23.4375,308.4609 Q23.4375,307.8984 23.8594,307.5469 Q24.2578,307.1719 25.1953,307.1953 L29.2031,297.2109 L27.5391,297.2109 Q26.625,297.2109 26.2266,296.8594 Q25.8281,296.5078 25.8281,295.9219 Q25.8281,295.3594 26.2266,295.0078 Q26.625,294.6563 27.5391,294.6563 L33.0469,294.6563 L38.1328,307.1953 Q39.0234,307.1953 39.3047,307.4063 Q39.8906,307.8047 39.8906,308.4844 Q39.8906,309.0469 39.4922,309.3984 Q39.1172,309.75 38.2031,309.75 L34.7578,309.75 Q33.8438,309.75 33.4453,309.3984 Q33.0469,309.0469 33.0469,308.4609 Q33.0469,307.8984 33.4453,307.5469 Q33.8438,307.1953 34.7578,307.1953 L35.3906,307.1953 L34.7813,305.6484 Z M33.7031,303.0938 L31.6641,298.0313 L29.6016,303.0938 L33.7031,303.0938 Z "/><text fill="#000000" font-family="sans-serif" font-size="18" font-style="italic" lengthAdjust="spacingAndGlyphs" textLength="168" x="52.5" y="310.3652">AbstractEquipement</text><line style="stroke: #A80036; stroke-width: 2.25;" x1="10.5" x2="223.5" y1="327" y2="327"/><polygon fill="none" points="25.5,336,31.5,342,25.5,348,19.5,342" style="stroke: #B38D22; stroke-width: 1.5;"/><text fill="#000000" font-family="sans-serif" font-size="16.5" lengthAdjust="spacingAndGlyphs" textLength="85.5" x="39" y="350.1284">_nom String</text><polygon fill="none" points="25.5,356.7539,31.5,362.7539,25.5,368.7539,19.5,362.7539" style="stroke: #B38D22; stroke-width: 1.5;"/><text fill="#000000" font-family="sans-serif" font-size="16.5" lengthAdjust="spacingAndGlyphs" textLength="46.5" x="39" y="370.8823">_id  int</text><line style="stroke: #A80036; stroke-width: 2.25;" x1="10.5" x2="223.5" y1="380.5078" y2="380.5078"/><!--MD5=[b0db65a3897154742e873e1173841c99]
class AbstractArme--><rect fill="#FEFECE" filter="url(#f1aaobxminiky8)" height="167.2969" id="AbstractArme" style="stroke: #A80036; stroke-width: 2.25;" width="286.5" x="254.25" y="488.25"/><ellipse cx="334.875" cy="518.3906" fill="#A9DCDF" rx="16.5" ry="16.5" style="stroke: #A80036; stroke-width: 1.5;"/><path d="M338.1563,521.0391 L331.9453,521.0391 L331.3125,522.5859 L331.9453,522.5859 Q332.8594,522.5859 333.2578,522.9375 Q333.6563,523.2891 333.6563,523.875 Q333.6563,524.4375 333.2578,524.7891 Q332.8594,525.1406 331.9453,525.1406 L328.5,525.1406 Q327.5859,525.1406 327.2109,524.7891 Q326.8125,524.4375 326.8125,523.8516 Q326.8125,523.2891 327.2344,522.9375 Q327.6328,522.5625 328.5703,522.5859 L332.5781,512.6016 L330.9141,512.6016 Q330,512.6016 329.6016,512.25 Q329.2031,511.8984 329.2031,511.3125 Q329.2031,510.75 329.6016,510.3984 Q330,510.0469 330.9141,510.0469 L336.4219,510.0469 L341.5078,522.5859 Q342.3984,522.5859 342.6797,522.7969 Q343.2656,523.1953 343.2656,523.875 Q343.2656,524.4375 342.8672,524.7891 Q342.4922,525.1406 341.5781,525.1406 L338.1328,525.1406 Q337.2188,525.1406 336.8203,524.7891 Q336.4219,524.4375 336.4219,523.8516 Q336.4219,523.2891 336.8203,522.9375 Q337.2188,522.5859 338.1328,522.5859 L338.7656,522.5859 L338.1563,521.0391 Z M337.0781,518.4844 L335.0391,513.4219 L332.9766,518.4844 L337.0781,518.4844 Z "/><text fill="#000000" font-family="sans-serif" font-size="18" font-style="italic" lengthAdjust="spacingAndGlyphs" textLength="87" x="378.375" y="514.4355">«abstract»</text><text fill="#000000" font-family="sans-serif" font-size="18" font-style="italic" lengthAdjust="spacingAndGlyphs" textLength="112.5" x="365.625" y="537.0762">AbstractArme</text><line style="stroke: #A80036; stroke-width: 2.25;" x1="255.75" x2="539.25" y1="548.5313" y2="548.5313"/><polygon fill="none" points="270.75,557.5313,276.75,563.5313,270.75,569.5313,264.75,563.5313" style="stroke: #B38D22; stroke-width: 1.5;"/><text fill="#000000" font-family="sans-serif" font-size="16.5" lengthAdjust="spacingAndGlyphs" textLength="219" x="284.25" y="571.6597">_description_utilisation : String</text><polygon fill="none" points="270.75,578.2852,276.75,584.2852,270.75,590.2852,264.75,584.2852" style="stroke: #B38D22; stroke-width: 1.5;"/><text fill="#000000" font-family="sans-serif" font-size="16.5" lengthAdjust="spacingAndGlyphs" textLength="138" x="284.25" y="592.4136">_base_attaque : int</text><ellipse cx="270.75" cy="606.5391" fill="none" rx="4.5" ry="4.5" style="stroke: #038048; stroke-width: 1.5;"/><text fill="#000000" font-family="sans-serif" font-size="16.5" lengthAdjust="spacingAndGlyphs" textLength="247.5" x="284.25" y="613.1675">DATABASE_TYPE_LABEL : String</text><line style="stroke: #A80036; stroke-width: 2.25;" x1="255.75" x2="539.25" y1="622.793" y2="622.793"/><ellipse cx="270.75" cy="639.293" fill="#84BE84" rx="4.5" ry="4.5" style="stroke: #038048; stroke-width: 1.5;"/><text fill="#000000" font-family="sans-serif" font-size="16.5" lengthAdjust="spacingAndGlyphs" textLength="199.5" x="284.25" y="645.9214">utiliser_arme(Statistique) int</text><!--MD5=[4fee37becfc6618f6c12d3f3b2ea6d43]
class Statistique--><rect fill="#FEFECE" filter="url(#f1aaobxminiky8)" height="175.7695" id="Statistique" style="stroke: #A80036; stroke-width: 2.25;" width="192" x="21" y="12"/><ellipse cx="69.15" cy="36" fill="#ADD1B2" rx="16.5" ry="16.5" style="stroke: #A80036; stroke-width: 1.5;"/><path d="M73.2984,29.8125 Q73.5328,29.4844 73.8141,29.3203 Q74.0953,29.1563 74.4234,29.1563 Q74.9859,29.1563 75.3375,29.5547 Q75.6891,29.9297 75.6891,30.8438 L75.6891,33.0234 Q75.6891,33.9375 75.3375,34.3359 Q74.9859,34.7344 74.4234,34.7344 Q73.9078,34.7344 73.6031,34.4297 Q73.2984,34.1484 73.1344,33.375 Q73.0641,32.8359 72.7828,32.5547 Q72.2906,31.9922 71.3766,31.6641 Q70.4625,31.3359 69.525,31.3359 Q68.3766,31.3359 67.4156,31.8281 Q66.4781,32.3203 65.7281,33.4453 Q65.0016,34.5703 65.0016,36.1172 L65.0016,37.7578 Q65.0016,39.6094 66.3375,40.8516 Q67.6734,42.0703 70.0641,42.0703 Q71.4703,42.0703 72.4547,41.6953 Q73.0406,41.4609 73.6734,40.8047 Q74.0719,40.4063 74.2828,40.2891 Q74.5172,40.1719 74.8219,40.1719 Q75.3141,40.1719 75.6891,40.5703 Q76.0875,40.9453 76.0875,41.4609 Q76.0875,41.9766 75.5719,42.5859 Q74.8219,43.4531 73.6266,43.9453 Q72.0094,44.625 70.0641,44.625 Q67.7906,44.625 65.9859,43.6875 Q64.5094,42.9375 63.4781,41.3438 Q62.4469,39.7266 62.4469,37.8047 L62.4469,36.0703 Q62.4469,34.0781 63.3609,32.3672 Q64.2984,30.6328 65.9391,29.7188 Q67.5797,28.7813 69.4313,28.7813 Q70.5328,28.7813 71.4938,29.0391 Q72.4781,29.2734 73.2984,29.8125 Z "/><text fill="#000000" font-family="sans-serif" font-size="18" lengthAdjust="spacingAndGlyphs" textLength="87" x="95.85" y="43.3652">Statistique</text><line style="stroke: #A80036; stroke-width: 2.25;" x1="22.5" x2="211.5" y1="60" y2="60"/><rect fill="none" height="9" style="stroke: #C82930; stroke-width: 1.5;" width="9" x="33" y="72"/><text fill="#000000" font-family="sans-serif" font-size="16.5" lengthAdjust="spacingAndGlyphs" textLength="87" x="51" y="83.1284">__force : int</text><rect fill="none" height="9" style="stroke: #C82930; stroke-width: 1.5;" width="9" x="33" y="92.7539"/><text fill="#000000" font-family="sans-serif" font-size="16.5" lengthAdjust="spacingAndGlyphs" textLength="88.5" x="51" y="103.8823">__agilite : int</text><rect fill="none" height="9" style="stroke: #C82930; stroke-width: 1.5;" width="9" x="33" y="113.5078"/><text fill="#000000" font-family="sans-serif" font-size="16.5" lengthAdjust="spacingAndGlyphs" textLength="90" x="51" y="124.6362">__magie : int</text><rect fill="none" height="9" style="stroke: #C82930; stroke-width: 1.5;" width="9" x="33" y="134.2617"/><text fill="#000000" font-family="sans-serif" font-size="16.5" lengthAdjust="spacingAndGlyphs" textLength="108" x="51" y="145.3901">__defense : int</text><rect fill="none" height="9" style="stroke: #C82930; stroke-width: 1.5;" width="9" x="33" y="155.0156"/><text fill="#000000" font-family="sans-serif" font-size="16.5" lengthAdjust="spacingAndGlyphs" textLength="153" x="51" y="166.144">__points_de_vie  : int</text><line style="stroke: #A80036; stroke-width: 2.25;" x1="22.5" x2="211.5" y1="175.7695" y2="175.7695"/><!--MD5=[3d84be9cf8814b79cd94b44793d635e4]
class ArmeDAO--><rect fill="#FEFECE" filter="url(#f1aaobxminiky8)" height="175.7695" id="ArmeDAO" style="stroke: #A80036; stroke-width: 2.25;" width="315" x="670.5" y="484.5"/><ellipse cx="781.125" cy="508.5" fill="#ADD1B2" rx="16.5" ry="16.5" style="stroke: #A80036; stroke-width: 1.5;"/><path d="M785.2734,502.3125 Q785.5078,501.9844 785.7891,501.8203 Q786.0703,501.6563 786.3984,501.6563 Q786.9609,501.6563 787.3125,502.0547 Q787.6641,502.4297 787.6641,503.3438 L787.6641,505.5234 Q787.6641,506.4375 787.3125,506.8359 Q786.9609,507.2344 786.3984,507.2344 Q785.8828,507.2344 785.5781,506.9297 Q785.2734,506.6484 785.1094,505.875 Q785.0391,505.3359 784.7578,505.0547 Q784.2656,504.4922 783.3516,504.1641 Q782.4375,503.8359 781.5,503.8359 Q780.3516,503.8359 779.3906,504.3281 Q778.4531,504.8203 777.7031,505.9453 Q776.9766,507.0703 776.9766,508.6172 L776.9766,510.2578 Q776.9766,512.1094 778.3125,513.3516 Q779.6484,514.5703 782.0391,514.5703 Q783.4453,514.5703 784.4297,514.1953 Q785.0156,513.9609 785.6484,513.3047 Q786.0469,512.9063 786.2578,512.7891 Q786.4922,512.6719 786.7969,512.6719 Q787.2891,512.6719 787.6641,513.0703 Q788.0625,513.4453 788.0625,513.9609 Q788.0625,514.4766 787.5469,515.0859 Q786.7969,515.9531 785.6016,516.4453 Q783.9844,517.125 782.0391,517.125 Q779.7656,517.125 777.9609,516.1875 Q776.4844,515.4375 775.4531,513.8438 Q774.4219,512.2266 774.4219,510.3047 L774.4219,508.5703 Q774.4219,506.5781 775.3359,504.8672 Q776.2734,503.1328 777.9141,502.2188 Q779.5547,501.2813 781.4063,501.2813 Q782.5078,501.2813 783.4688,501.5391 Q784.4531,501.7734 785.2734,502.3125 Z "/><text fill="#000000" font-family="sans-serif" font-size="18" lengthAdjust="spacingAndGlyphs" textLength="81" x="811.875" y="515.8652">ArmeDAO</text><line style="stroke: #A80036; stroke-width: 2.25;" x1="672" x2="984" y1="532.5" y2="532.5"/><line style="stroke: #A80036; stroke-width: 2.25;" x1="672" x2="984" y1="544.5" y2="544.5"/><ellipse cx="687" cy="561" fill="#84BE84" rx="4.5" ry="4.5" style="stroke: #038048; stroke-width: 1.5;"/><text fill="#000000" font-family="sans-serif" font-size="16.5" lengthAdjust="spacingAndGlyphs" textLength="276" x="700.5" y="567.6284">create(AbstractArme) : AbstractArme</text><ellipse cx="687" cy="581.7539" fill="#84BE84" rx="4.5" ry="4.5" style="stroke: #038048; stroke-width: 1.5;"/><text fill="#000000" font-family="sans-serif" font-size="16.5" lengthAdjust="spacingAndGlyphs" textLength="249" x="700.5" y="588.3823">find_by_name(str) : AbstractArme</text><ellipse cx="687" cy="602.5078" fill="#84BE84" rx="4.5" ry="4.5" style="stroke: #038048; stroke-width: 1.5;"/><text fill="#000000" font-family="sans-serif" font-size="16.5" lengthAdjust="spacingAndGlyphs" textLength="207" x="700.5" y="609.1362">find_all() : list[AbstractArme]</text><ellipse cx="687" cy="623.2617" fill="#84BE84" rx="4.5" ry="4.5" style="stroke: #038048; stroke-width: 1.5;"/><text fill="#000000" font-family="sans-serif" font-size="16.5" lengthAdjust="spacingAndGlyphs" textLength="234" x="700.5" y="629.8901">update(AbstractArme) : boolean</text><ellipse cx="687" cy="644.0156" fill="#84BE84" rx="4.5" ry="4.5" style="stroke: #038048; stroke-width: 1.5;"/><text fill="#000000" font-family="sans-serif" font-size="16.5" lengthAdjust="spacingAndGlyphs" textLength="228" x="700.5" y="650.644">delete(AbstractArme) : boolean</text><!--MD5=[b5a18631e1d490b056041475302c7e39]
class PoolConnection--><rect fill="#FEFECE" filter="url(#f1aaobxminiky8)" height="175.7695" id="PoolConnection" style="stroke: #A80036; stroke-width: 2.25;" width="316.5" x="669.75" y="777"/><ellipse cx="755.625" cy="801" fill="#ADD1B2" rx="16.5" ry="16.5" style="stroke: #A80036; stroke-width: 1.5;"/><path d="M759.7734,794.8125 Q760.0078,794.4844 760.2891,794.3203 Q760.5703,794.1563 760.8984,794.1563 Q761.4609,794.1563 761.8125,794.5547 Q762.1641,794.9297 762.1641,795.8438 L762.1641,798.0234 Q762.1641,798.9375 761.8125,799.3359 Q761.4609,799.7344 760.8984,799.7344 Q760.3828,799.7344 760.0781,799.4297 Q759.7734,799.1484 759.6094,798.375 Q759.5391,797.8359 759.2578,797.5547 Q758.7656,796.9922 757.8516,796.6641 Q756.9375,796.3359 756,796.3359 Q754.8516,796.3359 753.8906,796.8281 Q752.9531,797.3203 752.2031,798.4453 Q751.4766,799.5703 751.4766,801.1172 L751.4766,802.7578 Q751.4766,804.6094 752.8125,805.8516 Q754.1484,807.0703 756.5391,807.0703 Q757.9453,807.0703 758.9297,806.6953 Q759.5156,806.4609 760.1484,805.8047 Q760.5469,805.4063 760.7578,805.2891 Q760.9922,805.1719 761.2969,805.1719 Q761.7891,805.1719 762.1641,805.5703 Q762.5625,805.9453 762.5625,806.4609 Q762.5625,806.9766 762.0469,807.5859 Q761.2969,808.4531 760.1016,808.9453 Q758.4844,809.625 756.5391,809.625 Q754.2656,809.625 752.4609,808.6875 Q750.9844,807.9375 749.9531,806.3438 Q748.9219,804.7266 748.9219,802.8047 L748.9219,801.0703 Q748.9219,799.0781 749.8359,797.3672 Q750.7734,795.6328 752.4141,794.7188 Q754.0547,793.7813 755.9063,793.7813 Q757.0078,793.7813 757.9688,794.0391 Q758.9531,794.2734 759.7734,794.8125 Z "/><text fill="#000000" font-family="sans-serif" font-size="18" lengthAdjust="spacingAndGlyphs" textLength="132" x="786.375" y="808.3652">PoolConnection</text><line style="stroke: #A80036; stroke-width: 2.25;" x1="671.25" x2="984.75" y1="825" y2="825"/><rect fill="none" height="9" style="stroke: #C82930; stroke-width: 1.5;" width="9" x="681.75" y="837"/><text fill="#000000" font-family="sans-serif" font-size="16.5" lengthAdjust="spacingAndGlyphs" textLength="195" x="699.75" y="848.1284">__instance PoolConnection</text><line style="stroke: #A80036; stroke-width: 2.25;" x1="671.25" x2="984.75" y1="857.7539" y2="857.7539"/><ellipse cx="686.25" cy="874.2539" fill="#84BE84" rx="4.5" ry="4.5" style="stroke: #038048; stroke-width: 1.5;"/><text fill="#000000" font-family="sans-serif" font-size="16.5" lengthAdjust="spacingAndGlyphs" textLength="204" x="699.75" y="880.8823">getConnexion() : connection</text><ellipse cx="686.25" cy="895.0078" fill="#84BE84" rx="4.5" ry="4.5" style="stroke: #038048; stroke-width: 1.5;"/><text fill="#000000" font-family="sans-serif" font-size="16.5" lengthAdjust="spacingAndGlyphs" textLength="207" x="699.75" y="901.6362">closeConnexions() : boolean</text><ellipse cx="686.25" cy="915.7617" fill="#84BE84" rx="4.5" ry="4.5" style="stroke: #038048; stroke-width: 1.5;"/><text fill="#000000" font-family="sans-serif" font-size="16.5" lengthAdjust="spacingAndGlyphs" textLength="267" x="699.75" y="922.3901">getInstance() : SimpleConnectionPool</text><ellipse cx="686.25" cy="936.5156" fill="#84BE84" rx="4.5" ry="4.5" style="stroke: #038048; stroke-width: 1.5;"/><text fill="#000000" font-family="sans-serif" font-size="16.5" lengthAdjust="spacingAndGlyphs" textLength="277.5" x="699.75" y="943.144">putBackConnexion(connection) : None</text><!--MD5=[14c31d852211043c5c6227b482009b90]
class Epee--><rect fill="#FEFECE" filter="url(#f1aaobxminiky8)" height="72" id="Epee" style="stroke: #A80036; stroke-width: 2.25;" width="91.5" x="278.25" y="300"/><ellipse cx="300.75" cy="324" fill="#ADD1B2" rx="16.5" ry="16.5" style="stroke: #A80036; stroke-width: 1.5;"/><path d="M304.8984,317.8125 Q305.1328,317.4844 305.4141,317.3203 Q305.6953,317.1563 306.0234,317.1563 Q306.5859,317.1563 306.9375,317.5547 Q307.2891,317.9297 307.2891,318.8438 L307.2891,321.0234 Q307.2891,321.9375 306.9375,322.3359 Q306.5859,322.7344 306.0234,322.7344 Q305.5078,322.7344 305.2031,322.4297 Q304.8984,322.1484 304.7344,321.375 Q304.6641,320.8359 304.3828,320.5547 Q303.8906,319.9922 302.9766,319.6641 Q302.0625,319.3359 301.125,319.3359 Q299.9766,319.3359 299.0156,319.8281 Q298.0781,320.3203 297.3281,321.4453 Q296.6016,322.5703 296.6016,324.1172 L296.6016,325.7578 Q296.6016,327.6094 297.9375,328.8516 Q299.2734,330.0703 301.6641,330.0703 Q303.0703,330.0703 304.0547,329.6953 Q304.6406,329.4609 305.2734,328.8047 Q305.6719,328.4063 305.8828,328.2891 Q306.1172,328.1719 306.4219,328.1719 Q306.9141,328.1719 307.2891,328.5703 Q307.6875,328.9453 307.6875,329.4609 Q307.6875,329.9766 307.1719,330.5859 Q306.4219,331.4531 305.2266,331.9453 Q303.6094,332.625 301.6641,332.625 Q299.3906,332.625 297.5859,331.6875 Q296.1094,330.9375 295.0781,329.3438 Q294.0469,327.7266 294.0469,325.8047 L294.0469,324.0703 Q294.0469,322.0781 294.9609,320.3672 Q295.8984,318.6328 297.5391,317.7188 Q299.1797,316.7813 301.0313,316.7813 Q302.1328,316.7813 303.0938,317.0391 Q304.0781,317.2734 304.8984,317.8125 Z "/><text fill="#000000" font-family="sans-serif" font-size="18" lengthAdjust="spacingAndGlyphs" textLength="43.5" x="321.75" y="331.3652">Epee</text><line style="stroke: #A80036; stroke-width: 2.25;" x1="279.75" x2="368.25" y1="348" y2="348"/><line style="stroke: #A80036; stroke-width: 2.25;" x1="279.75" x2="368.25" y1="360" y2="360"/><!--MD5=[ea236aa9c420d1c71b0f4c856d0a876c]
class Baton--><rect fill="#FEFECE" filter="url(#f1aaobxminiky8)" height="72" id="Baton" style="stroke: #A80036; stroke-width: 2.25;" width="96" x="423" y="300"/><ellipse cx="445.5" cy="324" fill="#ADD1B2" rx="16.5" ry="16.5" style="stroke: #A80036; stroke-width: 1.5;"/><path d="M449.6484,317.8125 Q449.8828,317.4844 450.1641,317.3203 Q450.4453,317.1563 450.7734,317.1563 Q451.3359,317.1563 451.6875,317.5547 Q452.0391,317.9297 452.0391,318.8438 L452.0391,321.0234 Q452.0391,321.9375 451.6875,322.3359 Q451.3359,322.7344 450.7734,322.7344 Q450.2578,322.7344 449.9531,322.4297 Q449.6484,322.1484 449.4844,321.375 Q449.4141,320.8359 449.1328,320.5547 Q448.6406,319.9922 447.7266,319.6641 Q446.8125,319.3359 445.875,319.3359 Q444.7266,319.3359 443.7656,319.8281 Q442.8281,320.3203 442.0781,321.4453 Q441.3516,322.5703 441.3516,324.1172 L441.3516,325.7578 Q441.3516,327.6094 442.6875,328.8516 Q444.0234,330.0703 446.4141,330.0703 Q447.8203,330.0703 448.8047,329.6953 Q449.3906,329.4609 450.0234,328.8047 Q450.4219,328.4063 450.6328,328.2891 Q450.8672,328.1719 451.1719,328.1719 Q451.6641,328.1719 452.0391,328.5703 Q452.4375,328.9453 452.4375,329.4609 Q452.4375,329.9766 451.9219,330.5859 Q451.1719,331.4531 449.9766,331.9453 Q448.3594,332.625 446.4141,332.625 Q444.1406,332.625 442.3359,331.6875 Q440.8594,330.9375 439.8281,329.3438 Q438.7969,327.7266 438.7969,325.8047 L438.7969,324.0703 Q438.7969,322.0781 439.7109,320.3672 Q440.6484,318.6328 442.2891,317.7188 Q443.9297,316.7813 445.7813,316.7813 Q446.8828,316.7813 447.8438,317.0391 Q448.8281,317.2734 449.6484,317.8125 Z "/><text fill="#000000" font-family="sans-serif" font-size="18" lengthAdjust="spacingAndGlyphs" textLength="48" x="466.5" y="331.3652">Baton</text><line style="stroke: #A80036; stroke-width: 2.25;" x1="424.5" x2="517.5" y1="348" y2="348"/><line style="stroke: #A80036; stroke-width: 2.25;" x1="424.5" x2="517.5" y1="360" y2="360"/><!--MD5=[ae7bc4368a5efd04dbc3ae20ffd6acf5]
class Arc--><rect fill="#FEFECE" filter="url(#f1aaobxminiky8)" height="72" id="Arc" style="stroke: #A80036; stroke-width: 2.25;" width="73.5" x="572.25" y="300"/><ellipse cx="594.75" cy="324" fill="#ADD1B2" rx="16.5" ry="16.5" style="stroke: #A80036; stroke-width: 1.5;"/><path d="M598.8984,317.8125 Q599.1328,317.4844 599.4141,317.3203 Q599.6953,317.1563 600.0234,317.1563 Q600.5859,317.1563 600.9375,317.5547 Q601.2891,317.9297 601.2891,318.8438 L601.2891,321.0234 Q601.2891,321.9375 600.9375,322.3359 Q600.5859,322.7344 600.0234,322.7344 Q599.5078,322.7344 599.2031,322.4297 Q598.8984,322.1484 598.7344,321.375 Q598.6641,320.8359 598.3828,320.5547 Q597.8906,319.9922 596.9766,319.6641 Q596.0625,319.3359 595.125,319.3359 Q593.9766,319.3359 593.0156,319.8281 Q592.0781,320.3203 591.3281,321.4453 Q590.6016,322.5703 590.6016,324.1172 L590.6016,325.7578 Q590.6016,327.6094 591.9375,328.8516 Q593.2734,330.0703 595.6641,330.0703 Q597.0703,330.0703 598.0547,329.6953 Q598.6406,329.4609 599.2734,328.8047 Q599.6719,328.4063 599.8828,328.2891 Q600.1172,328.1719 600.4219,328.1719 Q600.9141,328.1719 601.2891,328.5703 Q601.6875,328.9453 601.6875,329.4609 Q601.6875,329.9766 601.1719,330.5859 Q600.4219,331.4531 599.2266,331.9453 Q597.6094,332.625 595.6641,332.625 Q593.3906,332.625 591.5859,331.6875 Q590.1094,330.9375 589.0781,329.3438 Q588.0469,327.7266 588.0469,325.8047 L588.0469,324.0703 Q588.0469,322.0781 588.9609,320.3672 Q589.8984,318.6328 591.5391,317.7188 Q593.1797,316.7813 595.0313,316.7813 Q596.1328,316.7813 597.0938,317.0391 Q598.0781,317.2734 598.8984,317.8125 Z "/><text fill="#000000" font-family="sans-serif" font-size="18" lengthAdjust="spacingAndGlyphs" textLength="25.5" x="615.75" y="331.3652">Arc</text><line style="stroke: #A80036; stroke-width: 2.25;" x1="573.75" x2="644.25" y1="348" y2="348"/><line style="stroke: #A80036; stroke-width: 2.25;" x1="573.75" x2="644.25" y1="360" y2="360"/><!--MD5=[27bf5b02022a00c45befc02adbdd81fc]
class Couteau--><rect fill="#FEFECE" filter="url(#f1aaobxminiky8)" height="72" id="Couteau" style="stroke: #A80036; stroke-width: 2.25;" width="118.5" x="176.25" y="828.75"/><ellipse cx="198.75" cy="852.75" fill="#ADD1B2" rx="16.5" ry="16.5" style="stroke: #A80036; stroke-width: 1.5;"/><path d="M202.8984,846.5625 Q203.1328,846.2344 203.4141,846.0703 Q203.6953,845.9063 204.0234,845.9063 Q204.5859,845.9063 204.9375,846.3047 Q205.2891,846.6797 205.2891,847.5938 L205.2891,849.7734 Q205.2891,850.6875 204.9375,851.0859 Q204.5859,851.4844 204.0234,851.4844 Q203.5078,851.4844 203.2031,851.1797 Q202.8984,850.8984 202.7344,850.125 Q202.6641,849.5859 202.3828,849.3047 Q201.8906,848.7422 200.9766,848.4141 Q200.0625,848.0859 199.125,848.0859 Q197.9766,848.0859 197.0156,848.5781 Q196.0781,849.0703 195.3281,850.1953 Q194.6016,851.3203 194.6016,852.8672 L194.6016,854.5078 Q194.6016,856.3594 195.9375,857.6016 Q197.2734,858.8203 199.6641,858.8203 Q201.0703,858.8203 202.0547,858.4453 Q202.6406,858.2109 203.2734,857.5547 Q203.6719,857.1563 203.8828,857.0391 Q204.1172,856.9219 204.4219,856.9219 Q204.9141,856.9219 205.2891,857.3203 Q205.6875,857.6953 205.6875,858.2109 Q205.6875,858.7266 205.1719,859.3359 Q204.4219,860.2031 203.2266,860.6953 Q201.6094,861.375 199.6641,861.375 Q197.3906,861.375 195.5859,860.4375 Q194.1094,859.6875 193.0781,858.0938 Q192.0469,856.4766 192.0469,854.5547 L192.0469,852.8203 Q192.0469,850.8281 192.9609,849.1172 Q193.8984,847.3828 195.5391,846.4688 Q197.1797,845.5313 199.0313,845.5313 Q200.1328,845.5313 201.0938,845.7891 Q202.0781,846.0234 202.8984,846.5625 Z "/><text fill="#000000" font-family="sans-serif" font-size="18" lengthAdjust="spacingAndGlyphs" textLength="70.5" x="219.75" y="860.1152">Couteau</text><line style="stroke: #A80036; stroke-width: 2.25;" x1="177.75" x2="293.25" y1="876.75" y2="876.75"/><line style="stroke: #A80036; stroke-width: 2.25;" x1="177.75" x2="293.25" y1="888.75" y2="888.75"/><!--MD5=[e84bf443d14748ff027e0241600c7459]
class Lance--><rect fill="#FEFECE" filter="url(#f1aaobxminiky8)" height="72" id="Lance" style="stroke: #A80036; stroke-width: 2.25;" width="99" x="348" y="828.75"/><ellipse cx="370.5" cy="852.75" fill="#ADD1B2" rx="16.5" ry="16.5" style="stroke: #A80036; stroke-width: 1.5;"/><path d="M374.6484,846.5625 Q374.8828,846.2344 375.1641,846.0703 Q375.4453,845.9063 375.7734,845.9063 Q376.3359,845.9063 376.6875,846.3047 Q377.0391,846.6797 377.0391,847.5938 L377.0391,849.7734 Q377.0391,850.6875 376.6875,851.0859 Q376.3359,851.4844 375.7734,851.4844 Q375.2578,851.4844 374.9531,851.1797 Q374.6484,850.8984 374.4844,850.125 Q374.4141,849.5859 374.1328,849.3047 Q373.6406,848.7422 372.7266,848.4141 Q371.8125,848.0859 370.875,848.0859 Q369.7266,848.0859 368.7656,848.5781 Q367.8281,849.0703 367.0781,850.1953 Q366.3516,851.3203 366.3516,852.8672 L366.3516,854.5078 Q366.3516,856.3594 367.6875,857.6016 Q369.0234,858.8203 371.4141,858.8203 Q372.8203,858.8203 373.8047,858.4453 Q374.3906,858.2109 375.0234,857.5547 Q375.4219,857.1563 375.6328,857.0391 Q375.8672,856.9219 376.1719,856.9219 Q376.6641,856.9219 377.0391,857.3203 Q377.4375,857.6953 377.4375,858.2109 Q377.4375,858.7266 376.9219,859.3359 Q376.1719,860.2031 374.9766,860.6953 Q373.3594,861.375 371.4141,861.375 Q369.1406,861.375 367.3359,860.4375 Q365.8594,859.6875 364.8281,858.0938 Q363.7969,856.4766 363.7969,854.5547 L363.7969,852.8203 Q363.7969,850.8281 364.7109,849.1172 Q365.6484,847.3828 367.2891,846.4688 Q368.9297,845.5313 370.7813,845.5313 Q371.8828,845.5313 372.8438,845.7891 Q373.8281,846.0234 374.6484,846.5625 Z "/><text fill="#000000" font-family="sans-serif" font-size="18" lengthAdjust="spacingAndGlyphs" textLength="51" x="391.5" y="860.1152">Lance</text><line style="stroke: #A80036; stroke-width: 2.25;" x1="349.5" x2="445.5" y1="876.75" y2="876.75"/><line style="stroke: #A80036; stroke-width: 2.25;" x1="349.5" x2="445.5" y1="888.75" y2="888.75"/><!--MD5=[e6c689e0fb2094b6e7ddc8286563ae4c]
class Livre--><rect fill="#FEFECE" filter="url(#f1aaobxminiky8)" height="72" id="Livre" style="stroke: #A80036; stroke-width: 2.25;" width="87" x="499.5" y="828.75"/><ellipse cx="522" cy="852.75" fill="#ADD1B2" rx="16.5" ry="16.5" style="stroke: #A80036; stroke-width: 1.5;"/><path d="M526.1484,846.5625 Q526.3828,846.2344 526.6641,846.0703 Q526.9453,845.9063 527.2734,845.9063 Q527.8359,845.9063 528.1875,846.3047 Q528.5391,846.6797 528.5391,847.5938 L528.5391,849.7734 Q528.5391,850.6875 528.1875,851.0859 Q527.8359,851.4844 527.2734,851.4844 Q526.7578,851.4844 526.4531,851.1797 Q526.1484,850.8984 525.9844,850.125 Q525.9141,849.5859 525.6328,849.3047 Q525.1406,848.7422 524.2266,848.4141 Q523.3125,848.0859 522.375,848.0859 Q521.2266,848.0859 520.2656,848.5781 Q519.3281,849.0703 518.5781,850.1953 Q517.8516,851.3203 517.8516,852.8672 L517.8516,854.5078 Q517.8516,856.3594 519.1875,857.6016 Q520.5234,858.8203 522.9141,858.8203 Q524.3203,858.8203 525.3047,858.4453 Q525.8906,858.2109 526.5234,857.5547 Q526.9219,857.1563 527.1328,857.0391 Q527.3672,856.9219 527.6719,856.9219 Q528.1641,856.9219 528.5391,857.3203 Q528.9375,857.6953 528.9375,858.2109 Q528.9375,858.7266 528.4219,859.3359 Q527.6719,860.2031 526.4766,860.6953 Q524.8594,861.375 522.9141,861.375 Q520.6406,861.375 518.8359,860.4375 Q517.3594,859.6875 516.3281,858.0938 Q515.2969,856.4766 515.2969,854.5547 L515.2969,852.8203 Q515.2969,850.8281 516.2109,849.1172 Q517.1484,847.3828 518.7891,846.4688 Q520.4297,845.5313 522.2813,845.5313 Q523.3828,845.5313 524.3438,845.7891 Q525.3281,846.0234 526.1484,846.5625 Z "/><text fill="#000000" font-family="sans-serif" font-size="18" lengthAdjust="spacingAndGlyphs" textLength="39" x="543" y="860.1152">Livre</text><line style="stroke: #A80036; stroke-width: 2.25;" x1="501" x2="585" y1="876.75" y2="876.75"/><line style="stroke: #A80036; stroke-width: 2.25;" x1="501" x2="585" y1="888.75" y2="888.75"/><!--MD5=[56cdda30bcbcbd8edfacf8d1cd51763e]
reverse link AbstractArme to ArmeDAO--><path d="M548.6925,572.25 C588.1215,572.25 630.7065,572.25 670.4565,572.25 " fill="none" id="AbstractArme&lt;-ArmeDAO" style="stroke: #A80036; stroke-width: 1.5; stroke-dasharray: 7.0,7.0;"/><polygon fill="#A80036" points="540.8505,572.25,554.3505,578.25,548.3505,572.25,554.3505,566.25,540.8505,572.25" style="stroke: #A80036; stroke-width: 1.5;"/><text fill="#000000" font-family="sans-serif" font-size="19.5" lengthAdjust="spacingAndGlyphs" textLength="75" x="568.125" y="562.4927">«create»</text><!--MD5=[dd8ba4ca715ab9f577bb27c75437f342]
link ArmeDAO to PoolConnection--><path d="M828,660.2175 C828,694.4505 828,733.9035 828,768.8745 " fill="none" id="ArmeDAO-&gt;PoolConnection" style="stroke: #A80036; stroke-width: 1.5; stroke-dasharray: 7.0,7.0;"/><polygon fill="#A80036" points="828,776.7285,834,763.2285,828,769.2285,822,763.2285,828,776.7285" style="stroke: #A80036; stroke-width: 1.5;"/><text fill="#000000" font-family="sans-serif" font-size="19.5" lengthAdjust="spacingAndGlyphs" textLength="52.5" x="829.5" y="726.7427">«use»</text><!--MD5=[8328a021501810b8d85065988d54b55d]
link Statistique to AbstractEquipement--><path d="M117,188.103 C117,211.308 117,236.199 117,258.7545 " fill="none" id="Statistique-&gt;AbstractEquipement" style="stroke: #A80036; stroke-width: 1.5;"/><polygon fill="#A80036" points="117,278.6955,123,269.6955,117,260.6955,111,269.6955,117,278.6955" style="stroke: #A80036; stroke-width: 1.5;"/><text fill="#000000" font-family="sans-serif" font-size="19.5" lengthAdjust="spacingAndGlyphs" textLength="10.5" x="105.893" y="219.9639">1</text><!--MD5=[d04d4f213dc32a2defacb7ed4f31b75d]
reverse link AbstractEquipement to AbstractArme--><path d="M207.5385,412.7865 C236.3925,436.782 268.473,463.4565 297.93,487.953 " fill="none" id="AbstractEquipement&lt;-AbstractArme" style="stroke: #A80036; stroke-width: 1.5;"/><polygon fill="none" points="200.5395,420.624,184.1865,393.369,213.9675,404.4765,200.5395,420.624" style="stroke: #A80036; stroke-width: 1.5;"/><!--MD5=[9b6e406c015dd290189d05b176ba032b]
link Epee to AbstractArme--><path d="M335.004,372.42 C342.3255,395.6535 352.386,427.5795 362.2965,459.03 " fill="none" id="Epee-&gt;AbstractArme" style="stroke: #A80036; stroke-width: 1.5;"/><polygon fill="none" points="372.462,456.3555,371.4645,488.1255,352.4325,462.6675,372.462,456.3555" style="stroke: #A80036; stroke-width: 1.5;"/><!--MD5=[c9b0f911b024d2dc3f2b18078dd5b6ec]
link Baton to AbstractArme--><path d="M459.996,372.42 C452.6745,395.6535 442.614,427.5795 432.7035,459.03 " fill="none" id="Baton-&gt;AbstractArme" style="stroke: #A80036; stroke-width: 1.5;"/><polygon fill="none" points="442.5675,462.6675,423.5355,488.1255,422.538,456.3555,442.5675,462.6675" style="stroke: #A80036; stroke-width: 1.5;"/><!--MD5=[467e06bf1070bb5ad80829b4be99a0f3]
link Arc to AbstractArme--><path d="M577.3365,372.42 C554.757,397.3215 523.122,432.21 492.669,465.7935 " fill="none" id="Arc-&gt;AbstractArme" style="stroke: #A80036; stroke-width: 1.5;"/><polygon fill="none" points="500.3505,472.9545,472.4205,488.1255,484.794,458.847,500.3505,472.9545" style="stroke: #A80036; stroke-width: 1.5;"/><!--MD5=[2d044bec438a0004392ecbf35213228d]
reverse link AbstractArme to Couteau--><path d="M336.6345,682.518 C307.8075,734.0325 275.349,792.039 255.1575,828.12 " fill="none" id="AbstractArme&lt;-Couteau" style="stroke: #A80036; stroke-width: 1.5;"/><polygon fill="none" points="327.4815,677.3745,351.294,656.322,345.807,687.6285,327.4815,677.3745" style="stroke: #A80036; stroke-width: 1.5;"/><!--MD5=[ec0bd100f1cb45a009e81bb20a32a083]
reverse link AbstractArme to Lance--><path d="M397.5,686.7855 C397.5,737.2095 397.5,793.032 397.5,828.12 " fill="none" id="AbstractArme&lt;-Lance" style="stroke: #A80036; stroke-width: 1.5;"/><polygon fill="none" points="387,686.322,397.5,656.322,408,686.322,387,686.322" style="stroke: #A80036; stroke-width: 1.5;"/><!--MD5=[bb2e391553cc5013f0ee8dd941c99f03]
reverse link AbstractArme to Livre--><path d="M452.523,683.2275 C478.3245,734.565 507.294,792.2055 525.3435,828.12 " fill="none" id="AbstractArme&lt;-Livre" style="stroke: #A80036; stroke-width: 1.5;"/><polygon fill="none" points="443.0895,687.8415,438.999,656.322,461.853,678.411,443.0895,687.8415" style="stroke: #A80036; stroke-width: 1.5;"/><!--MD5=[4a341ac07243237a3a858acb7b6aed8d]
@startuml
scale 1.5
abstract class AbstractEquipement {
	#_nom String
    #_id  int
	 }

abstract class AbstractArme <<abstract>> {
    #_description_utilisation : String
    #_base_attaque : int
    +DATABASE_TYPE_LABEL : String
    +utiliser_arme(Statistique) int
}

	 
class Statistique {
	 -__force : int
	 -__agilite : int
	 -__magie : int
	 -__defense : int
	 -__points_de_vie  : int
}

class ArmeDAO{
+ create(AbstractArme) : AbstractArme
+ find_by_name(str) : AbstractArme
+ find_all() : list[AbstractArme]
+ update(AbstractArme) : boolean
+ delete(AbstractArme) : boolean
}

class PoolConnection{
 - __instance PoolConnection
 + getConnexion() : connection 
 + closeConnexions() : boolean 
 + getInstance() : SimpleConnectionPool 
 + putBackConnexion(connection) : None 
}

AbstractArme<.left. ArmeDAO: <<create>>
ArmeDAO..> PoolConnection: <<use>>

Statistique "1"- -* AbstractEquipement
AbstractEquipement <|- - AbstractArme
Epee - -|> AbstractArme
Baton - -|> AbstractArme
Arc - -|> AbstractArme
AbstractArme <|- - Couteau
AbstractArme <|- - Lance
AbstractArme <|- - Livre

@enduml

PlantUML version 1.2020.10(Sun May 17 11:35:57 CEST 2020)
(GPL source distribution)
Java Runtime: OpenJDK Runtime Environment
JVM: OpenJDK 64-Bit Server VM
Java Version: 14+36
Operating System: Windows 10
Default Encoding: Cp1252
Language: fr
Country: FR
--></g></svg>